<svg
	width="1007"
	height="43"
	viewBox="0 0 1007 43"
	fill="none"
	xmlns="http://www.w3.org/2000/svg"
>
	<path
		d="M20.9436 15.1836C12.783 16.1745 12.761 19.9507 13.7505 24.0713L17.9649 27.827C25.1552 30.7148 27.0286 24.9611 28.4549 18.4818L20.9436 15.1836Z"
		fill="#FFCDA9"
		stroke="#FFCDA9"
		stroke-width="1.5"
		stroke-linecap="round"
		stroke-linejoin="round"
	/>
	<path
		d="M28.6425 18.8703C31.5977 18.9231 33.9637 22.343 33.9271 26.5076C33.8919 30.5359 31.6725 33.8122 28.8169 33.95C28.3478 33.95 12.6041 33.9662 12.1013 33.9749C9.59897 34.038 6.82109 34.0937 5.38158 32.4944C3.88049 30.8233 3.86877 26.9269 4.1209 24.5199C4.57973 20.1706 9.00382 16.3152 13.5672 15.0912C13.9776 14.9798 16.5195 14.1838 20.0567 14.9373M17.9224 27.5851C18.7084 28.1842 19.6355 28.5706 20.6144 28.7072C21.5932 28.8437 22.5907 28.7258 23.5107 28.3647C24.4307 28.0036 25.2421 27.4116 25.8668 26.6457C26.4914 25.8799 26.9082 24.966 27.0769 23.9922C27.1297 23.6785 28.9797 11.7988 33.8787 12.4497C34.7729 12.5669 35.758 12.7795 36.4279 12.1785C36.629 11.9983 36.7926 11.7802 36.9093 11.5367C37.026 11.2932 37.0935 11.0291 37.108 10.7595C37.1224 10.4898 37.0835 10.22 36.9935 9.96544C36.9034 9.71088 36.764 9.47658 36.5833 9.27598C36.2179 8.86965 35.7062 8.62502 35.1605 8.59588C34.6149 8.56675 34.08 8.75548 33.6735 9.12059C34.0399 8.75412 34.4401 8.0974 34.4592 7.57993C34.4694 7.30992 34.4263 7.04055 34.3323 6.7872C34.2384 6.53386 34.0954 6.30151 33.9117 6.10343C33.7279 5.90536 33.5069 5.74544 33.2612 5.63281C33.0156 5.52019 32.7502 5.45706 32.4802 5.44705C31.5054 5.4104 30.5013 6.02608 30.4162 6.95399C29.6613 15.2407 20.6357 14.1179 17.1015 15.8667C13.5672 17.617 12.0646 20.4535 13.7079 23.7767"
		fill="#FFCDA9"
	/>
	<path
		d="M28.6425 18.8703C31.5977 18.9231 33.9637 22.343 33.9271 26.5076C33.8919 30.5359 31.6725 33.8122 28.8169 33.95C28.3478 33.95 12.6041 33.9661 12.1013 33.9749C9.59897 34.038 6.82109 34.0937 5.38158 32.4944C3.88049 30.8233 3.86877 26.9269 4.1209 24.5199C4.57973 20.1706 9.00382 16.3152 13.5672 15.0912C13.9776 14.9798 16.5195 14.1838 20.0567 14.9373M17.9224 27.5851C18.7084 28.1842 19.6355 28.5706 20.6144 28.7072C21.5932 28.8437 22.5907 28.7258 23.5107 28.3647C24.4307 28.0036 25.2421 27.4116 25.8668 26.6457C26.4914 25.8799 26.9082 24.966 27.0769 23.9922C27.1297 23.6785 28.9797 11.7988 33.8787 12.4497C34.7729 12.5669 35.758 12.7795 36.4279 12.1785C36.629 11.9983 36.7926 11.7802 36.9093 11.5367C37.026 11.2932 37.0935 11.0291 37.108 10.7595C37.1224 10.4898 37.0835 10.22 36.9935 9.96544C36.9034 9.71087 36.764 9.47658 36.5833 9.27598C36.2179 8.86965 35.7062 8.62502 35.1605 8.59588C34.6149 8.56675 34.08 8.75548 33.6735 9.1206C34.0399 8.75412 34.4401 8.0974 34.4592 7.57993C34.4694 7.30992 34.4263 7.04055 34.3323 6.7872C34.2384 6.53386 34.0954 6.30151 33.9117 6.10343C33.7279 5.90536 33.5069 5.74544 33.2612 5.63281C33.0156 5.52019 32.7502 5.45706 32.4802 5.44705C31.5054 5.4104 30.5013 6.02608 30.4162 6.95399C29.6613 15.2407 20.6357 14.1179 17.1015 15.8667C13.5672 17.617 12.0646 20.4535 13.7079 23.7767"
		stroke="#EB2A00"
		stroke-width="1.5"
		stroke-linecap="round"
		stroke-linejoin="round"
	/>
	<path
		d="M1 36.2515H36.9981C36.9761 37.6558 36.7079 38.8608 35.2317 39.1041H3.18273C1.00733 38.7318 1.35328 37.3524 1 36.2515V36.2515Z"
		stroke="#EB2A00"
		stroke-width="1.5"
		stroke-linecap="round"
		stroke-linejoin="round"
	/>
	<path
		d="M15.895 21.5104C15.8899 21.12 15.9624 20.7325 16.1084 20.3703C16.2544 20.0082 16.4708 19.6787 16.7453 19.401C17.0192 19.1234 17.3456 18.9029 17.7055 18.7525C18.0653 18.602 18.4515 18.5245 18.8415 18.5244"
		stroke="white"
		stroke-width="1.5"
		stroke-linecap="round"
		stroke-linejoin="round"
	/>
	<path
		d="M66.4715 26.0574C70.067 31.9918 79.5795 34.7129 88.125 34.3481C91.1236 34.2207 94.0174 33.5609 96.5797 32.3287C99.7127 30.8242 102.055 28.6895 103.998 26.1116L104.05 26.2198C104.05 26.2198 108.319 32.5974 111.196 31.8399C112.494 31.4961 108.251 22.7831 108.251 20.7654C108.251 19.1247 113.459 11.1744 110.759 9.63848C110.658 9.58921 110.545 9.57094 110.433 9.58607C108.536 9.67334 103.67 16.2937 103.67 16.2937H103.615C100.884 12.4712 96.4523 9.69957 91.2876 8.5476C89.2825 8.10862 87.2299 7.92561 85.1787 8.00302C76.4482 8.29101 68.58 13.213 66.1975 20.6031L66.2516 20.7113L69.5784 23.0571L66.4715 26.0016"
		fill="#FFCDA9"
	/>
	<path
		d="M66.4715 26.0574C70.067 31.9918 79.5795 34.7129 88.125 34.3481C91.1236 34.2207 94.0174 33.5609 96.5797 32.3287C99.7127 30.8242 102.055 28.6895 103.998 26.1116L104.05 26.2198C104.05 26.2198 108.319 32.5974 111.196 31.8399C112.494 31.4961 108.251 22.7831 108.251 20.7654C108.251 19.1247 113.459 11.1744 110.759 9.63848C110.658 9.58921 110.545 9.57094 110.433 9.58607V9.58607C108.536 9.67334 103.67 16.2937 103.67 16.2937H103.615C100.884 12.4712 96.4523 9.69957 91.2876 8.5476C89.2825 8.10862 87.2299 7.92561 85.1787 8.00302C76.4482 8.29101 68.58 13.213 66.1975 20.6031L66.2516 20.7113L69.5784 23.0571L66.4715 26.0016"
		stroke="#EB2A00"
		stroke-width="1.5"
		stroke-linecap="round"
		stroke-linejoin="round"
	/>
	<path
		d="M77.1464 19.7861C78.466 19.7861 79.5356 18.732 79.5356 17.4316C79.5356 16.1312 78.466 15.0771 77.1464 15.0771C75.8267 15.0771 74.7571 16.1312 74.7571 17.4316C74.7571 18.732 75.8267 19.7861 77.1464 19.7861Z"
		fill="white"
		stroke="#EB2A00"
		stroke-width="1.5"
		stroke-linecap="round"
		stroke-linejoin="round"
	/>
	<path
		d="M82.29 14.9426C84.052 16.0874 85.4036 17.7495 86.1533 19.6934C86.9029 21.6372 87.0127 23.7642 86.4669 25.7729C85.921 27.7816 84.7469 29.5702 83.1116 30.885C81.4763 32.1998 79.4624 32.9742 77.3555 33.0984"
		stroke="#EB2A00"
		stroke-width="1.5"
		stroke-linecap="round"
		stroke-linejoin="round"
	/>
	<path
		d="M84.2136 11.3053C86.8081 10.6098 89.5704 10.9379 91.9299 12.2216"
		stroke="white"
		stroke-width="1.5"
		stroke-linecap="round"
		stroke-linejoin="round"
	/>
	<path
		d="M146.718 31.6945C145.736 31.6945 144.917 32.3378 144.613 33.2181C144.34 33.0968 144.045 33.0327 143.746 33.0297C142.506 33.0297 141.5 34.038 141.5 35.2808V35.3756C140.351 35.474 139.441 36.0936 139.441 37.2713C139.441 38.5153 140.446 39.1042 141.687 39.1042H148.082"
		fill="#FFCDA9"
	/>
	<path
		d="M146.718 31.6945C145.736 31.6945 144.917 32.3378 144.613 33.2181C144.34 33.0968 144.045 33.0327 143.746 33.0297C142.506 33.0297 141.5 34.038 141.5 35.2808V35.3756C140.351 35.474 139.441 36.0936 139.441 37.2713C139.441 38.5153 140.446 39.1042 141.687 39.1042H148.082"
		stroke="#EB2A00"
		stroke-width="1.5"
		stroke-linecap="round"
		stroke-linejoin="round"
	/>
	<path
		d="M165.65 16.5908V35.3519C165.651 35.8444 165.556 36.3323 165.368 36.7877C165.181 37.2432 164.905 37.657 164.557 38.0057C164.209 38.3543 163.796 38.6308 163.341 38.8193C162.886 39.0078 162.398 39.1046 161.906 39.1041H150.674C150.181 39.1048 149.694 39.0081 149.238 38.8196C148.783 38.6312 148.37 38.3547 148.022 38.0061C147.674 37.6575 147.398 37.2435 147.211 36.788C147.023 36.3325 146.927 35.8445 146.929 35.3519V16.5908M151.422 23.3441V31.5997M156.067 22.5953V30.8497M161.157 22.5941V31.5997"
		stroke="#EB2A00"
		stroke-width="1.5"
		stroke-linecap="round"
		stroke-linejoin="round"
	/>
	<path
		d="M154.207 5.44668C151.208 5.44668 148.733 7.7037 148.356 10.6064C148.23 10.5922 148.111 10.559 147.982 10.559C147.078 10.5575 146.211 10.9145 145.57 11.5517C144.929 12.189 144.567 13.0545 144.564 13.9582C144.567 14.8619 144.929 15.7275 145.569 16.365C146.21 17.0025 147.077 17.3598 147.981 17.3585C148.407 17.3585 148.798 17.2685 149.174 17.124V22.2837C149.174 23.2197 149.925 23.972 150.859 23.972C151.08 23.9723 151.3 23.9289 151.505 23.8441C151.709 23.7593 151.895 23.6349 152.052 23.478C152.209 23.3211 152.333 23.1349 152.417 22.9299C152.501 22.7249 152.544 22.5053 152.544 22.2837V17.0304C153.072 17.1844 153.628 17.2886 154.206 17.2886C155.593 17.2904 156.937 16.8001 157.997 15.9048C158.637 16.3835 159.431 16.6785 160.29 16.6785C160.895 16.6785 161.465 16.5304 161.974 16.2792C162.44 16.7776 163.044 17.1244 163.709 17.2744C164.374 17.4244 165.069 17.3705 165.703 17.1199C166.337 16.8692 166.881 16.4334 167.263 15.8693C167.646 15.3051 167.85 14.6388 167.849 13.957C167.849 13.4291 167.726 12.9083 167.49 12.4361C167.254 11.9639 166.911 11.5534 166.489 11.237C166.066 10.9207 165.575 10.7073 165.056 10.6139C164.536 10.5204 164.002 10.5495 163.496 10.6988C163.144 10.1708 162.668 9.73812 162.108 9.43936C161.549 9.14061 160.924 8.98513 160.29 8.98683C160.067 8.98683 159.847 8.99867 159.634 9.03422C159.181 7.96945 158.425 7.06148 157.46 6.42336C156.495 5.78524 155.363 5.44517 154.206 5.4455L154.207 5.44668Z"
		fill="#FFCDA9"
		stroke="#EB2A00"
		stroke-width="1.5"
		stroke-linecap="round"
		stroke-linejoin="round"
	/>
	<path
		d="M165.65 18.8419C167.308 18.8419 168.645 20.1807 168.645 21.8441V30.0986C168.646 30.4926 168.57 30.8831 168.42 31.2475C168.27 31.6119 168.049 31.9431 167.771 32.2221C167.493 32.5011 167.162 32.7223 166.798 32.8731C166.434 33.0239 166.044 33.1013 165.65 33.1008"
		stroke="#EB2A00"
		stroke-width="1.5"
		stroke-linecap="round"
		stroke-linejoin="round"
	/>
	<path
		d="M163.28 31.6589V33.525C163.282 33.9554 163.198 34.3819 163.035 34.78C162.871 35.1781 162.63 35.54 162.327 35.8449C162.023 36.1498 161.662 36.3917 161.264 36.5568C160.867 36.7219 160.44 36.8068 160.01 36.8068H159.313"
		stroke="white"
		stroke-width="1.5"
		stroke-linecap="round"
		stroke-linejoin="round"
	/>
	<path
		d="M206.224 10.2062C199.721 12.1294 201.451 20.8843 202.444 23.4065C203.837 26.9423 203.801 36.9812 208.304 36.9812H212.178C214.493 38.5341 216.446 37.827 217.565 36.9812H220.587C226.945 34.6392 224.141 28.315 225.798 23.6699C227.389 19.2079 227.874 8.21642 222.451 9.8318L217.538 11.2974C213.334 9.51011 210.453 8.95825 206.224 10.2076V10.2062Z"
		fill="#FFCDA9"
		stroke="#EB2A00"
		stroke-width="1.5"
		stroke-linecap="round"
		stroke-linejoin="round"
	/>
	<path
		d="M213.029 10.019C204.068 15.3989 208.509 33.2831 211.853 36.8245M217.763 11.3335C222.24 17.91 220.689 29.8569 217.505 36.7953M213.428 9.8609C217.415 2.06967 226.583 5.90358 222.992 6.51784C219.071 7.08634 217.814 8.99983 217.236 11.0672L213.428 9.8609Z"
		stroke="#EB2A00"
		stroke-width="1.5"
		stroke-linecap="round"
		stroke-linejoin="round"
	/>
	<path
		d="M279.485 5.00544C280.013 5.00546 280.52 4.7971 280.895 4.42567C281.27 4.05423 281.483 3.54976 281.488 3.02194C281.493 2.49379 281.29 1.98499 280.921 1.6063C280.553 1.22761 280.05 1.00969 279.522 1M279.312 8.99164C278.785 8.99167 278.278 8.78331 277.903 8.41188C277.528 8.04044 277.315 7.53597 277.31 7.00815C277.305 6.48 277.508 5.9712 277.876 5.59251C278.245 5.21382 278.747 4.9959 279.276 4.98621M279.485 12.9971C280.013 12.9971 280.52 12.7887 280.895 12.4173C281.27 12.0459 281.483 11.5414 281.488 11.0136C281.493 10.4854 281.29 9.97663 280.921 9.59794C280.553 9.21925 280.05 9.00134 279.522 8.99164M287.496 5.00544C288.024 5.00546 288.531 4.7971 288.906 4.42567C289.281 4.05423 289.494 3.54976 289.499 3.02194C289.504 2.49379 289.3 1.98499 288.932 1.6063C288.564 1.22761 288.061 1.00969 287.533 1M287.323 8.99164C286.795 8.99167 286.289 8.78331 285.914 8.41188C285.539 8.04044 285.326 7.53597 285.321 7.00815C285.315 6.48 285.519 5.9712 285.887 5.59251C286.255 5.21382 286.758 4.9959 287.286 4.98621M287.496 12.9971C288.024 12.9971 288.531 12.7887 288.906 12.4173C289.281 12.0459 289.494 11.5414 289.499 11.0136C289.504 10.4854 289.3 9.97663 288.932 9.59794C288.564 9.21925 288.061 9.00134 287.533 8.99164M272.095 5.00544C272.622 5.00546 273.129 4.7971 273.504 4.42567C273.879 4.05423 274.092 3.54976 274.097 3.02194C274.102 2.49407 273.899 1.9855 273.531 1.60685C273.163 1.22821 272.661 1.01011 272.133 1M271.923 8.99164C271.395 8.99167 270.889 8.78331 270.514 8.41188C270.139 8.04044 269.926 7.53597 269.92 7.00815C269.915 6.48028 270.119 5.97171 270.487 5.59306C270.854 5.21442 271.357 4.99632 271.885 4.98621M272.095 12.9971C272.622 12.9971 273.129 12.7887 273.504 12.4173C273.879 12.0459 274.092 11.5414 274.097 11.0136C274.102 10.4857 273.899 9.97714 273.531 9.5985C273.163 9.21985 272.661 9.00176 272.133 8.99164"
		stroke="#FFCDA9"
		stroke-width="1.5"
		stroke-linecap="round"
		stroke-linejoin="round"
	/>
	<path
		d="M272.875 36.642H287.291V31.8739C284.22 33.2293 282.43 33.4408 279.94 33.4921C276.827 33.5562 274.717 33.0179 272.875 32.5564V36.642Z"
		stroke="#EB2A00"
		stroke-width="1.5"
		stroke-linecap="round"
		stroke-linejoin="round"
	/>
	<path
		d="M298.228 19.3802C295.536 29.4322 285.248 35.3971 275.196 32.7038C272.006 31.8521 269.097 30.1743 266.763 27.8396C264.428 25.5049 262.75 22.5958 261.898 19.4058L298.228 19.3802Z"
		fill="#FFCDA9"
		stroke="#EB2A00"
		stroke-width="1.5"
		stroke-linecap="round"
		stroke-linejoin="round"
	/>
	<path
		d="M261.889 16.1678H298.234V19.4666H261.889V16.1678Z"
		stroke="#EB2A00"
		stroke-width="1.5"
		stroke-linecap="round"
		stroke-linejoin="round"
	/>
	<path
		d="M285.365 16.1582C297.862 16.6516 294.721 7.74674 303.957 6.94245C304.87 6.86234 305.351 6.84472 306.633 6.92643L306.681 6.91041C305.087 5.96192 302.148 4.35654 299.695 5.03746C298.441 5.38674 296.486 6.73577 295.177 9.30726C291.881 16.5235 288.672 16.1437 286.061 16.1566L285.365 16.1582Z"
		stroke="#EB2A00"
		stroke-width="1.5"
		stroke-linecap="round"
		stroke-linejoin="round"
	/>
	<path
		d="M293.056 22.2112C291.922 25.6719 288.885 28.0751 285.361 28.7288"
		stroke="white"
		stroke-width="1.5"
		stroke-linecap="round"
		stroke-linejoin="round"
	/>
	<path
		d="M353.884 16.5797C353.871 11.2361 349.565 6.91048 344.254 6.91792C338.948 6.93032 334.651 11.2548 334.651 16.5934L334.696 16.1843V22.2134L334.783 22.8545C334.781 21.8279 334.449 20.8292 333.834 20.0066C333.22 19.1841 332.357 18.5815 331.374 18.2882C330.39 17.9949 329.337 18.0266 328.373 18.3786C327.409 18.7306 326.584 19.3841 326.02 20.2422C324.576 22.4453 325.474 25.1778 327.349 26.8727L327.106 26.6309L336.159 35.8948H353.617L353.859 16.8265L353.884 16.5797Z"
		fill="#FFCDA9"
		stroke="#EB2A00"
		stroke-width="1.5"
		stroke-linecap="round"
		stroke-linejoin="round"
	/>
	<path
		d="M352.255 35.8824H347.656V42.2302H352.255V35.8824Z"
		stroke="#EB2A00"
		stroke-width="1.5"
		stroke-linecap="round"
		stroke-linejoin="round"
	/>
	<path
		d="M339.839 8.10315L353.745 21.999L353.703 22.0423M335.089 14.4312L353.617 33.4152M326.574 19.647L342.705 35.7671M330.767 30.0801L350.832 9.67773M337.271 35.8948L353.813 19.4871"
		stroke="#EB2A00"
		stroke-width="1.5"
		stroke-linecap="round"
		stroke-linejoin="round"
	/>
	<path
		d="M347.127 10.3534C347.939 10.5708 348.674 11.0117 349.248 11.626C349.822 12.2403 350.213 13.0034 350.375 13.8286"
		stroke="white"
		stroke-width="1.5"
		stroke-linecap="round"
		stroke-linejoin="round"
	/>
	<path
		d="M408.787 19.2191C409.367 17.4629 410.221 15.8093 411.317 14.3196C411.332 14.3016 411.344 14.2941 411.357 14.2806C413.16 12.5428 413.242 9.49981 411.528 7.6689C410.697 6.7826 409.548 6.26263 408.334 6.22348C407.12 6.18433 405.94 6.62914 405.053 7.46007L404.848 7.65533C397.395 14.0147 391.848 18.3194 389.757 20.284C389.532 20.4943 389.295 20.6776 389.096 20.9044C386.13 24.3199 386.155 29.5302 389.313 32.9052C391.648 35.4015 394.858 36.2996 397.949 35.4615"
		fill="#FFCDA9"
	/>
	<path
		d="M408.787 19.2191C409.367 17.4629 410.221 15.8093 411.317 14.3196C411.332 14.3016 411.344 14.2941 411.357 14.2806C413.16 12.5428 413.242 9.49981 411.528 7.6689C410.697 6.7826 409.548 6.26263 408.334 6.22348C407.12 6.18433 405.94 6.62914 405.053 7.46007L404.848 7.65533C397.395 14.0147 391.848 18.3194 389.757 20.284C389.532 20.4943 389.295 20.6776 389.096 20.9044C386.13 24.3199 386.155 29.5302 389.313 32.9052C391.648 35.4015 394.858 36.2996 397.949 35.4615"
		stroke="#EB2A00"
		stroke-width="1.5"
		stroke-linecap="round"
		stroke-linejoin="round"
	/>
	<path
		d="M405.103 11.6806C405.452 11.6806 405.735 11.3969 405.735 11.0468C405.735 10.6967 405.452 10.413 405.103 10.413C404.754 10.413 404.471 10.6967 404.471 11.0468C404.471 11.3969 404.754 11.6806 405.103 11.6806Z"
		fill="white"
	/>
	<path
		d="M405.555 14.7012C405.904 14.7012 406.188 14.4174 406.188 14.0673C406.188 13.7173 405.904 13.4335 405.555 13.4335C405.206 13.4335 404.923 13.7173 404.923 14.0673C404.923 14.4174 405.206 14.7012 405.555 14.7012Z"
		fill="white"
	/>
	<path
		d="M409.441 11.3232C409.79 11.3232 410.073 11.0394 410.073 10.6893C410.073 10.3393 409.79 10.0555 409.441 10.0555C409.092 10.0555 408.808 10.3393 408.808 10.6893C408.808 11.0394 409.092 11.3232 409.441 11.3232Z"
		fill="white"
	/>
	<path
		d="M408.669 13.842C409.018 13.842 409.301 13.5582 409.301 13.2082C409.301 12.8581 409.018 12.5743 408.669 12.5743C408.319 12.5743 408.036 12.8581 408.036 13.2082C408.036 13.5582 408.319 13.842 408.669 13.842Z"
		fill="white"
	/>
	<path
		d="M407.069 16.7634C407.418 16.7634 407.701 16.4796 407.701 16.1296C407.701 15.7795 407.418 15.4957 407.069 15.4957C406.72 15.4957 406.437 15.7795 406.437 16.1296C406.437 16.4796 406.72 16.7634 407.069 16.7634Z"
		fill="white"
	/>
	<path
		d="M403.413 17.6226C403.762 17.6226 404.046 17.3388 404.046 16.9887C404.046 16.6387 403.762 16.3548 403.413 16.3548C403.064 16.3548 402.781 16.6387 402.781 16.9887C402.781 17.3388 403.064 17.6226 403.413 17.6226Z"
		fill="white"
	/>
	<path
		d="M399.585 16.7919C399.934 16.7919 400.217 16.5081 400.217 16.158C400.217 15.808 399.934 15.5242 399.585 15.5242C399.236 15.5242 398.952 15.808 398.952 16.158C398.952 16.5081 399.236 16.7919 399.585 16.7919Z"
		fill="white"
	/>
	<path
		d="M395.5 19.111C395.849 19.111 396.132 18.8272 396.132 18.4771C396.132 18.1271 395.849 17.8433 395.5 17.8433C395.15 17.8433 394.867 18.1271 394.867 18.4771C394.867 18.8272 395.15 19.111 395.5 19.111Z"
		fill="white"
	/>
	<path
		d="M392.471 23.5208C392.821 23.5208 393.104 23.2369 393.104 22.8869C393.104 22.5368 392.821 22.2531 392.471 22.2531C392.122 22.2531 391.839 22.5368 391.839 22.8869C391.839 23.2369 392.122 23.5208 392.471 23.5208Z"
		fill="white"
	/>
	<path
		d="M389.328 26.4707C389.677 26.4707 389.96 26.1869 389.96 25.8369C389.96 25.4868 389.677 25.203 389.328 25.203C388.979 25.203 388.696 25.4868 388.696 25.8369C388.696 26.1869 388.979 26.4707 389.328 26.4707Z"
		fill="white"
	/>
	<path
		d="M391.814 29.1623C392.163 29.1623 392.446 28.8785 392.446 28.5284C392.446 28.1784 392.163 27.8946 391.814 27.8946C391.464 27.8946 391.181 28.1784 391.181 28.5284C391.181 28.8785 391.464 29.1623 391.814 29.1623Z"
		fill="white"
	/>
	<path
		d="M391.3 31.9394C391.649 31.9394 391.932 31.6556 391.932 31.3056C391.932 30.9555 391.649 30.6718 391.3 30.6718C390.951 30.6718 390.668 30.9555 390.668 31.3056C390.668 31.6556 390.951 31.9394 391.3 31.9394Z"
		fill="white"
	/>
	<path
		d="M391.956 26.0981C392.305 26.0981 392.588 25.8144 392.588 25.4643C392.588 25.1142 392.305 24.8305 391.956 24.8305C391.607 24.8305 391.324 25.1142 391.324 25.4643C391.324 25.8144 391.607 26.0981 391.956 26.0981Z"
		fill="white"
	/>
	<path
		d="M422.687 20.2915C412.909 19.8199 405.926 19.1575 403.059 19.1575C402.751 19.1575 402.454 19.126 402.155 19.1575C397.659 19.6141 394.122 23.4322 394.122 28.0583C395.363 38.7404 405.563 38.4835 410.922 35.4841C415.464 32.8481 418.993 30.3428 422.856 29.5888H422.914C425.413 29.5558 427.552 27.3944 427.552 24.8831C427.551 23.6674 427.068 22.5016 426.21 21.641C425.351 20.7804 424.186 20.2951 422.97 20.2915"
		fill="#FFCDA9"
	/>
	<path
		d="M422.687 20.2915C412.909 19.8199 405.926 19.1575 403.059 19.1575C402.751 19.1575 402.454 19.126 402.155 19.1575C397.659 19.6141 394.122 23.4322 394.122 28.0583C395.363 38.7404 405.563 38.4835 410.922 35.4841C415.464 32.8481 418.993 30.3428 422.856 29.5888H422.914C425.413 29.5558 427.552 27.3944 427.552 24.8831C427.551 23.6674 427.068 22.5016 426.21 21.641C425.351 20.7804 424.186 20.2951 422.97 20.2915"
		stroke="#EB2A00"
		stroke-width="1.5"
		stroke-linecap="round"
		stroke-linejoin="round"
	/>
	<path
		d="M393.185 20.7722C393.534 20.7722 393.817 20.4884 393.817 20.1383C393.817 19.7883 393.534 19.5045 393.185 19.5045C392.836 19.5045 392.552 19.7883 392.552 20.1383C392.552 20.4884 392.836 20.7722 393.185 20.7722Z"
		fill="white"
	/>
	<path
		d="M401.413 14.3872C401.762 14.3872 402.045 14.1034 402.045 13.7534C402.045 13.4033 401.762 13.1195 401.413 13.1195C401.063 13.1195 400.78 13.4033 400.78 13.7534C400.78 14.1034 401.063 14.3872 401.413 14.3872Z"
		fill="white"
	/>
	<path
		d="M407.87 9.63345C408.219 9.63345 408.502 9.34967 408.502 8.99961C408.502 8.64956 408.219 8.36578 407.87 8.36578C407.52 8.36578 407.237 8.64956 407.237 8.99961C407.237 9.34967 407.52 9.63345 407.87 9.63345Z"
		fill="white"
	/>
	<path
		d="M405.516 30.2617C408.952 30.2617 411.737 28.7567 411.737 26.9003C411.737 25.0438 408.952 23.5388 405.516 23.5388C402.08 23.5388 399.295 25.0438 399.295 26.9003C399.295 28.7567 402.08 30.2617 405.516 30.2617Z"
		fill="white"
		stroke="#EB2A00"
		stroke-width="1.5"
		stroke-linecap="round"
		stroke-linejoin="round"
	/>
	<path
		d="M395.137 31.8102C407.856 41.7173 411.423 26.328 427.091 26.6975"
		stroke="#EB2A00"
		stroke-width="1.5"
		stroke-linecap="round"
	/>
	<path
		d="M418.877 24.121C419.128 24.3645 419.528 24.3585 419.772 24.1076C420.016 23.8567 420.012 23.4558 419.761 23.2123C419.511 22.9688 419.11 22.9749 418.866 23.2258C418.622 23.4768 418.627 23.8775 418.877 24.121Z"
		fill="white"
	/>
	<path
		d="M423.98 25.0787C424.231 25.3222 424.631 25.316 424.876 25.0651C425.12 24.8142 425.114 24.4135 424.864 24.17C424.614 23.9265 424.213 23.9324 423.969 24.1833C423.725 24.4343 423.73 24.8352 423.98 25.0787Z"
		fill="white"
	/>
	<path
		d="M414.562 27.0857C414.813 27.3292 415.213 27.3233 415.457 27.0724C415.702 26.8214 415.697 26.4205 415.446 26.177C415.196 25.9335 414.795 25.9397 414.551 26.1906C414.307 26.4415 414.312 26.8422 414.562 27.0857Z"
		fill="white"
	/>
	<path
		d="M405.807 21.4106C406.057 21.6541 406.458 21.6482 406.702 21.3973C406.946 21.1464 406.941 20.7454 406.691 20.5019C406.44 20.2584 406.039 20.2646 405.795 20.5155C405.551 20.7665 405.557 21.1671 405.807 21.4106Z"
		fill="white"
	/>
	<path
		d="M413.341 22.1465C413.591 22.39 413.992 22.3841 414.236 22.1332C414.48 21.8823 414.475 21.4813 414.224 21.2378C413.974 20.9943 413.573 21.0005 413.329 21.2514C413.085 21.5023 413.09 21.903 413.341 22.1465Z"
		fill="white"
	/>
	<path
		d="M398.282 31.9124C398.533 32.1559 398.934 32.1498 399.178 31.8988C399.422 31.6479 399.416 31.2472 399.166 31.0037C398.916 30.7602 398.515 30.7661 398.271 31.0171C398.027 31.268 398.032 31.6689 398.282 31.9124Z"
		fill="white"
	/>
	<path
		d="M396.673 26.6154C396.924 26.8589 397.324 26.8528 397.569 26.6018C397.813 26.3509 397.807 25.9502 397.557 25.7067C397.307 25.4632 396.906 25.4691 396.662 25.7201C396.418 25.971 396.423 26.3719 396.673 26.6154Z"
		fill="white"
	/>
	<path
		d="M403.915 33.1875C404.165 33.431 404.566 33.4252 404.81 33.1742C405.054 32.9233 405.049 32.5223 404.799 32.2788C404.548 32.0353 404.147 32.0415 403.903 32.2924C403.659 32.5433 403.664 32.944 403.915 33.1875Z"
		fill="white"
	/>
	<path
		d="M472.035 37.5247C481.77 37.5247 489.662 29.6328 489.662 19.8975C489.662 10.1622 481.77 2.27014 472.035 2.27014C462.3 2.27014 454.408 10.1622 454.408 19.8975C454.408 29.6328 462.3 37.5247 472.035 37.5247Z"
		fill="#FFCDA9"
		stroke="#EB2A00"
		stroke-width="1.5"
		stroke-linecap="round"
		stroke-linejoin="round"
	/>
	<path
		d="M473.68 6.11697C475.551 6.10218 477.392 6.58397 479.016 7.513C480.639 8.44204 481.988 9.78517 482.923 11.4054M465.499 7.95887C466.884 6.5742 468.762 5.79627 470.72 5.79611"
		stroke="white"
		stroke-width="1.5"
		stroke-linecap="round"
		stroke-linejoin="round"
	/>
	<path
		d="M465.019 12.0798L484.689 26.1367"
		stroke="#EB2A00"
		stroke-width="1.5"
		stroke-linecap="round"
		stroke-linejoin="round"
	/>
	<path
		d="M469.597 14.1735C470.009 13.5974 469.876 12.7966 469.3 12.3851C468.724 11.9735 467.924 12.1069 467.512 12.6831L466.394 14.2474C465.982 14.8236 466.115 15.6243 466.691 16.0359C467.267 16.4475 468.068 16.314 468.479 15.7379L469.597 14.1735Z"
		fill="white"
		stroke="#EB2A00"
		stroke-width="1.5"
		stroke-linecap="round"
		stroke-linejoin="round"
	/>
	<path
		d="M472.487 14.6835L469.879 18.3333"
		stroke="#EB2A00"
		stroke-width="1.5"
		stroke-linecap="round"
		stroke-linejoin="round"
	/>
	<path
		d="M475.944 18.5364C476.356 17.9602 476.223 17.1595 475.647 16.7479C475.071 16.3363 474.27 16.4698 473.859 17.0459L472.741 18.6103C472.329 19.1864 472.462 19.9872 473.038 20.3988C473.614 20.8103 474.414 20.6769 474.826 20.1007L475.944 18.5364Z"
		fill="white"
		stroke="#EB2A00"
		stroke-width="1.5"
		stroke-linecap="round"
		stroke-linejoin="round"
	/>
	<path
		d="M479.006 19.2765L476.397 22.9278"
		stroke="#EB2A00"
		stroke-width="1.5"
		stroke-linecap="round"
		stroke-linejoin="round"
	/>
	<path
		d="M482.347 23.2357C482.759 22.6595 482.626 21.8587 482.05 21.4472C481.474 21.0356 480.673 21.1691 480.261 21.7452L479.143 23.3096C478.732 23.8857 478.865 24.6864 479.44 25.098C480.016 25.5096 480.817 25.3762 481.229 24.8L482.347 23.2357Z"
		fill="white"
		stroke="#EB2A00"
		stroke-width="1.5"
		stroke-linecap="round"
		stroke-linejoin="round"
	/>
	<path
		d="M484.949 23.6881L482.34 27.3382M452.954 13.4443L474.062 28.9688M462.62 17.9042L459.996 21.5437"
		stroke="#EB2A00"
		stroke-width="1.5"
		stroke-linecap="round"
		stroke-linejoin="round"
	/>
	<path
		d="M465.709 21.7097C466.13 21.1253 466.007 20.316 465.432 19.902C464.858 19.4879 464.051 19.626 463.63 20.2103L462.531 21.7339C462.11 22.3182 462.233 23.1275 462.808 23.5416C463.382 23.9556 464.189 23.8175 464.61 23.2332L465.709 21.7097Z"
		fill="white"
		stroke="#EB2A00"
		stroke-width="1.5"
		stroke-linecap="round"
		stroke-linejoin="round"
	/>
	<path
		d="M468.095 21.9716L465.471 25.6109"
		stroke="#EB2A00"
		stroke-width="1.5"
		stroke-linecap="round"
		stroke-linejoin="round"
	/>
	<path
		d="M471.197 25.7161C471.619 25.1317 471.495 24.3224 470.921 23.9084C470.347 23.4943 469.54 23.6324 469.118 24.2167L468.019 25.7403C467.598 26.3246 467.722 27.1339 468.296 27.548C468.87 27.962 469.677 27.8239 470.098 27.2396L471.197 25.7161Z"
		fill="white"
		stroke="#EB2A00"
		stroke-width="1.5"
		stroke-linecap="round"
		stroke-linejoin="round"
	/>
	<path
		d="M473.745 26.0193L471.12 29.6587"
		stroke="#EB2A00"
		stroke-width="1.5"
		stroke-linecap="round"
		stroke-linejoin="round"
	/>
	<path
		d="M536.944 15.1836C528.783 16.1745 528.761 19.9507 529.75 24.0713L533.965 27.827C541.155 30.7148 543.029 24.9611 544.455 18.4818L536.944 15.1836Z"
		fill="#FFCDA9"
		stroke="#FFCDA9"
		stroke-width="1.5"
		stroke-linecap="round"
		stroke-linejoin="round"
	/>
	<path
		d="M544.643 18.8703C547.598 18.9231 549.964 22.343 549.927 26.5076C549.892 30.5359 547.673 33.8122 544.817 33.95C544.348 33.95 528.604 33.9662 528.101 33.9749C525.599 34.038 522.821 34.0937 521.382 32.4944C519.881 30.8233 519.869 26.9269 520.121 24.5199C520.58 20.1706 525.004 16.3152 529.567 15.0912C529.978 14.9798 532.52 14.1838 536.057 14.9373M533.922 27.5851C534.708 28.1842 535.636 28.5706 536.614 28.7072C537.593 28.8437 538.591 28.7258 539.511 28.3647C540.431 28.0036 541.242 27.4116 541.867 26.6457C542.491 25.8799 542.908 24.966 543.077 23.9922C543.13 23.6785 544.98 11.7988 549.879 12.4497C550.773 12.5669 551.758 12.7795 552.428 12.1785C552.629 11.9983 552.793 11.7802 552.909 11.5367C553.026 11.2932 553.094 11.0291 553.108 10.7595C553.122 10.4898 553.084 10.22 552.993 9.96544C552.903 9.71088 552.764 9.47658 552.583 9.27598C552.218 8.86965 551.706 8.62502 551.161 8.59588C550.615 8.56675 550.08 8.75548 549.673 9.12059C550.04 8.75412 550.44 8.0974 550.459 7.57993C550.469 7.30992 550.426 7.04055 550.332 6.7872C550.238 6.53386 550.095 6.30151 549.912 6.10343C549.728 5.90536 549.507 5.74544 549.261 5.63281C549.016 5.52019 548.75 5.45706 548.48 5.44705C547.505 5.4104 546.501 6.02608 546.416 6.95399C545.661 15.2407 536.636 14.1179 533.101 15.8667C529.567 17.617 528.065 20.4535 529.708 23.7767"
		fill="#FFCDA9"
	/>
	<path
		d="M544.643 18.8703C547.598 18.9231 549.964 22.343 549.927 26.5076C549.892 30.5359 547.673 33.8122 544.817 33.95C544.348 33.95 528.604 33.9661 528.101 33.9749C525.599 34.038 522.821 34.0937 521.382 32.4944C519.881 30.8233 519.869 26.9269 520.121 24.5199C520.58 20.1706 525.004 16.3152 529.567 15.0912C529.978 14.9798 532.52 14.1838 536.057 14.9373M533.922 27.5851C534.708 28.1842 535.636 28.5706 536.614 28.7072C537.593 28.8437 538.591 28.7258 539.511 28.3647C540.431 28.0036 541.242 27.4116 541.867 26.6457C542.491 25.8799 542.908 24.966 543.077 23.9922C543.13 23.6785 544.98 11.7988 549.879 12.4497C550.773 12.5669 551.758 12.7795 552.428 12.1785C552.629 11.9983 552.793 11.7802 552.909 11.5367C553.026 11.2932 553.094 11.0291 553.108 10.7595C553.122 10.4898 553.084 10.22 552.993 9.96544C552.903 9.71087 552.764 9.47658 552.583 9.27598C552.218 8.86965 551.706 8.62502 551.161 8.59588C550.615 8.56675 550.08 8.75548 549.673 9.1206C550.04 8.75412 550.44 8.0974 550.459 7.57993C550.469 7.30992 550.426 7.04055 550.332 6.7872C550.238 6.53386 550.095 6.30151 549.912 6.10343C549.728 5.90536 549.507 5.74544 549.261 5.63281C549.016 5.52019 548.75 5.45706 548.48 5.44705C547.505 5.4104 546.501 6.02608 546.416 6.95399C545.661 15.2407 536.636 14.1179 533.101 15.8667C529.567 17.617 528.065 20.4535 529.708 23.7767"
		stroke="#EB2A00"
		stroke-width="1.5"
		stroke-linecap="round"
		stroke-linejoin="round"
	/>
	<path
		d="M517 36.2515H552.998C552.976 37.6558 552.708 38.8608 551.232 39.1041H519.183C517.007 38.7318 517.353 37.3524 517 36.2515V36.2515Z"
		stroke="#EB2A00"
		stroke-width="1.5"
		stroke-linecap="round"
		stroke-linejoin="round"
	/>
	<path
		d="M531.895 21.5104C531.89 21.12 531.962 20.7325 532.108 20.3703C532.254 20.0082 532.471 19.6787 532.745 19.401C533.019 19.1234 533.346 18.9029 533.705 18.7525C534.065 18.602 534.451 18.5245 534.841 18.5244"
		stroke="white"
		stroke-width="1.5"
		stroke-linecap="round"
		stroke-linejoin="round"
	/>
	<path
		d="M582.472 26.0574C586.067 31.9918 595.579 34.7129 604.125 34.3481C607.124 34.2207 610.017 33.5609 612.58 32.3287C615.713 30.8242 618.055 28.6895 619.998 26.1116L620.05 26.2198C620.05 26.2198 624.319 32.5974 627.196 31.8399C628.494 31.4961 624.251 22.7831 624.251 20.7654C624.251 19.1247 629.459 11.1744 626.759 9.63848C626.658 9.58921 626.545 9.57094 626.433 9.58607C624.536 9.67334 619.67 16.2937 619.67 16.2937H619.615C616.884 12.4712 612.452 9.69957 607.288 8.5476C605.283 8.10862 603.23 7.92561 601.179 8.00302C592.448 8.29101 584.58 13.213 582.198 20.6031L582.252 20.7113L585.578 23.0571L582.472 26.0016"
		fill="#FFCDA9"
	/>
	<path
		d="M582.472 26.0574C586.067 31.9918 595.579 34.7129 604.125 34.3481C607.124 34.2207 610.017 33.5609 612.58 32.3287C615.713 30.8242 618.055 28.6895 619.998 26.1116L620.05 26.2198C620.05 26.2198 624.319 32.5974 627.196 31.8399C628.494 31.4961 624.251 22.7831 624.251 20.7654C624.251 19.1247 629.459 11.1744 626.759 9.63848C626.658 9.58921 626.545 9.57094 626.433 9.58607V9.58607C624.536 9.67334 619.67 16.2937 619.67 16.2937H619.615C616.884 12.4712 612.452 9.69957 607.288 8.5476C605.283 8.10862 603.23 7.92561 601.179 8.00302C592.448 8.29101 584.58 13.213 582.198 20.6031L582.252 20.7113L585.578 23.0571L582.472 26.0016"
		stroke="#EB2A00"
		stroke-width="1.5"
		stroke-linecap="round"
		stroke-linejoin="round"
	/>
	<path
		d="M593.146 19.7861C594.466 19.7861 595.536 18.732 595.536 17.4316C595.536 16.1312 594.466 15.0771 593.146 15.0771C591.827 15.0771 590.757 16.1312 590.757 17.4316C590.757 18.732 591.827 19.7861 593.146 19.7861Z"
		fill="white"
		stroke="#EB2A00"
		stroke-width="1.5"
		stroke-linecap="round"
		stroke-linejoin="round"
	/>
	<path
		d="M598.29 14.9426C600.052 16.0874 601.404 17.7495 602.153 19.6934C602.903 21.6372 603.013 23.7642 602.467 25.7729C601.921 27.7816 600.747 29.5702 599.112 30.885C597.476 32.1998 595.462 32.9742 593.356 33.0984"
		stroke="#EB2A00"
		stroke-width="1.5"
		stroke-linecap="round"
		stroke-linejoin="round"
	/>
	<path
		d="M600.214 11.3053C602.808 10.6098 605.57 10.9379 607.93 12.2216"
		stroke="white"
		stroke-width="1.5"
		stroke-linecap="round"
		stroke-linejoin="round"
	/>
	<path
		d="M662.718 31.6945C661.736 31.6945 660.917 32.3378 660.613 33.2181C660.34 33.0968 660.045 33.0327 659.746 33.0297C658.506 33.0297 657.5 34.038 657.5 35.2808V35.3756C656.351 35.474 655.441 36.0936 655.441 37.2713C655.441 38.5153 656.446 39.1042 657.687 39.1042H664.082"
		fill="#FFCDA9"
	/>
	<path
		d="M662.718 31.6945C661.736 31.6945 660.917 32.3378 660.613 33.2181C660.34 33.0968 660.045 33.0327 659.746 33.0297C658.506 33.0297 657.5 34.038 657.5 35.2808V35.3756C656.351 35.474 655.441 36.0936 655.441 37.2713C655.441 38.5153 656.446 39.1042 657.687 39.1042H664.082"
		stroke="#EB2A00"
		stroke-width="1.5"
		stroke-linecap="round"
		stroke-linejoin="round"
	/>
	<path
		d="M681.65 16.5908V35.3519C681.651 35.8444 681.556 36.3323 681.368 36.7877C681.181 37.2432 680.905 37.657 680.557 38.0057C680.209 38.3543 679.796 38.6308 679.341 38.8193C678.886 39.0078 678.398 39.1046 677.906 39.1041H666.674C666.181 39.1048 665.694 39.0081 665.238 38.8196C664.783 38.6312 664.37 38.3547 664.022 38.0061C663.674 37.6575 663.398 37.2435 663.211 36.788C663.023 36.3325 662.927 35.8445 662.929 35.3519V16.5908M667.422 23.3441V31.5997M672.067 22.5953V30.8497M677.157 22.5941V31.5997"
		stroke="#EB2A00"
		stroke-width="1.5"
		stroke-linecap="round"
		stroke-linejoin="round"
	/>
	<path
		d="M670.207 5.44668C667.208 5.44668 664.733 7.7037 664.356 10.6064C664.23 10.5922 664.111 10.559 663.982 10.559C663.078 10.5575 662.211 10.9145 661.57 11.5517C660.929 12.189 660.567 13.0545 660.564 13.9582C660.567 14.8619 660.929 15.7275 661.569 16.365C662.21 17.0025 663.077 17.3598 663.981 17.3585C664.407 17.3585 664.798 17.2685 665.174 17.124V22.2837C665.174 23.2197 665.925 23.972 666.859 23.972C667.08 23.9723 667.3 23.9289 667.505 23.8441C667.709 23.7593 667.895 23.6349 668.052 23.478C668.209 23.3211 668.333 23.1349 668.417 22.9299C668.501 22.7249 668.544 22.5053 668.544 22.2837V17.0304C669.072 17.1844 669.628 17.2886 670.206 17.2886C671.593 17.2904 672.937 16.8001 673.997 15.9048C674.637 16.3835 675.431 16.6785 676.29 16.6785C676.895 16.6785 677.465 16.5304 677.974 16.2792C678.44 16.7776 679.044 17.1244 679.709 17.2744C680.374 17.4244 681.069 17.3705 681.703 17.1199C682.337 16.8692 682.881 16.4334 683.263 15.8693C683.646 15.3051 683.85 14.6388 683.849 13.957C683.849 13.4291 683.726 12.9083 683.49 12.4361C683.254 11.9639 682.911 11.5534 682.489 11.237C682.066 10.9207 681.575 10.7073 681.056 10.6139C680.536 10.5204 680.002 10.5495 679.496 10.6988C679.144 10.1708 678.668 9.73812 678.108 9.43936C677.549 9.14061 676.924 8.98513 676.29 8.98683C676.067 8.98683 675.847 8.99867 675.634 9.03422C675.181 7.96945 674.425 7.06148 673.46 6.42336C672.495 5.78524 671.363 5.44517 670.206 5.4455L670.207 5.44668Z"
		fill="#FFCDA9"
		stroke="#EB2A00"
		stroke-width="1.5"
		stroke-linecap="round"
		stroke-linejoin="round"
	/>
	<path
		d="M681.65 18.8419C683.308 18.8419 684.645 20.1807 684.645 21.8441V30.0986C684.646 30.4926 684.57 30.8831 684.42 31.2475C684.27 31.6119 684.049 31.9431 683.771 32.2221C683.493 32.5011 683.162 32.7223 682.798 32.8731C682.434 33.0239 682.044 33.1013 681.65 33.1008"
		stroke="#EB2A00"
		stroke-width="1.5"
		stroke-linecap="round"
		stroke-linejoin="round"
	/>
	<path
		d="M679.28 31.6589V33.525C679.282 33.9554 679.198 34.3819 679.035 34.78C678.871 35.1781 678.63 35.54 678.327 35.8449C678.023 36.1498 677.662 36.3917 677.264 36.5568C676.867 36.7219 676.441 36.8068 676.01 36.8068H675.313"
		stroke="white"
		stroke-width="1.5"
		stroke-linecap="round"
		stroke-linejoin="round"
	/>
	<path
		d="M722.224 10.2062C715.721 12.1294 717.451 20.8843 718.444 23.4065C719.837 26.9423 719.801 36.9812 724.304 36.9812H728.178C730.493 38.5341 732.446 37.827 733.565 36.9812H736.587C742.945 34.6392 740.141 28.315 741.798 23.6699C743.389 19.2079 743.874 8.21642 738.451 9.8318L733.538 11.2974C729.334 9.51011 726.453 8.95825 722.224 10.2076V10.2062Z"
		fill="#FFCDA9"
		stroke="#EB2A00"
		stroke-width="1.5"
		stroke-linecap="round"
		stroke-linejoin="round"
	/>
	<path
		d="M729.029 10.019C720.068 15.3989 724.509 33.2831 727.853 36.8245M733.763 11.3335C738.24 17.91 736.689 29.8569 733.505 36.7953M729.428 9.8609C733.415 2.06967 742.583 5.90358 738.992 6.51784C735.07 7.08634 733.814 8.99983 733.236 11.0672L729.428 9.8609Z"
		stroke="#EB2A00"
		stroke-width="1.5"
		stroke-linecap="round"
		stroke-linejoin="round"
	/>
	<path
		d="M795.485 5.00544C796.013 5.00546 796.52 4.7971 796.895 4.42567C797.27 4.05423 797.483 3.54976 797.488 3.02194C797.493 2.49379 797.29 1.98499 796.921 1.6063C796.553 1.22761 796.05 1.00969 795.522 1M795.312 8.99164C794.785 8.99167 794.278 8.78331 793.903 8.41188C793.528 8.04044 793.315 7.53597 793.31 7.00815C793.304 6.48 793.508 5.9712 793.876 5.59251C794.245 5.21382 794.747 4.9959 795.276 4.98621M795.485 12.9971C796.013 12.9971 796.52 12.7887 796.895 12.4173C797.27 12.0459 797.483 11.5414 797.488 11.0136C797.493 10.4854 797.29 9.97663 796.921 9.59794C796.553 9.21925 796.05 9.00134 795.522 8.99164M803.496 5.00544C804.024 5.00546 804.531 4.7971 804.906 4.42567C805.281 4.05423 805.494 3.54976 805.499 3.02194C805.504 2.49379 805.3 1.98499 804.932 1.6063C804.564 1.22761 804.061 1.00969 803.533 1M803.323 8.99164C802.795 8.99167 802.289 8.78331 801.914 8.41188C801.539 8.04044 801.326 7.53597 801.321 7.00815C801.315 6.48 801.519 5.9712 801.887 5.59251C802.255 5.21382 802.758 4.9959 803.286 4.98621M803.496 12.9971C804.024 12.9971 804.531 12.7887 804.906 12.4173C805.281 12.0459 805.494 11.5414 805.499 11.0136C805.504 10.4854 805.3 9.97663 804.932 9.59794C804.564 9.21925 804.061 9.00134 803.533 8.99164M788.095 5.00544C788.622 5.00546 789.129 4.7971 789.504 4.42567C789.879 4.05423 790.092 3.54976 790.097 3.02194C790.102 2.49407 789.899 1.9855 789.531 1.60685C789.163 1.22821 788.661 1.01011 788.133 1M787.923 8.99164C787.395 8.99167 786.889 8.78331 786.514 8.41188C786.139 8.04044 785.925 7.53597 785.92 7.00815C785.915 6.48028 786.119 5.97171 786.487 5.59306C786.854 5.21442 787.357 4.99632 787.885 4.98621M788.095 12.9971C788.622 12.9971 789.129 12.7887 789.504 12.4173C789.879 12.0459 790.092 11.5414 790.097 11.0136C790.102 10.4857 789.899 9.97714 789.531 9.5985C789.163 9.21985 788.661 9.00176 788.133 8.99164"
		stroke="#FFCDA9"
		stroke-width="1.5"
		stroke-linecap="round"
		stroke-linejoin="round"
	/>
	<path
		d="M788.875 36.642H803.291V31.8739C800.22 33.2293 798.43 33.4408 795.94 33.4921C792.827 33.5562 790.717 33.0179 788.875 32.5564V36.642Z"
		stroke="#EB2A00"
		stroke-width="1.5"
		stroke-linecap="round"
		stroke-linejoin="round"
	/>
	<path
		d="M814.228 19.3802C811.536 29.4322 801.248 35.3971 791.196 32.7038C788.006 31.8521 785.097 30.1743 782.763 27.8396C780.428 25.5049 778.75 22.5958 777.898 19.4058L814.228 19.3802Z"
		fill="#FFCDA9"
		stroke="#EB2A00"
		stroke-width="1.5"
		stroke-linecap="round"
		stroke-linejoin="round"
	/>
	<path
		d="M777.889 16.1678H814.234V19.4666H777.889V16.1678Z"
		stroke="#EB2A00"
		stroke-width="1.5"
		stroke-linecap="round"
		stroke-linejoin="round"
	/>
	<path
		d="M801.365 16.1582C813.862 16.6516 810.721 7.74674 819.957 6.94245C820.87 6.86234 821.351 6.84472 822.633 6.92643L822.681 6.91041C821.087 5.96192 818.148 4.35654 815.695 5.03746C814.441 5.38674 812.486 6.73577 811.177 9.30726C807.881 16.5235 804.672 16.1437 802.061 16.1566L801.365 16.1582Z"
		stroke="#EB2A00"
		stroke-width="1.5"
		stroke-linecap="round"
		stroke-linejoin="round"
	/>
	<path
		d="M809.056 22.2112C807.922 25.6719 804.885 28.0751 801.361 28.7288"
		stroke="white"
		stroke-width="1.5"
		stroke-linecap="round"
		stroke-linejoin="round"
	/>
	<path
		d="M869.884 16.5797C869.871 11.2361 865.565 6.91048 860.254 6.91792C854.948 6.93032 850.651 11.2548 850.651 16.5934L850.696 16.1843V22.2134L850.783 22.8545C850.781 21.8279 850.449 20.8292 849.834 20.0066C849.22 19.1841 848.357 18.5815 847.374 18.2882C846.39 17.9949 845.337 18.0266 844.373 18.3786C843.409 18.7306 842.584 19.3841 842.02 20.2422C840.576 22.4453 841.474 25.1778 843.349 26.8727L843.106 26.6309L852.159 35.8948H869.617L869.859 16.8265L869.884 16.5797Z"
		fill="#FFCDA9"
		stroke="#EB2A00"
		stroke-width="1.5"
		stroke-linecap="round"
		stroke-linejoin="round"
	/>
	<path
		d="M868.254 35.8824H863.656V42.2302H868.254V35.8824Z"
		stroke="#EB2A00"
		stroke-width="1.5"
		stroke-linecap="round"
		stroke-linejoin="round"
	/>
	<path
		d="M855.839 8.10315L869.745 21.999L869.703 22.0423M851.089 14.4312L869.617 33.4152M842.574 19.647L858.705 35.7671M846.767 30.0801L866.832 9.67773M853.271 35.8948L869.813 19.4871"
		stroke="#EB2A00"
		stroke-width="1.5"
		stroke-linecap="round"
		stroke-linejoin="round"
	/>
	<path
		d="M863.127 10.3534C863.939 10.5708 864.674 11.0117 865.248 11.626C865.822 12.2403 866.213 13.0034 866.375 13.8286"
		stroke="white"
		stroke-width="1.5"
		stroke-linecap="round"
		stroke-linejoin="round"
	/>
	<path
		d="M924.787 19.2191C925.367 17.4629 926.221 15.8093 927.317 14.3196C927.332 14.3016 927.344 14.2941 927.357 14.2806C929.16 12.5428 929.242 9.49981 927.528 7.6689C926.697 6.7826 925.548 6.26263 924.334 6.22348C923.12 6.18433 921.94 6.62914 921.053 7.46007L920.848 7.65533C913.395 14.0147 907.848 18.3194 905.757 20.284C905.532 20.4943 905.295 20.6776 905.096 20.9044C902.13 24.3199 902.155 29.5302 905.313 32.9052C907.648 35.4015 910.858 36.2996 913.949 35.4615"
		fill="#FFCDA9"
	/>
	<path
		d="M924.787 19.2191C925.367 17.4629 926.221 15.8093 927.317 14.3196C927.332 14.3016 927.344 14.2941 927.357 14.2806C929.16 12.5428 929.242 9.49981 927.528 7.6689C926.697 6.7826 925.548 6.26263 924.334 6.22348C923.12 6.18433 921.94 6.62914 921.053 7.46007L920.848 7.65533C913.395 14.0147 907.848 18.3194 905.757 20.284C905.532 20.4943 905.295 20.6776 905.096 20.9044C902.13 24.3199 902.155 29.5302 905.313 32.9052C907.648 35.4015 910.858 36.2996 913.949 35.4615"
		stroke="#EB2A00"
		stroke-width="1.5"
		stroke-linecap="round"
		stroke-linejoin="round"
	/>
	<path
		d="M921.103 11.6806C921.452 11.6806 921.735 11.3969 921.735 11.0468C921.735 10.6967 921.452 10.413 921.103 10.413C920.754 10.413 920.471 10.6967 920.471 11.0468C920.471 11.3969 920.754 11.6806 921.103 11.6806Z"
		fill="white"
	/>
	<path
		d="M921.555 14.7012C921.904 14.7012 922.188 14.4174 922.188 14.0673C922.188 13.7173 921.904 13.4335 921.555 13.4335C921.206 13.4335 920.923 13.7173 920.923 14.0673C920.923 14.4174 921.206 14.7012 921.555 14.7012Z"
		fill="white"
	/>
	<path
		d="M925.441 11.3232C925.79 11.3232 926.073 11.0394 926.073 10.6893C926.073 10.3393 925.79 10.0555 925.441 10.0555C925.092 10.0555 924.808 10.3393 924.808 10.6893C924.808 11.0394 925.092 11.3232 925.441 11.3232Z"
		fill="white"
	/>
	<path
		d="M924.669 13.842C925.018 13.842 925.301 13.5582 925.301 13.2082C925.301 12.8581 925.018 12.5743 924.669 12.5743C924.319 12.5743 924.036 12.8581 924.036 13.2082C924.036 13.5582 924.319 13.842 924.669 13.842Z"
		fill="white"
	/>
	<path
		d="M923.069 16.7634C923.418 16.7634 923.701 16.4796 923.701 16.1296C923.701 15.7795 923.418 15.4957 923.069 15.4957C922.72 15.4957 922.437 15.7795 922.437 16.1296C922.437 16.4796 922.72 16.7634 923.069 16.7634Z"
		fill="white"
	/>
	<path
		d="M919.413 17.6226C919.762 17.6226 920.046 17.3388 920.046 16.9887C920.046 16.6387 919.762 16.3548 919.413 16.3548C919.064 16.3548 918.781 16.6387 918.781 16.9887C918.781 17.3388 919.064 17.6226 919.413 17.6226Z"
		fill="white"
	/>
	<path
		d="M915.585 16.7919C915.934 16.7919 916.217 16.5081 916.217 16.158C916.217 15.808 915.934 15.5242 915.585 15.5242C915.236 15.5242 914.952 15.808 914.952 16.158C914.952 16.5081 915.236 16.7919 915.585 16.7919Z"
		fill="white"
	/>
	<path
		d="M911.5 19.111C911.849 19.111 912.132 18.8272 912.132 18.4771C912.132 18.1271 911.849 17.8433 911.5 17.8433C911.15 17.8433 910.867 18.1271 910.867 18.4771C910.867 18.8272 911.15 19.111 911.5 19.111Z"
		fill="white"
	/>
	<path
		d="M908.471 23.5208C908.821 23.5208 909.104 23.2369 909.104 22.8869C909.104 22.5368 908.821 22.2531 908.471 22.2531C908.122 22.2531 907.839 22.5368 907.839 22.8869C907.839 23.2369 908.122 23.5208 908.471 23.5208Z"
		fill="white"
	/>
	<path
		d="M905.328 26.4707C905.677 26.4707 905.96 26.1869 905.96 25.8369C905.96 25.4868 905.677 25.203 905.328 25.203C904.979 25.203 904.696 25.4868 904.696 25.8369C904.696 26.1869 904.979 26.4707 905.328 26.4707Z"
		fill="white"
	/>
	<path
		d="M907.814 29.1623C908.163 29.1623 908.446 28.8785 908.446 28.5284C908.446 28.1784 908.163 27.8946 907.814 27.8946C907.464 27.8946 907.181 28.1784 907.181 28.5284C907.181 28.8785 907.464 29.1623 907.814 29.1623Z"
		fill="white"
	/>
	<path
		d="M907.3 31.9394C907.649 31.9394 907.932 31.6556 907.932 31.3056C907.932 30.9555 907.649 30.6718 907.3 30.6718C906.951 30.6718 906.668 30.9555 906.668 31.3056C906.668 31.6556 906.951 31.9394 907.3 31.9394Z"
		fill="white"
	/>
	<path
		d="M907.956 26.0981C908.305 26.0981 908.588 25.8144 908.588 25.4643C908.588 25.1142 908.305 24.8305 907.956 24.8305C907.607 24.8305 907.324 25.1142 907.324 25.4643C907.324 25.8144 907.607 26.0981 907.956 26.0981Z"
		fill="white"
	/>
	<path
		d="M938.687 20.2915C928.909 19.8199 921.926 19.1575 919.059 19.1575C918.751 19.1575 918.454 19.126 918.155 19.1575C913.659 19.6141 910.122 23.4322 910.122 28.0583C911.363 38.7404 921.563 38.4835 926.922 35.4841C931.464 32.8481 934.993 30.3428 938.856 29.5888H938.914C941.413 29.5558 943.552 27.3944 943.552 24.8831C943.551 23.6674 943.068 22.5016 942.21 21.641C941.351 20.7804 940.186 20.2951 938.97 20.2915"
		fill="#FFCDA9"
	/>
	<path
		d="M938.687 20.2915C928.909 19.8199 921.926 19.1575 919.059 19.1575C918.751 19.1575 918.454 19.126 918.155 19.1575C913.659 19.6141 910.122 23.4322 910.122 28.0583C911.363 38.7404 921.563 38.4835 926.922 35.4841C931.464 32.8481 934.993 30.3428 938.856 29.5888H938.914C941.413 29.5558 943.552 27.3944 943.552 24.8831C943.551 23.6674 943.068 22.5016 942.21 21.641C941.351 20.7804 940.186 20.2951 938.97 20.2915"
		stroke="#EB2A00"
		stroke-width="1.5"
		stroke-linecap="round"
		stroke-linejoin="round"
	/>
	<path
		d="M909.185 20.7722C909.534 20.7722 909.817 20.4884 909.817 20.1383C909.817 19.7883 909.534 19.5045 909.185 19.5045C908.836 19.5045 908.552 19.7883 908.552 20.1383C908.552 20.4884 908.836 20.7722 909.185 20.7722Z"
		fill="white"
	/>
	<path
		d="M917.413 14.3872C917.762 14.3872 918.045 14.1034 918.045 13.7534C918.045 13.4033 917.762 13.1195 917.413 13.1195C917.063 13.1195 916.78 13.4033 916.78 13.7534C916.78 14.1034 917.063 14.3872 917.413 14.3872Z"
		fill="white"
	/>
	<path
		d="M923.87 9.63345C924.219 9.63345 924.502 9.34967 924.502 8.99961C924.502 8.64956 924.219 8.36578 923.87 8.36578C923.52 8.36578 923.237 8.64956 923.237 8.99961C923.237 9.34967 923.52 9.63345 923.87 9.63345Z"
		fill="white"
	/>
	<path
		d="M921.516 30.2617C924.952 30.2617 927.737 28.7567 927.737 26.9003C927.737 25.0438 924.952 23.5388 921.516 23.5388C918.08 23.5388 915.295 25.0438 915.295 26.9003C915.295 28.7567 918.08 30.2617 921.516 30.2617Z"
		fill="white"
		stroke="#EB2A00"
		stroke-width="1.5"
		stroke-linecap="round"
		stroke-linejoin="round"
	/>
	<path
		d="M911.137 31.8102C923.856 41.7173 927.424 26.328 943.091 26.6975"
		stroke="#EB2A00"
		stroke-width="1.5"
		stroke-linecap="round"
	/>
	<path
		d="M934.877 24.121C935.128 24.3645 935.528 24.3585 935.772 24.1076C936.016 23.8567 936.012 23.4558 935.761 23.2123C935.511 22.9688 935.11 22.9749 934.866 23.2258C934.622 23.4768 934.627 23.8775 934.877 24.121Z"
		fill="white"
	/>
	<path
		d="M939.98 25.0787C940.231 25.3222 940.631 25.316 940.876 25.0651C941.12 24.8142 941.114 24.4135 940.864 24.17C940.614 23.9265 940.213 23.9324 939.969 24.1833C939.725 24.4343 939.73 24.8352 939.98 25.0787Z"
		fill="white"
	/>
	<path
		d="M930.562 27.0857C930.813 27.3292 931.213 27.3233 931.458 27.0724C931.702 26.8214 931.697 26.4205 931.446 26.177C931.196 25.9335 930.795 25.9397 930.551 26.1906C930.307 26.4415 930.312 26.8422 930.562 27.0857Z"
		fill="white"
	/>
	<path
		d="M921.807 21.4106C922.057 21.6541 922.458 21.6482 922.702 21.3973C922.946 21.1464 922.941 20.7454 922.691 20.5019C922.44 20.2584 922.039 20.2646 921.795 20.5155C921.551 20.7665 921.557 21.1671 921.807 21.4106Z"
		fill="white"
	/>
	<path
		d="M929.341 22.1465C929.591 22.39 929.992 22.3841 930.236 22.1332C930.48 21.8823 930.475 21.4813 930.224 21.2378C929.974 20.9943 929.573 21.0005 929.329 21.2514C929.085 21.5023 929.09 21.903 929.341 22.1465Z"
		fill="white"
	/>
	<path
		d="M914.282 31.9124C914.533 32.1559 914.934 32.1498 915.178 31.8988C915.422 31.6479 915.416 31.2472 915.166 31.0037C914.916 30.7602 914.515 30.7661 914.271 31.0171C914.027 31.268 914.032 31.6689 914.282 31.9124Z"
		fill="white"
	/>
	<path
		d="M912.673 26.6154C912.924 26.8589 913.324 26.8528 913.569 26.6018C913.813 26.3509 913.807 25.9502 913.557 25.7067C913.307 25.4632 912.906 25.4691 912.662 25.7201C912.418 25.971 912.423 26.3719 912.673 26.6154Z"
		fill="white"
	/>
	<path
		d="M919.915 33.1875C920.165 33.431 920.566 33.4252 920.81 33.1742C921.054 32.9233 921.049 32.5223 920.799 32.2788C920.548 32.0353 920.147 32.0415 919.903 32.2924C919.659 32.5433 919.664 32.944 919.915 33.1875Z"
		fill="white"
	/>
	<path
		d="M988.035 37.5247C997.77 37.5247 1005.66 29.6328 1005.66 19.8975C1005.66 10.1622 997.77 2.27014 988.035 2.27014C978.3 2.27014 970.408 10.1622 970.408 19.8975C970.408 29.6328 978.3 37.5247 988.035 37.5247Z"
		fill="#FFCDA9"
		stroke="#EB2A00"
		stroke-width="1.5"
		stroke-linecap="round"
		stroke-linejoin="round"
	/>
	<path
		d="M989.68 6.11697C991.551 6.10218 993.392 6.58397 995.016 7.513C996.639 8.44204 997.988 9.78517 998.923 11.4054M981.499 7.95887C982.884 6.5742 984.762 5.79627 986.72 5.79611"
		stroke="white"
		stroke-width="1.5"
		stroke-linecap="round"
		stroke-linejoin="round"
	/>
	<path
		d="M981.019 12.0798L1000.69 26.1367"
		stroke="#EB2A00"
		stroke-width="1.5"
		stroke-linecap="round"
		stroke-linejoin="round"
	/>
	<path
		d="M985.597 14.1735C986.009 13.5974 985.876 12.7966 985.3 12.3851C984.724 11.9735 983.924 12.1069 983.512 12.6831L982.394 14.2474C981.982 14.8236 982.115 15.6243 982.691 16.0359C983.267 16.4475 984.068 16.314 984.479 15.7379L985.597 14.1735Z"
		fill="white"
		stroke="#EB2A00"
		stroke-width="1.5"
		stroke-linecap="round"
		stroke-linejoin="round"
	/>
	<path
		d="M988.487 14.6835L985.879 18.3333"
		stroke="#EB2A00"
		stroke-width="1.5"
		stroke-linecap="round"
		stroke-linejoin="round"
	/>
	<path
		d="M991.944 18.5364C992.356 17.9602 992.223 17.1595 991.647 16.7479C991.071 16.3363 990.27 16.4698 989.859 17.0459L988.741 18.6103C988.329 19.1864 988.462 19.9872 989.038 20.3988C989.614 20.8103 990.414 20.6769 990.826 20.1007L991.944 18.5364Z"
		fill="white"
		stroke="#EB2A00"
		stroke-width="1.5"
		stroke-linecap="round"
		stroke-linejoin="round"
	/>
	<path
		d="M995.006 19.2765L992.397 22.9278"
		stroke="#EB2A00"
		stroke-width="1.5"
		stroke-linecap="round"
		stroke-linejoin="round"
	/>
	<path
		d="M998.347 23.2357C998.759 22.6595 998.626 21.8587 998.05 21.4472C997.474 21.0356 996.673 21.1691 996.261 21.7452L995.143 23.3096C994.732 23.8857 994.865 24.6864 995.44 25.098C996.016 25.5096 996.817 25.3762 997.229 24.8L998.347 23.2357Z"
		fill="white"
		stroke="#EB2A00"
		stroke-width="1.5"
		stroke-linecap="round"
		stroke-linejoin="round"
	/>
	<path
		d="M1000.95 23.6881L998.34 27.3382M968.954 13.4443L990.062 28.9688M978.62 17.9042L975.996 21.5437"
		stroke="#EB2A00"
		stroke-width="1.5"
		stroke-linecap="round"
		stroke-linejoin="round"
	/>
	<path
		d="M981.709 21.7097C982.13 21.1253 982.007 20.316 981.432 19.902C980.858 19.4879 980.051 19.626 979.63 20.2103L978.531 21.7339C978.11 22.3182 978.233 23.1275 978.808 23.5416C979.382 23.9556 980.189 23.8175 980.61 23.2332L981.709 21.7097Z"
		fill="white"
		stroke="#EB2A00"
		stroke-width="1.5"
		stroke-linecap="round"
		stroke-linejoin="round"
	/>
	<path
		d="M984.095 21.9716L981.471 25.6109"
		stroke="#EB2A00"
		stroke-width="1.5"
		stroke-linecap="round"
		stroke-linejoin="round"
	/>
	<path
		d="M987.197 25.7161C987.619 25.1317 987.495 24.3224 986.921 23.9084C986.347 23.4943 985.54 23.6324 985.118 24.2167L984.019 25.7403C983.598 26.3246 983.722 27.1339 984.296 27.548C984.87 27.962 985.677 27.8239 986.098 27.2396L987.197 25.7161Z"
		fill="white"
		stroke="#EB2A00"
		stroke-width="1.5"
		stroke-linecap="round"
		stroke-linejoin="round"
	/>
	<path
		d="M989.745 26.0193L987.12 29.6587"
		stroke="#EB2A00"
		stroke-width="1.5"
		stroke-linecap="round"
		stroke-linejoin="round"
	/>
</svg>
