<svg width="24" height="42" viewBox="0 0 24 42" fill="none" xmlns="http://www.w3.org/2000/svg">
<path d="M22.7174 1.04819L22.7174 1.04828C23.3113 1.1281 23.7501 1.6405 23.75 2.24098C23.75 2.241 23.75 2.24102 23.75 2.24104V8.80262V8.80278C23.7496 9.4631 23.2208 10.0042 22.5612 10.0039H22.5613L22.5612 9.75395L22.5611 10.0039L22.7174 1.04819ZM22.7174 1.04819L22.7108 1.04748L22.7174 1.04819ZM1.43894 15.8562C0.779263 15.8558 0.250288 16.397 0.25 17.0574V17.0575L1.43878 16.1062M1.43894 15.8562L1.43878 16.1062M1.43894 15.8562H1.43878V16.1062M1.43894 15.8562H6.49322M1.43878 16.1062H6.49322V15.8562M6.49322 15.8562H6.74322L16.9817 1.00029V0.750291C16.9816 0.750291 16.9815 0.750291 16.9813 0.750291C13.7689 0.750382 11.1398 1.78935 9.31427 3.68757C7.48975 5.58474 6.49322 8.31388 6.49322 11.6475V15.8562ZM0.5 24.393L0.25 24.3928C0.25 24.3928 0.25 24.3929 0.25 24.3929C0.25 24.3929 0.25 24.393 0.25 24.393C0.249656 25.0534 0.778052 25.5949 1.43758 25.5954H1.43774H6.49322V40.0475V40.0476H6.74322M0.5 24.393L16.3388 40.0487V40.0488C16.3384 40.7091 15.8096 41.2504 15.1499 41.25M0.5 24.393C0.499656 24.9187 0.919538 25.345 1.43774 25.3454H6.49322L0.5 24.393ZM6.74322 40.0476C6.74288 40.5733 7.16276 40.9997 7.68097 41H15.15M6.74322 40.0476V25.5954V40.0476ZM15.15 41L15.1499 41.25M15.15 41C15.6682 41.0004 16.0885 40.5744 16.0888 40.0487M15.15 41V41.25H15.1499M15.1499 41.25L16.0888 40.0487M16.0888 40.0487V25.5954V40.0487ZM15.149 18.261H15.1489C14.4892 18.2607 13.961 17.7189 13.9613 17.0587C13.9613 17.0587 13.9613 17.0586 13.9613 17.0586V12.3748C13.9613 11.3932 14.0775 10.1955 14.7479 9.24102C15.431 8.26841 16.6497 7.60109 18.7326 7.60106L15.149 18.261ZM15.149 18.261H20.9591L20.3315 23.1906H15.1501C15.1501 23.1906 15.1501 23.1906 15.15 23.1906C14.4904 23.1904 13.9617 23.7314 13.9613 24.3918V24.3919V38.8452M15.149 18.261L13.9613 38.8452M7.68183 18.261C8.34156 18.2614 8.87034 17.7201 8.87078 17.0598V17.0596V11.6475C8.87078 8.95715 9.63831 6.8397 11.0188 5.39622C12.398 3.95418 14.4174 3.15504 16.9817 3.15504C18.7343 3.15504 20.3293 3.24465 21.3724 3.33004V7.59936L18.7328 7.60106L2.62755 18.011V18.261M7.68183 18.261L7.682 18.011V18.261H7.68183ZM7.68183 18.261H2.62755M2.62755 18.261H2.37755V23.1906H2.62755M2.62755 18.261V23.1906M2.62755 23.1906V23.4406L8.62078 24.393L8.87078 24.3931C8.87121 23.7327 8.3428 23.191 7.68331 23.1906H7.68315H2.62755ZM13.9613 38.8452H8.87078H13.9613ZM16.3388 15.8562H16.0888V16.1062H16.3388V15.8562Z" fill="#EB2A00" stroke="#EB2A00" stroke-width="0.5"/>
</svg>
