<svg width="37" height="36" viewBox="0 0 37 36" fill="none" xmlns="http://www.w3.org/2000/svg">
<path d="M18.5 0C8.5746 0 0.5 8.0746 0.5 18C0.5 27.9254 8.5746 36 18.5 36C28.4254 36 36.5 27.9254 36.5 18C36.5 8.07459 28.4254 0 18.5 0ZM26.2259 21.631C26.3254 20.4333 26.3801 19.2167 26.3801 18C26.3801 16.7833 26.3254 15.5667 26.2259 14.369C30.6592 15.3342 33.0161 16.9898 33.0161 18C33.0161 19.0102 30.6592 20.6658 26.2259 21.631ZM18.5 32.5161C17.4898 32.5161 15.8342 30.1592 14.869 25.7259C16.0667 25.8254 17.2833 25.8801 18.5 25.8801C19.7167 25.8801 20.9333 25.8254 22.131 25.7259C21.1658 30.1592 19.5102 32.5161 18.5 32.5161ZM18.5 22.3962C16.9901 22.3962 15.6031 22.3148 14.3174 22.1826C14.1852 20.8969 14.1038 19.5099 14.1038 18C14.1038 16.4901 14.1852 15.1031 14.3174 13.8174C15.6032 13.6852 16.9901 13.6038 18.5 13.6038C20.0099 13.6038 21.3969 13.6852 22.6826 13.8174C22.8148 15.1032 22.8962 16.4901 22.8962 18C22.8962 19.5099 22.8148 20.8969 22.6826 22.1826C21.3969 22.3148 20.0099 22.3962 18.5 22.3962ZM3.98387 18C3.98387 16.9898 6.34076 15.3342 10.7741 14.369C10.6745 15.5667 10.6199 16.7833 10.6199 18C10.6199 19.2167 10.6746 20.4333 10.7741 21.631C6.34076 20.6658 3.98387 19.0102 3.98387 18ZM18.5 3.48387C19.5102 3.48387 21.1658 5.84076 22.131 10.2741C20.9333 10.1745 19.7167 10.1199 18.5 10.1199C17.2833 10.1199 16.0667 10.1746 14.869 10.2741C15.8342 5.84076 17.4898 3.48387 18.5 3.48387ZM31.964 12.6015C30.2203 11.7772 28.0816 11.1601 25.7549 10.7451C25.3399 8.41837 24.7228 6.27972 23.8985 4.53601C27.5641 6.01122 30.4888 8.93592 31.964 12.6015ZM13.1015 4.53608C12.2772 6.27979 11.6601 8.41844 11.2451 10.7451C8.91844 11.1601 6.77979 11.7771 5.03608 12.6014C6.51129 8.93585 9.436 6.01129 13.1015 4.53608ZM5.03615 23.3986C6.77986 24.2229 8.91844 24.8399 11.2451 25.2549C11.6601 27.5816 12.2771 29.7201 13.1014 31.4638C9.436 29.9886 6.51136 27.064 5.03615 23.3986ZM23.8986 31.4639C24.7229 29.7202 25.3399 27.5816 25.7549 25.2549C28.0816 24.8399 30.2202 24.2228 31.9639 23.3985C30.4887 27.064 27.5641 29.9887 23.8986 31.4639Z" fill="#EB2A00"/>
</svg>
