<svg width="36" height="34" viewBox="0 0 36 34" fill="none" xmlns="http://www.w3.org/2000/svg">
<path d="M27.345 5.882C26.9297 5.882 26.5236 6.00164 26.1783 6.2258C25.833 6.44996 25.5638 6.76856 25.4049 7.14133C25.2459 7.51409 25.2043 7.92426 25.2854 8.31998C25.3664 8.71571 25.5664 9.0792 25.8601 9.3645C26.1538 9.6498 26.528 9.84409 26.9353 9.9228C27.3427 10.0015 27.7649 9.96112 28.1486 9.80671C28.5324 9.65231 28.8603 9.39084 29.0911 9.05536C29.3218 8.71989 29.445 8.32547 29.445 7.922C29.445 7.38096 29.2238 6.86208 28.8299 6.4795C28.4361 6.09693 27.902 5.882 27.345 5.882ZM35.395 9.996C35.361 8.58551 35.089 7.18998 34.59 5.865C34.145 4.73133 33.4525 3.70477 32.56 2.856C31.6934 1.98462 30.6342 1.3161 29.4625 0.901C28.1021 0.401473 26.664 0.131257 25.21 0.102C23.355 -9.49949e-08 22.76 0 18 0C13.24 0 12.645 -9.49949e-08 10.79 0.102C9.33602 0.131257 7.89785 0.401473 6.5375 0.901C5.36793 1.3203 4.30963 1.98825 3.44 2.856C2.543 3.6978 1.85481 4.72675 1.4275 5.865C0.913281 7.18648 0.635117 8.58356 0.605 9.996C0.5 11.798 0.5 12.376 0.5 17C0.5 21.624 0.5 22.202 0.605 24.004C0.635117 25.4164 0.913281 26.8135 1.4275 28.135C1.85481 29.2733 2.543 30.3022 3.44 31.144C4.30963 32.0117 5.36793 32.6797 6.5375 33.099C7.89785 33.5985 9.33602 33.8687 10.79 33.898C12.645 34 13.24 34 18 34C22.76 34 23.355 34 25.21 33.898C26.664 33.8687 28.1021 33.5985 29.4625 33.099C30.6342 32.6839 31.6934 32.0154 32.56 31.144C33.4564 30.2984 34.1496 29.2709 34.59 28.135C35.089 26.81 35.361 25.4145 35.395 24.004C35.395 22.202 35.5 21.624 35.5 17C35.5 12.376 35.5 11.798 35.395 9.996ZM32.245 23.8C32.2323 24.8791 32.0311 25.9483 31.65 26.962C31.3706 27.7018 30.9218 28.3703 30.3375 28.917C29.7699 29.4789 29.0831 29.9139 28.325 30.192C27.2815 30.5622 26.1809 30.7576 25.07 30.77C23.32 30.855 22.6725 30.872 18.07 30.872C13.4675 30.872 12.82 30.872 11.07 30.77C9.91656 30.791 8.76804 30.6184 7.675 30.26C6.95012 29.9677 6.29487 29.5337 5.75 28.985C5.16916 28.4389 4.72598 27.7698 4.455 27.03C4.02775 26.0018 3.79078 24.9083 3.755 23.8C3.755 22.1 3.65 21.471 3.65 17C3.65 12.529 3.65 11.9 3.755 10.2C3.76284 9.0968 3.97016 8.00351 4.3675 6.97C4.67558 6.25245 5.14846 5.61282 5.75 5.1C6.28167 4.51549 6.93875 4.05126 7.675 3.74C8.74171 3.36607 9.866 3.17064 11 3.162C12.75 3.162 13.3975 3.06 18 3.06C22.6025 3.06 23.25 3.06 25 3.162C26.1108 3.17438 27.2115 3.36982 28.255 3.74C29.0503 4.02671 29.764 4.49284 30.3375 5.1C30.911 5.6222 31.3591 6.26065 31.65 6.97C32.0389 8.00519 32.2403 9.09803 32.245 10.2C32.3325 11.9 32.35 12.529 32.35 17C32.35 21.471 32.3325 22.1 32.245 23.8ZM18 8.279C16.2252 8.28236 14.4912 8.79669 13.0171 9.75701C11.5431 10.7173 10.3952 12.0805 9.71836 13.6744C9.04156 15.2682 8.86627 17.0212 9.21464 18.7118C9.56301 20.4024 10.4194 21.9547 11.6756 23.1727C12.9319 24.3906 14.5315 25.2195 16.2725 25.5547C18.0135 25.8898 19.8177 25.7161 21.4571 25.0555C23.0965 24.3949 24.4975 23.2771 25.4832 21.8434C26.4689 20.4096 26.995 18.7241 26.995 17C26.9973 15.8527 26.7661 14.7162 26.3147 13.656C25.8632 12.5958 25.2005 11.6328 24.3645 10.8223C23.5286 10.0118 22.5359 9.36985 21.4436 8.93338C20.3514 8.49691 19.1811 8.27452 18 8.279ZM18 22.661C16.8474 22.661 15.7207 22.329 14.7624 21.707C13.8041 21.0849 13.0572 20.2008 12.6161 19.1664C12.175 18.132 12.0596 16.9937 12.2845 15.8956C12.5093 14.7975 13.0643 13.7888 13.8793 12.9971C14.6943 12.2054 15.7327 11.6662 16.8631 11.4478C17.9935 11.2293 19.1653 11.3415 20.2301 11.7699C21.2949 12.1984 22.2051 12.924 22.8454 13.8549C23.4857 14.7859 23.8275 15.8804 23.8275 17C23.8275 17.7434 23.6768 18.4795 23.3839 19.1664C23.091 19.8532 22.6618 20.4773 22.1207 21.0029C21.5795 21.5286 20.9371 21.9456 20.2301 22.2301C19.5231 22.5146 18.7653 22.661 18 22.661Z" fill="#EB2A00"/>
</svg>
