<svg width="344" height="35" viewBox="0 0 344 35" fill="none" xmlns="http://www.w3.org/2000/svg">
<path d="M16.9625 12.3523C10.4308 13.1454 10.4132 16.1678 11.2052 19.4659L14.5784 22.4719C20.3333 24.7832 21.8328 20.1781 22.9744 14.9922L16.9625 12.3523Z" fill="#FFCDA9" stroke="#FFCDA9" stroke-width="1.5" stroke-linecap="round" stroke-linejoin="round"/>
<path d="M23.1246 15.3031C25.4899 15.3453 27.3836 18.0826 27.3543 21.4159C27.3261 24.6401 25.5498 27.2624 23.2642 27.3727C22.8888 27.3727 10.2877 27.3856 9.88527 27.3926C7.88247 27.4431 5.6591 27.4876 4.50694 26.2076C3.3055 24.87 3.29611 21.7515 3.49792 19.8249C3.86515 16.3438 7.40612 13.2581 11.0585 12.2784C11.3871 12.1892 13.4215 11.5521 16.2527 12.1552M14.5444 22.2783C15.1735 22.7578 15.9156 23.0671 16.699 23.1764C17.4824 23.2857 18.2808 23.1913 19.0172 22.9023C19.7535 22.6133 20.403 22.1394 20.9029 21.5264C21.4029 20.9134 21.7365 20.182 21.8715 19.4025C21.9138 19.1515 23.3944 9.64318 27.3156 10.1641C28.0313 10.258 28.8197 10.4281 29.3559 9.94706C29.5169 9.80287 29.6478 9.62833 29.7412 9.43343C29.8346 9.23854 29.8887 9.02713 29.9002 8.81132C29.9118 8.59551 29.8806 8.37954 29.8086 8.17579C29.7365 7.97204 29.6249 7.78452 29.4803 7.62396C29.1878 7.29874 28.7783 7.10295 28.3415 7.07962C27.9048 7.0563 27.4767 7.20736 27.1513 7.49959C27.4446 7.20627 27.7649 6.68064 27.7802 6.26647C27.7883 6.05036 27.7538 5.83476 27.6786 5.63199C27.6034 5.42921 27.489 5.24325 27.3419 5.08471C27.1948 4.92617 27.0179 4.79817 26.8214 4.70803C26.6248 4.61789 26.4124 4.56736 26.1962 4.55935C25.416 4.53002 24.6123 5.02279 24.5443 5.76548C23.94 12.398 16.7161 11.4993 13.8873 12.899C11.0585 14.2999 9.85593 16.5702 11.1712 19.2301" fill="#FFCDA9"/>
<path d="M23.1246 15.3031C25.4899 15.3453 27.3836 18.0826 27.3543 21.4159C27.3261 24.6401 25.5498 27.2624 23.2642 27.3727C22.8888 27.3727 10.2877 27.3856 9.88527 27.3926C7.88247 27.4431 5.6591 27.4876 4.50694 26.2076C3.3055 24.87 3.29611 21.7515 3.49792 19.8249C3.86515 16.3438 7.40612 13.2581 11.0586 12.2784C11.3871 12.1892 13.4215 11.5521 16.2527 12.1552M14.5444 22.2783C15.1735 22.7578 15.9156 23.0671 16.699 23.1764C17.4824 23.2857 18.2808 23.1913 19.0172 22.9023C19.7535 22.6133 20.403 22.1394 20.9029 21.5264C21.4029 20.9134 21.7365 20.182 21.8715 19.4025C21.9138 19.1515 23.3944 9.64318 27.3156 10.1641C28.0313 10.258 28.8197 10.4281 29.3559 9.94706C29.5169 9.80287 29.6478 9.62833 29.7412 9.43343C29.8346 9.23854 29.8887 9.02713 29.9002 8.81132C29.9118 8.59551 29.8806 8.37954 29.8086 8.17579C29.7365 7.97204 29.6249 7.78452 29.4803 7.62396C29.1878 7.29874 28.7783 7.10295 28.3415 7.07962C27.9048 7.0563 27.4767 7.20736 27.1513 7.49959C27.4446 7.20627 27.7649 6.68064 27.7802 6.26647C27.7883 6.05036 27.7538 5.83476 27.6786 5.63199C27.6034 5.42921 27.489 5.24325 27.3419 5.08471C27.1948 4.92617 27.0179 4.79817 26.8214 4.70803C26.6248 4.61789 26.4124 4.56736 26.1962 4.55935C25.416 4.53002 24.6123 5.02279 24.5443 5.76548C23.94 12.398 16.7161 11.4993 13.8873 12.899C11.0585 14.2999 9.85593 16.5702 11.1712 19.2301" stroke="#EB2A00" stroke-width="1.5" stroke-linecap="round" stroke-linejoin="round"/>
<path d="M1 29.2147H29.8123C29.7947 30.3387 29.58 31.3031 28.3985 31.4979H2.74702C1.00587 31.1999 1.28276 30.0958 1 29.2147V29.2147Z" stroke="#EB2A00" stroke-width="1.5" stroke-linecap="round" stroke-linejoin="round"/>
<path d="M12.9217 17.4162C12.9176 17.1037 12.9757 16.7935 13.0925 16.5037C13.2093 16.2139 13.3826 15.9501 13.6022 15.7278C13.8215 15.5056 14.0827 15.3292 14.3708 15.2088C14.6588 15.0883 14.9678 15.0263 15.28 15.0262" stroke="white" stroke-width="1.5" stroke-linecap="round" stroke-linejoin="round"/>
<path d="M53.4023 21.0556C56.2801 25.8053 63.8937 27.9832 70.7333 27.6913C73.1334 27.5893 75.4496 27.0612 77.5004 26.075C80.008 24.8708 81.8827 23.1622 83.4376 21.0989L83.4795 21.1855C83.4795 21.1855 86.8965 26.2901 89.1988 25.6838C90.2381 25.4086 86.842 18.4348 86.842 16.8199C86.842 15.5067 91.0107 9.14345 88.8495 7.9141C88.7685 7.87466 88.6776 7.86004 88.5883 7.87215C87.0698 7.942 83.1749 13.2408 83.1749 13.2408H83.1316C80.9453 10.1814 77.3984 7.96299 73.2647 7.04098C71.6599 6.68962 70.0169 6.54315 68.3752 6.6051C61.3875 6.8356 55.0899 10.7751 53.183 16.69L53.2263 16.7766L55.889 18.6541L53.4023 21.0109" fill="#FFCDA9"/>
<path d="M53.4023 21.0556C56.2801 25.8053 63.8937 27.9832 70.7333 27.6913C73.1334 27.5893 75.4496 27.0612 77.5004 26.075C80.008 24.8708 81.8827 23.1622 83.4376 21.0989L83.4795 21.1855C83.4795 21.1855 86.8965 26.2901 89.1988 25.6838C90.2381 25.4086 86.842 18.4348 86.842 16.8199C86.842 15.5067 91.0107 9.14345 88.8495 7.9141C88.7685 7.87466 88.6776 7.86004 88.5883 7.87215V7.87215C87.0698 7.942 83.1749 13.2408 83.1749 13.2408H83.1316C80.9453 10.1814 77.3984 7.96299 73.2647 7.04098C71.6599 6.68962 70.0169 6.54315 68.3752 6.6051C61.3875 6.8356 55.0899 10.7751 53.183 16.69L53.2263 16.7766L55.889 18.6541L53.4023 21.0109" stroke="#EB2A00" stroke-width="1.5" stroke-linecap="round" stroke-linejoin="round"/>
<path d="M61.9463 16.0361C63.0025 16.0361 63.8586 15.1924 63.8586 14.1516C63.8586 13.1108 63.0025 12.267 61.9463 12.267C60.89 12.267 60.0339 13.1108 60.0339 14.1516C60.0339 15.1924 60.89 16.0361 61.9463 16.0361Z" fill="white" stroke="#EB2A00" stroke-width="1.5" stroke-linecap="round" stroke-linejoin="round"/>
<path d="M66.0631 12.1594C67.4734 13.0757 68.5552 14.406 69.1552 15.9619C69.7552 17.5177 69.843 19.2201 69.4062 20.8278C68.9693 22.4356 68.0296 23.8671 66.7207 24.9194C65.4119 25.9718 63.8 26.5916 62.1136 26.691" stroke="#EB2A00" stroke-width="1.5" stroke-linecap="round" stroke-linejoin="round"/>
<path d="M67.6028 9.24816C69.6794 8.69153 71.8903 8.95414 73.7787 9.98161" stroke="white" stroke-width="1.5" stroke-linecap="round" stroke-linejoin="round"/>
<path d="M117.63 25.5674C116.844 25.5674 116.189 26.0823 115.945 26.7868C115.727 26.6897 115.491 26.6384 115.252 26.6361C114.259 26.6361 113.454 27.4431 113.454 28.4378V28.5137C112.534 28.5924 111.806 29.0883 111.806 30.0309C111.806 31.0266 112.61 31.4979 113.604 31.4979H118.722" fill="#FFCDA9"/>
<path d="M117.63 25.5674C116.844 25.5674 116.189 26.0823 115.945 26.7868C115.727 26.6897 115.491 26.6384 115.252 26.6361C114.259 26.6361 113.454 27.4431 113.454 28.4378V28.5137C112.534 28.5924 111.806 29.0883 111.806 30.0309C111.806 31.0266 112.61 31.4979 113.604 31.4979H118.722" stroke="#EB2A00" stroke-width="1.5" stroke-linecap="round" stroke-linejoin="round"/>
<path d="M132.783 13.4786V28.4947C132.784 28.8889 132.707 29.2794 132.557 29.6439C132.407 30.0084 132.187 30.3397 131.908 30.6187C131.63 30.8978 131.299 31.1191 130.935 31.2699C130.571 31.4208 130.18 31.4983 129.786 31.4979H120.796C120.402 31.4984 120.012 31.421 119.647 31.2702C119.283 31.1194 118.952 30.8981 118.674 30.6191C118.395 30.34 118.174 30.0087 118.024 29.6441C117.874 29.2796 117.798 28.889 117.799 28.4947V13.4786M121.395 18.8838V25.4915M125.113 18.2845V24.8912M129.187 18.2836V25.4915" stroke="#EB2A00" stroke-width="1.5" stroke-linecap="round" stroke-linejoin="round"/>
<path d="M123.624 4.55905C121.224 4.55905 119.243 6.36554 118.942 8.68883C118.84 8.67745 118.745 8.6509 118.642 8.6509C117.919 8.64964 117.224 8.93539 116.711 9.44544C116.198 9.9555 115.909 10.6482 115.906 11.3715C115.909 12.0949 116.198 12.7877 116.711 13.2979C117.223 13.8081 117.918 14.0941 118.641 14.0931C118.982 14.0931 119.295 14.021 119.596 13.9053V18.0351C119.596 18.7843 120.197 19.3864 120.944 19.3864C121.122 19.3867 121.297 19.3519 121.461 19.284C121.625 19.2162 121.774 19.1166 121.899 18.991C122.025 18.8655 122.124 18.7164 122.192 18.5523C122.259 18.3883 122.293 18.2125 122.293 18.0351V13.8304C122.716 13.9537 123.161 14.0372 123.623 14.0372C124.734 14.0386 125.809 13.6461 126.658 12.9296C127.17 13.3127 127.805 13.5488 128.493 13.5488C128.977 13.5488 129.433 13.4303 129.841 13.2292C130.213 13.6282 130.697 13.9057 131.23 14.0258C131.762 14.1458 132.318 14.1027 132.825 13.9021C133.333 13.7015 133.768 13.3527 134.074 12.9011C134.381 12.4496 134.544 11.9162 134.543 11.3706C134.543 10.948 134.445 10.5312 134.256 10.1533C134.067 9.77537 133.793 9.44673 133.454 9.19353C133.116 8.94033 132.723 8.76956 132.308 8.69478C131.892 8.62001 131.464 8.6433 131.059 8.7628C130.778 8.34019 130.396 7.99385 129.948 7.75473C129.5 7.51561 129 7.39117 128.493 7.39253C128.314 7.39253 128.138 7.40201 127.968 7.43046C127.606 6.57824 127 5.85151 126.228 5.34077C125.455 4.83003 124.549 4.55784 123.623 4.55811L123.624 4.55905Z" fill="#FFCDA9" stroke="#EB2A00" stroke-width="1.5" stroke-linecap="round" stroke-linejoin="round"/>
<path d="M132.783 15.2803C134.11 15.2803 135.18 16.3519 135.18 17.6833V24.29C135.181 24.6054 135.12 24.9179 135 25.2096C134.88 25.5013 134.704 25.7664 134.481 25.9896C134.258 26.2129 133.993 26.39 133.702 26.5107C133.411 26.6314 133.098 26.6933 132.783 26.693" stroke="#EB2A00" stroke-width="1.5" stroke-linecap="round" stroke-linejoin="round"/>
<path d="M130.886 25.5389V27.0324C130.887 27.3769 130.821 27.7183 130.69 28.0369C130.559 28.3556 130.366 28.6452 130.123 28.8893C129.88 29.1333 129.591 29.3269 129.273 29.4591C128.955 29.5912 128.613 29.6592 128.269 29.6592H127.711" stroke="white" stroke-width="1.5" stroke-linecap="round" stroke-linejoin="round"/>
<path d="M165.258 8.36847C160.053 9.90776 161.438 16.915 162.232 18.9338C163.348 21.7638 163.319 29.7987 166.922 29.7987H170.023C171.876 31.0417 173.439 30.4757 174.335 29.7987H176.754C181.842 27.9243 179.598 22.8625 180.925 19.1446C182.198 15.5733 182.586 6.7759 178.246 8.06882L174.314 9.24188C170.949 7.81135 168.643 7.36965 165.258 8.36958V8.36847Z" fill="#FFCDA9" stroke="#EB2A00" stroke-width="1.5" stroke-linecap="round" stroke-linejoin="round"/>
<path d="M170.704 8.21863C163.532 12.5247 167.087 26.8389 169.763 29.6733M174.493 9.27072C178.077 14.5345 176.835 24.0966 174.287 29.65M171.024 8.09211C174.215 1.85614 181.553 4.92474 178.678 5.41638C175.54 5.8714 174.534 7.40293 174.072 9.05764L171.024 8.09211Z" stroke="#EB2A00" stroke-width="1.5" stroke-linecap="round" stroke-linejoin="round"/>
<path d="M223.895 4.20588C224.317 4.2059 224.723 4.03914 225.023 3.74185C225.323 3.44456 225.494 3.04078 225.498 2.61833C225.502 2.19561 225.339 1.78837 225.044 1.48527C224.75 1.18217 224.347 1.00776 223.924 1M223.756 7.39638C223.334 7.3964 222.929 7.22963 222.628 6.93234C222.328 6.63505 222.158 6.23128 222.154 5.80883C222.149 5.3861 222.312 4.97886 222.607 4.67577C222.902 4.37267 223.304 4.19825 223.727 4.1905M223.895 10.6023C224.317 10.6023 224.723 10.4355 225.023 10.1382C225.323 9.84094 225.494 9.43716 225.498 9.01471C225.502 8.59199 225.339 8.18475 225.044 7.88165C224.75 7.57855 224.347 7.40414 223.924 7.39638M230.307 4.20588C230.729 4.2059 231.135 4.03914 231.435 3.74185C231.735 3.44456 231.906 3.04078 231.91 2.61833C231.914 2.19561 231.751 1.78837 231.456 1.48527C231.161 1.18217 230.759 1.00776 230.336 1M230.168 7.39638C229.746 7.3964 229.34 7.22963 229.04 6.93234C228.74 6.63505 228.569 6.23128 228.565 5.80883C228.561 5.3861 228.724 4.97886 229.019 4.67577C229.314 4.37267 229.716 4.19825 230.139 4.1905M230.307 10.6023C230.729 10.6023 231.135 10.4355 231.435 10.1382C231.735 9.84094 231.906 9.43716 231.91 9.01471C231.914 8.59199 231.751 8.18475 231.456 7.88165C231.161 7.57855 230.759 7.40414 230.336 7.39638M217.979 4.20588C218.402 4.2059 218.807 4.03914 219.108 3.74185C219.408 3.44456 219.578 3.04078 219.582 2.61833C219.587 2.19583 219.424 1.78878 219.129 1.48571C218.835 1.18265 218.433 1.00809 218.01 1M217.842 7.39638C217.42 7.3964 217.014 7.22963 216.714 6.93234C216.414 6.63505 216.243 6.23128 216.239 5.80883C216.235 5.38632 216.398 4.97927 216.692 4.67621C216.987 4.37315 217.389 4.19859 217.812 4.1905M217.979 10.6023C218.402 10.6023 218.807 10.4355 219.108 10.1382C219.408 9.84094 219.578 9.43716 219.582 9.01471C219.587 8.5922 219.424 8.18515 219.129 7.88209C218.835 7.57903 218.433 7.40447 218.01 7.39638" stroke="#FFCDA9" stroke-width="1.5" stroke-linecap="round" stroke-linejoin="round"/>
<path d="M218.604 29.5272H230.143V25.711C227.684 26.7958 226.252 26.9651 224.259 27.0061C221.768 27.0574 220.079 26.6266 218.604 26.2572V29.5272Z" stroke="#EB2A00" stroke-width="1.5" stroke-linecap="round" stroke-linejoin="round"/>
<path d="M238.896 15.7112C236.741 23.7567 228.508 28.5309 220.462 26.3752C217.909 25.6935 215.58 24.3506 213.712 22.4819C211.843 20.6133 210.5 18.2849 209.818 15.7317L238.896 15.7112Z" fill="#FFCDA9" stroke="#EB2A00" stroke-width="1.5" stroke-linecap="round" stroke-linejoin="round"/>
<path d="M209.811 13.14H238.901V15.7804H209.811V13.14Z" stroke="#EB2A00" stroke-width="1.5" stroke-linecap="round" stroke-linejoin="round"/>
<path d="M228.601 13.1323C238.604 13.5273 236.089 6.39997 243.482 5.75623C244.213 5.69212 244.597 5.67801 245.623 5.74341L245.662 5.73059C244.386 4.97143 242.034 3.68651 240.071 4.23151C239.067 4.51107 237.502 5.59081 236.454 7.64899C233.817 13.4247 231.248 13.1208 229.158 13.131L228.601 13.1323Z" stroke="#EB2A00" stroke-width="1.5" stroke-linecap="round" stroke-linejoin="round"/>
<path d="M234.757 17.9771C233.849 20.747 231.419 22.6705 228.597 23.1937" stroke="white" stroke-width="1.5" stroke-linecap="round" stroke-linejoin="round"/>
<path d="M283.442 13.4698C283.432 9.19283 279.986 5.73064 275.735 5.7366C271.488 5.74652 268.048 9.20776 268.048 13.4807L268.085 13.1532V17.9789L268.154 18.4919C268.153 17.6703 267.887 16.8709 267.395 16.2126C266.904 15.5542 266.213 15.0719 265.425 14.8372C264.638 14.6024 263.796 14.6278 263.024 14.9095C262.252 15.1913 261.592 15.7143 261.141 16.4011C259.984 18.1645 260.704 20.3515 262.204 21.708L262.01 21.5145L269.256 28.9292H283.229L283.422 13.6673L283.442 13.4698Z" fill="#FFCDA9" stroke="#EB2A00" stroke-width="1.5" stroke-linecap="round" stroke-linejoin="round"/>
<path d="M282.138 28.9193H278.458V34H282.138V28.9193Z" stroke="#EB2A00" stroke-width="1.5" stroke-linecap="round" stroke-linejoin="round"/>
<path d="M272.201 6.68524L283.331 17.8072L283.297 17.8419M268.4 11.7501L283.229 26.9446M261.584 15.9248L274.495 28.827M264.94 24.2752L281 7.94551M270.146 28.9292L283.386 15.7968" stroke="#EB2A00" stroke-width="1.5" stroke-linecap="round" stroke-linejoin="round"/>
<path d="M278.034 8.48633C278.684 8.6603 279.273 9.01318 279.732 9.50488C280.192 9.99658 280.504 10.6074 280.634 11.2678" stroke="white" stroke-width="1.5" stroke-linecap="round" stroke-linejoin="round"/>
<path d="M327.386 15.5823C327.85 14.1767 328.534 12.8532 329.411 11.6608C329.423 11.6464 329.432 11.6404 329.443 11.6296C330.886 10.2387 330.952 7.80311 329.58 6.33767C328.915 5.62829 327.995 5.21212 327.023 5.18079C326.052 5.14945 325.107 5.50547 324.398 6.17053L324.233 6.32681C318.268 11.4168 313.828 14.8622 312.155 16.4346C311.975 16.6029 311.784 16.7496 311.626 16.9311C309.251 19.6648 309.272 23.8351 311.799 26.5364C313.668 28.5344 316.237 29.2532 318.711 28.5824" fill="#FFCDA9"/>
<path d="M327.386 15.5823C327.85 14.1767 328.534 12.8532 329.411 11.6608C329.423 11.6464 329.432 11.6404 329.443 11.6296C330.886 10.2387 330.952 7.80311 329.58 6.33767C328.915 5.62829 327.995 5.21212 327.023 5.18079C326.052 5.14945 325.107 5.50547 324.398 6.17053L324.233 6.32681C318.268 11.4168 313.828 14.8622 312.155 16.4346C311.975 16.6029 311.784 16.7496 311.626 16.9311C309.251 19.6648 309.272 23.8351 311.799 26.5364C313.668 28.5344 316.237 29.2532 318.711 28.5824" stroke="#EB2A00" stroke-width="1.5" stroke-linecap="round" stroke-linejoin="round"/>
<path d="M324.437 9.5486C324.717 9.5486 324.944 9.32147 324.944 9.04129C324.944 8.76111 324.717 8.53398 324.437 8.53398C324.158 8.53398 323.931 8.76111 323.931 9.04129C323.931 9.32147 324.158 9.5486 324.437 9.5486Z" fill="white"/>
<path d="M324.799 11.9662C325.079 11.9662 325.305 11.7391 325.305 11.4589C325.305 11.1787 325.079 10.9516 324.799 10.9516C324.52 10.9516 324.293 11.1787 324.293 11.4589C324.293 11.7391 324.52 11.9662 324.799 11.9662Z" fill="white"/>
<path d="M327.909 9.26249C328.189 9.26249 328.415 9.03537 328.415 8.75519C328.415 8.47501 328.189 8.24788 327.909 8.24788C327.63 8.24788 327.403 8.47501 327.403 8.75519C327.403 9.03537 327.63 9.26249 327.909 9.26249Z" fill="white"/>
<path d="M327.291 11.2785C327.571 11.2785 327.797 11.0514 327.797 10.7712C327.797 10.491 327.571 10.2639 327.291 10.2639C327.012 10.2639 326.785 10.491 326.785 10.7712C326.785 11.0514 327.012 11.2785 327.291 11.2785Z" fill="white"/>
<path d="M326.011 13.6168C326.291 13.6168 326.517 13.3896 326.517 13.1095C326.517 12.8293 326.291 12.6021 326.011 12.6021C325.731 12.6021 325.505 12.8293 325.505 13.1095C325.505 13.3896 325.731 13.6168 326.011 13.6168Z" fill="white"/>
<path d="M323.085 14.3044C323.364 14.3044 323.591 14.0773 323.591 13.7971C323.591 13.5169 323.364 13.2897 323.085 13.2897C322.805 13.2897 322.579 13.5169 322.579 13.7971C322.579 14.0773 322.805 14.3044 323.085 14.3044Z" fill="white"/>
<path d="M320.021 13.6395C320.3 13.6395 320.527 13.4124 320.527 13.1322C320.527 12.8521 320.3 12.6249 320.021 12.6249C319.741 12.6249 319.514 12.8521 319.514 13.1322C319.514 13.4124 319.741 13.6395 320.021 13.6395Z" fill="white"/>
<path d="M316.751 15.4957C317.03 15.4957 317.257 15.2686 317.257 14.9884C317.257 14.7082 317.03 14.4811 316.751 14.4811C316.471 14.4811 316.245 14.7082 316.245 14.9884C316.245 15.2686 316.471 15.4957 316.751 15.4957Z" fill="white"/>
<path d="M314.327 19.0253C314.607 19.0253 314.833 18.7981 314.833 18.5179C314.833 18.2377 314.607 18.0106 314.327 18.0106C314.048 18.0106 313.821 18.2377 313.821 18.5179C313.821 18.7981 314.048 19.0253 314.327 19.0253Z" fill="white"/>
<path d="M311.811 21.3863C312.091 21.3863 312.317 21.1592 312.317 20.879C312.317 20.5988 312.091 20.3717 311.811 20.3717C311.532 20.3717 311.305 20.5988 311.305 20.879C311.305 21.1592 311.532 21.3863 311.811 21.3863Z" fill="white"/>
<path d="M313.801 23.5406C314.08 23.5406 314.307 23.3135 314.307 23.0333C314.307 22.7531 314.08 22.526 313.801 22.526C313.521 22.526 313.295 22.7531 313.295 23.0333C313.295 23.3135 313.521 23.5406 313.801 23.5406Z" fill="white"/>
<path d="M313.39 25.7634C313.669 25.7634 313.896 25.5363 313.896 25.2561C313.896 24.9759 313.669 24.7488 313.39 24.7488C313.11 24.7488 312.884 24.9759 312.884 25.2561C312.884 25.5363 313.11 25.7634 313.39 25.7634Z" fill="white"/>
<path d="M313.915 21.0881C314.194 21.0881 314.421 20.861 314.421 20.5808C314.421 20.3006 314.194 20.0735 313.915 20.0735C313.635 20.0735 313.409 20.3006 313.409 20.5808C313.409 20.861 313.635 21.0881 313.915 21.0881Z" fill="white"/>
<path d="M338.511 16.4406C330.685 16.0632 325.096 15.533 322.801 15.533C322.555 15.533 322.317 15.5077 322.078 15.533C318.479 15.8985 315.648 18.9544 315.648 22.657C316.641 31.2068 324.805 31.0012 329.094 28.6005C332.73 26.4907 335.555 24.4855 338.647 23.882H338.693C340.693 23.8556 342.405 22.1257 342.405 20.1156C342.404 19.1426 342.018 18.2095 341.331 17.5207C340.643 16.8319 339.711 16.4435 338.738 16.4406" fill="#FFCDA9"/>
<path d="M338.511 16.4406C330.685 16.0632 325.096 15.533 322.801 15.533C322.555 15.533 322.317 15.5077 322.078 15.533C318.479 15.8985 315.648 18.9544 315.648 22.657C316.641 31.2068 324.805 31.0012 329.094 28.6005C332.73 26.4907 335.555 24.4855 338.647 23.882H338.693C340.693 23.8556 342.405 22.1257 342.405 20.1156C342.404 19.1426 342.018 18.2095 341.331 17.5207C340.643 16.8319 339.711 16.4435 338.738 16.4406" stroke="#EB2A00" stroke-width="1.5" stroke-linecap="round" stroke-linejoin="round"/>
<path d="M314.898 16.8253C315.178 16.8253 315.404 16.5982 315.404 16.318C315.404 16.0378 315.178 15.8107 314.898 15.8107C314.619 15.8107 314.392 16.0378 314.392 16.318C314.392 16.5982 314.619 16.8253 314.898 16.8253Z" fill="white"/>
<path d="M321.484 11.7149C321.763 11.7149 321.99 11.4878 321.99 11.2076C321.99 10.9274 321.763 10.7003 321.484 10.7003C321.204 10.7003 320.978 10.9274 320.978 11.2076C320.978 11.4878 321.204 11.7149 321.484 11.7149Z" fill="white"/>
<path d="M326.652 7.91006C326.931 7.91006 327.158 7.68294 327.158 7.40275C327.158 7.12257 326.931 6.89545 326.652 6.89545C326.372 6.89545 326.146 7.12257 326.146 7.40275C326.146 7.68294 326.372 7.91006 326.652 7.91006Z" fill="white"/>
<path d="M324.768 24.4206C327.518 24.4206 329.747 23.216 329.747 21.7302C329.747 20.2443 327.518 19.0397 324.768 19.0397C322.018 19.0397 319.789 20.2443 319.789 21.7302C319.789 23.216 322.018 24.4206 324.768 24.4206Z" fill="white" stroke="#EB2A00" stroke-width="1.5" stroke-linecap="round" stroke-linejoin="round"/>
<path d="M316.461 25.66C326.641 33.5894 329.496 21.2721 342.036 21.5678" stroke="#EB2A00" stroke-width="1.5" stroke-linecap="round"/>
<path d="M335.462 19.5056C335.662 19.7005 335.983 19.6958 336.179 19.4949C336.374 19.2941 336.37 18.9732 336.17 18.7783C335.969 18.5834 335.648 18.5883 335.453 18.7892C335.258 18.99 335.262 19.3107 335.462 19.5056Z" fill="white"/>
<path d="M339.546 20.2722C339.747 20.4671 340.068 20.4622 340.263 20.2613C340.458 20.0605 340.454 19.7398 340.254 19.5449C340.053 19.35 339.733 19.3547 339.537 19.5556C339.342 19.7564 339.346 20.0773 339.546 20.2722Z" fill="white"/>
<path d="M332.009 21.8786C332.209 22.0735 332.53 22.0687 332.725 21.8679C332.92 21.667 332.916 21.3462 332.716 21.1513C332.516 20.9564 332.195 20.9613 331.999 21.1621C331.804 21.363 331.808 21.6837 332.009 21.8786Z" fill="white"/>
<path d="M325.001 17.3363C325.201 17.5312 325.522 17.5265 325.717 17.3257C325.912 17.1248 325.908 16.8039 325.708 16.609C325.508 16.4141 325.187 16.4191 324.992 16.6199C324.796 16.8208 324.8 17.1414 325.001 17.3363Z" fill="white"/>
<path d="M331.031 17.9253C331.231 18.1202 331.552 18.1155 331.747 17.9147C331.942 17.7138 331.938 17.3929 331.738 17.198C331.538 17.0031 331.217 17.0081 331.021 17.2089C330.826 17.4097 330.83 17.7304 331.031 17.9253Z" fill="white"/>
<path d="M318.978 25.7418C319.178 25.9367 319.499 25.9317 319.695 25.7309C319.89 25.5301 319.886 25.2094 319.686 25.0145C319.485 24.8196 319.164 24.8243 318.969 25.0252C318.774 25.226 318.778 25.5469 318.978 25.7418Z" fill="white"/>
<path d="M317.69 21.5021C317.891 21.697 318.212 21.6921 318.407 21.4913C318.602 21.2904 318.598 20.9697 318.398 20.7748C318.197 20.5799 317.877 20.5847 317.681 20.7855C317.486 20.9864 317.49 21.3072 317.69 21.5021Z" fill="white"/>
<path d="M323.486 26.7624C323.687 26.9573 324.007 26.9526 324.203 26.7517C324.398 26.5509 324.394 26.23 324.194 26.0351C323.993 25.8402 323.672 25.8451 323.477 26.0459C323.282 26.2468 323.286 26.5675 323.486 26.7624Z" fill="white"/>
</svg>
