<svg
	width="39"
	height="29"
	viewBox="0 0 39 29"
	fill="none"
	xmlns="http://www.w3.org/2000/svg"
>
	<path
		d="M38.4211 24.3684C38.4211 25.5006 37.9713 26.5865 37.1707 27.3871C36.3701 28.1877 35.2843 28.6374 34.1521 28.6374H4.26901C3.1368 28.6374 2.05096 28.1877 1.25036 27.3871C0.449769 26.5865 0 25.5006 0 24.3684V5.15789C0 4.02568 0.449769 2.93984 1.25036 2.13925C2.05096 1.33865 3.1368 0.888883 4.26901 0.888883H34.1521C35.2843 0.888883 36.3701 1.33865 37.1707 2.13925C37.9713 2.93984 38.4211 4.02568 38.4211 5.15789V24.3684Z"
		fill="#DD2E44"
	/>
	<path
		d="M38.4211 21.1667H0V8.35964H38.4211V21.1667Z"
		fill="#FFCC4D"
	/>
	<path
		d="M9.60529 13.6959V16.8976C9.60529 17.7468 9.94261 18.5612 10.5431 19.1616C11.1435 19.7621 11.9579 20.0994 12.807 20.0994C13.6562 20.0994 14.4706 19.7621 15.071 19.1616C15.6715 18.5612 16.0088 17.7468 16.0088 16.8976V13.6959H9.60529Z"
		fill="#EA596E"
	/>
	<path
		d="M12.807 15.8304H16.0088V12.6286H12.807V15.8304Z"
		fill="#F4A2B2"
	/>
	<path
		d="M12.807 15.8304H9.60529V12.6286H12.807V15.8304Z"
		fill="#DD2E44"
	/>
	<path
		d="M16.0088 11.0278C16.0088 11.9125 14.5755 12.6287 12.807 12.6287C11.0386 12.6287 9.60529 11.9125 9.60529 11.0278C9.60529 10.143 11.0386 9.42691 12.807 9.42691C14.5755 9.42691 16.0088 10.143 16.0088 11.0278Z"
		fill="#EA596E"
	/>
	<path
		d="M16.0088 10.2273C16.0088 9.78549 14.5755 9.42689 12.807 9.42689C11.0386 9.42689 9.60529 9.78549 9.60529 10.2273C9.60529 10.6692 11.0386 11.0278 12.807 11.0278C14.5755 11.0278 16.0088 10.6692 16.0088 10.2273Z"
		fill="#FFAC33"
	/>
	<path
		d="M7.47076 20.0994H8.53802V12.6286H7.47076V20.0994ZM18.1433 20.0994H17.076V12.6286H18.1433V20.0994Z"
		fill="#99AAB5"
	/>
	<path
		d="M9.60526 20.0994H6.4035V19.0321H9.60526V20.0994ZM19.2105 20.0994H16.0088V19.0321H19.2105V20.0994ZM8.53801 12.6286H7.47075V11.5614H8.53801V12.6286ZM18.1433 12.6286H17.076V11.5614H18.1433V12.6286Z"
		fill="#66757F"
	/>
</svg>
