<svg width="1380" height="40" viewBox="0 0 1380 40" fill="none" xmlns="http://www.w3.org/2000/svg">
<path d="M394.944 14.4813C386.783 15.3797 386.761 18.8029 387.751 22.5384L391.965 25.943C399.155 28.5609 401.029 23.345 402.455 17.4713L394.944 14.4813Z" fill="#FFCDA9" stroke="#FFCDA9" stroke-width="1.5" stroke-linecap="round" stroke-linejoin="round"/>
<path d="M402.643 17.8234C405.598 17.8713 407.964 20.9716 407.927 24.7469C407.892 28.3987 405.673 31.3688 402.817 31.4937C402.348 31.4937 386.604 31.5083 386.101 31.5163C383.599 31.5734 380.821 31.6239 379.382 30.1741C377.881 28.6592 377.869 25.127 378.121 22.945C378.58 19.0021 383.004 15.5072 387.567 14.3975C387.978 14.2965 390.52 13.575 394.057 14.258M391.922 25.7237C392.708 26.2667 393.636 26.6171 394.614 26.7409C395.593 26.8647 396.591 26.7577 397.511 26.4304C398.431 26.1031 399.242 25.5664 399.867 24.8721C400.491 24.1778 400.908 23.3493 401.077 22.4666C401.13 22.1822 402.98 11.4129 407.879 12.0029C408.773 12.1092 409.758 12.3019 410.428 11.757C410.629 11.5937 410.793 11.396 410.909 11.1753C411.026 10.9546 411.094 10.7151 411.108 10.4707C411.122 10.2262 411.084 9.98164 410.994 9.75086C410.903 9.52009 410.764 9.30769 410.583 9.12584C410.218 8.75749 409.706 8.53573 409.161 8.50931C408.615 8.4829 408.08 8.65399 407.674 8.98498C408.04 8.65276 408.44 8.05742 408.459 7.58832C408.469 7.34355 408.426 7.09935 408.332 6.86968C408.238 6.64002 408.095 6.42939 407.912 6.24982C407.728 6.07026 407.507 5.92529 407.261 5.82319C407.016 5.72109 406.75 5.66387 406.48 5.65479C405.505 5.62157 404.501 6.1797 404.416 7.02089C403.661 14.5331 394.636 13.5152 391.102 15.1005C387.567 16.6872 386.065 19.2586 387.708 22.2712" fill="#FFCDA9"/>
<path d="M402.643 17.8234C405.598 17.8713 407.964 20.9716 407.927 24.7469C407.892 28.3987 405.673 31.3688 402.817 31.4937C402.348 31.4937 386.604 31.5083 386.101 31.5163C383.599 31.5734 380.821 31.6239 379.382 30.1741C377.881 28.6592 377.869 25.127 378.121 22.945C378.58 19.0021 383.004 15.5072 387.567 14.3975C387.978 14.2965 390.52 13.575 394.057 14.258M391.922 25.7237C392.708 26.2667 393.636 26.6171 394.614 26.7409C395.593 26.8647 396.591 26.7577 397.511 26.4304C398.431 26.1031 399.242 25.5664 399.867 24.8721C400.491 24.1778 400.908 23.3493 401.077 22.4666C401.13 22.1822 402.98 11.4129 407.879 12.0029C408.773 12.1092 409.758 12.3019 410.428 11.757C410.629 11.5937 410.793 11.396 410.909 11.1753C411.026 10.9546 411.094 10.7151 411.108 10.4707C411.122 10.2262 411.084 9.98164 410.994 9.75086C410.903 9.52009 410.764 9.30769 410.583 9.12584C410.218 8.75749 409.706 8.53573 409.161 8.50931C408.615 8.4829 408.08 8.65399 407.674 8.98498C408.04 8.65276 408.44 8.05742 408.459 7.58832C408.469 7.34355 408.426 7.09935 408.332 6.86968C408.238 6.64002 408.095 6.42939 407.912 6.24982C407.728 6.07026 407.507 5.92529 407.261 5.82319C407.016 5.72109 406.75 5.66387 406.48 5.65479C405.505 5.62157 404.501 6.1797 404.416 7.02089C403.661 14.5331 394.636 13.5152 391.102 15.1005C387.567 16.6872 386.065 19.2586 387.708 22.2712" stroke="#EB2A00" stroke-width="1.5" stroke-linecap="round" stroke-linejoin="round"/>
<path d="M375 33.5801H410.998C410.976 34.8532 410.708 35.9455 409.232 36.1661H377.183C375.007 35.8286 375.353 34.5781 375 33.5801V33.5801Z" stroke="#EB2A00" stroke-width="1.5" stroke-linecap="round" stroke-linejoin="round"/>
<path d="M389.895 20.2168C389.89 19.8629 389.962 19.5116 390.108 19.1833C390.254 18.855 390.471 18.5563 390.745 18.3045C391.019 18.0529 391.346 17.853 391.705 17.7166C392.065 17.5802 392.451 17.5099 392.841 17.5098" stroke="white" stroke-width="1.5" stroke-linecap="round" stroke-linejoin="round"/>
<path d="M440.472 24.3388C444.067 29.7185 453.579 32.1852 462.125 31.8545C465.124 31.739 468.017 31.1409 470.58 30.0239C473.713 28.66 476.055 26.7248 477.998 24.3878L478.05 24.4859C478.05 24.4859 482.319 30.2675 485.196 29.5808C486.494 29.2691 482.251 21.3705 482.251 19.5414C482.251 18.054 487.459 10.8468 484.759 9.45443C484.658 9.40977 484.545 9.39321 484.433 9.40692C482.536 9.48603 477.67 15.4876 477.67 15.4876H477.615C474.884 12.0224 470.452 9.50981 465.288 8.46552C463.283 8.06756 461.23 7.90166 459.179 7.97183C450.448 8.23291 442.58 12.6949 440.198 19.3942L440.252 19.4923L443.578 21.6189L440.472 24.2882" fill="#FFCDA9"/>
<path d="M440.472 24.3388C444.067 29.7185 453.579 32.1852 462.125 31.8545C465.124 31.739 468.017 31.1409 470.58 30.0239C473.713 28.66 476.055 26.7248 477.998 24.3878L478.05 24.4859C478.05 24.4859 482.319 30.2675 485.196 29.5808C486.494 29.2691 482.251 21.3705 482.251 19.5414C482.251 18.054 487.459 10.8468 484.759 9.45443C484.658 9.40977 484.545 9.39321 484.433 9.40692V9.40692C482.536 9.48603 477.67 15.4876 477.67 15.4876H477.615C474.884 12.0224 470.452 9.50981 465.288 8.46552C463.283 8.06756 461.23 7.90166 459.179 7.97183C450.448 8.23291 442.58 12.6949 440.198 19.3942L440.252 19.4923L443.578 21.6189L440.472 24.2882" stroke="#EB2A00" stroke-width="1.5" stroke-linecap="round" stroke-linejoin="round"/>
<path d="M451.146 18.6537C452.466 18.6537 453.536 17.698 453.536 16.5192C453.536 15.3403 452.466 14.3847 451.146 14.3847C449.827 14.3847 448.757 15.3403 448.757 16.5192C448.757 17.698 449.827 18.6537 451.146 18.6537Z" fill="white" stroke="#EB2A00" stroke-width="1.5" stroke-linecap="round" stroke-linejoin="round"/>
<path d="M456.29 14.2629C458.052 15.3007 459.404 16.8074 460.153 18.5696C460.903 20.3317 461.013 22.2599 460.467 24.0809C459.921 25.9019 458.747 27.5232 457.112 28.7151C455.476 29.907 453.462 30.6091 451.355 30.7217" stroke="#EB2A00" stroke-width="1.5" stroke-linecap="round" stroke-linejoin="round"/>
<path d="M458.214 10.9654C460.808 10.335 463.57 10.6324 465.93 11.7962" stroke="white" stroke-width="1.5" stroke-linecap="round" stroke-linejoin="round"/>
<path d="M520.718 29.449C519.736 29.449 518.917 30.0322 518.613 30.8302C518.34 30.7202 518.045 30.6621 517.746 30.6594C516.506 30.6594 515.5 31.5734 515.5 32.7001V32.786C514.351 32.8752 513.441 33.4369 513.441 34.5045C513.441 35.6323 514.446 36.1661 515.687 36.1661H522.082" fill="#FFCDA9"/>
<path d="M520.718 29.449C519.736 29.449 518.917 30.0322 518.613 30.8302C518.34 30.7202 518.045 30.6621 517.746 30.6594C516.506 30.6594 515.5 31.5734 515.5 32.7001V32.786C514.351 32.8752 513.441 33.4369 513.441 34.5045C513.441 35.6323 514.446 36.1661 515.687 36.1661H522.082" stroke="#EB2A00" stroke-width="1.5" stroke-linecap="round" stroke-linejoin="round"/>
<path d="M539.65 15.757V32.7646C539.651 33.2111 539.555 33.6534 539.368 34.0662C539.18 34.4791 538.905 34.8543 538.557 35.1703C538.209 35.4864 537.796 35.737 537.341 35.9079C536.886 36.0788 536.398 36.1665 535.906 36.1661H524.674C524.181 36.1667 523.693 36.079 523.238 35.9082C522.783 35.7374 522.37 35.4868 522.022 35.1707C521.674 34.8547 521.398 34.4794 521.21 34.0665C521.023 33.6536 520.927 33.2112 520.929 32.7646V15.757M525.421 21.8791V29.3631M530.067 21.2003V28.6832M535.157 21.1992V29.3631" stroke="#EB2A00" stroke-width="1.5" stroke-linecap="round" stroke-linejoin="round"/>
<path d="M528.207 5.65446C525.208 5.65446 522.733 7.70052 522.356 10.3319C522.23 10.3191 522.111 10.289 521.982 10.289C521.078 10.2876 520.211 10.6112 519.57 11.1889C518.929 11.7666 518.567 12.5512 518.564 13.3704C518.567 14.1897 518.929 14.9744 519.569 15.5523C520.21 16.1302 521.077 16.4541 521.981 16.453C522.407 16.453 522.798 16.3713 523.174 16.2403V20.9178C523.174 21.7663 523.925 22.4483 524.859 22.4483C525.08 22.4486 525.3 22.4092 525.505 22.3323C525.709 22.2555 525.895 22.1427 526.052 22.0005C526.209 21.8582 526.333 21.6894 526.417 21.5036C526.501 21.3178 526.544 21.1187 526.544 20.9178V16.1554C527.072 16.2951 527.628 16.3896 528.206 16.3896C529.593 16.3912 530.937 15.9467 531.997 15.1351C532.637 15.569 533.431 15.8364 534.29 15.8364C534.895 15.8364 535.465 15.7022 535.974 15.4745C536.44 15.9264 537.044 16.2407 537.709 16.3767C538.374 16.5126 539.069 16.4638 539.703 16.2366C540.337 16.0094 540.881 15.6143 541.263 15.1029C541.646 14.5915 541.85 13.9874 541.849 13.3694C541.849 12.8908 541.726 12.4187 541.49 11.9906C541.254 11.5626 540.911 11.1904 540.489 10.9036C540.066 10.6168 539.575 10.4234 539.056 10.3387C538.536 10.254 538.002 10.2804 537.496 10.4157C537.144 9.93706 536.668 9.54479 536.108 9.27396C535.549 9.00313 534.924 8.86218 534.29 8.86372C534.067 8.86372 533.847 8.87446 533.634 8.90668C533.181 7.94143 532.425 7.11832 531.46 6.53985C530.495 5.96137 529.363 5.65309 528.206 5.65338L528.207 5.65446Z" fill="#FFCDA9" stroke="#EB2A00" stroke-width="1.5" stroke-linecap="round" stroke-linejoin="round"/>
<path d="M539.65 17.7977C541.308 17.7977 542.645 19.0114 542.645 20.5194V28.0023C542.646 28.3595 542.57 28.7135 542.42 29.0438C542.27 29.3742 542.049 29.6744 541.771 29.9273C541.493 30.1802 541.162 30.3808 540.798 30.5175C540.434 30.6542 540.044 30.7243 539.65 30.7239" stroke="#EB2A00" stroke-width="1.5" stroke-linecap="round" stroke-linejoin="round"/>
<path d="M537.28 29.4167V31.1084C537.282 31.4986 537.198 31.8852 537.035 32.2461C536.871 32.607 536.63 32.935 536.327 33.2115C536.023 33.4879 535.662 33.7072 535.264 33.8568C534.867 34.0065 534.441 34.0835 534.01 34.0835H533.313" stroke="white" stroke-width="1.5" stroke-linecap="round" stroke-linejoin="round"/>
<path d="M580.224 9.96911C573.721 11.7126 575.451 19.6492 576.444 21.9356C577.837 25.141 577.801 34.2415 582.304 34.2415H586.178C588.493 35.6494 590.446 35.0083 591.565 34.2415H594.587C600.945 32.1185 598.141 26.3854 599.798 22.1745C601.389 18.1295 601.874 8.16533 596.451 9.62972L591.538 10.9584C587.334 9.3381 584.453 8.83782 580.224 9.97037V9.96911Z" fill="#FFCDA9" stroke="#EB2A00" stroke-width="1.5" stroke-linecap="round" stroke-linejoin="round"/>
<path d="M587.029 9.79938C578.068 14.6765 582.509 30.8891 585.853 34.0995M591.763 10.991C596.24 16.9529 594.689 27.7831 591.505 34.0731M587.428 9.65609C591.415 2.59307 600.583 6.06864 596.992 6.62549C593.07 7.14085 591.814 8.8755 591.236 10.7497L587.428 9.65609Z" stroke="#EB2A00" stroke-width="1.5" stroke-linecap="round" stroke-linejoin="round"/>
<path d="M653.485 5.25447C654.013 5.2545 654.52 5.06561 654.895 4.7289C655.27 4.39218 655.483 3.93486 655.488 3.45637C655.493 2.97759 655.289 2.51634 654.921 2.17304C654.553 1.82975 654.05 1.6322 653.522 1.62341M653.312 8.86811C652.784 8.86813 652.278 8.67925 651.903 8.34253C651.528 8.00581 651.315 7.54849 651.309 7.07001C651.304 6.59122 651.508 6.12997 651.876 5.78667C652.244 5.44338 652.747 5.24583 653.275 5.23705M653.485 12.4992C654.013 12.4992 654.52 12.3103 654.895 11.9736C655.27 11.6369 655.483 11.1795 655.488 10.7011C655.493 10.2223 655.289 9.76103 654.921 9.41774C654.553 9.07444 654.05 8.87689 653.522 8.86811M661.496 5.25447C662.024 5.2545 662.53 5.06561 662.905 4.7289C663.281 4.39218 663.494 3.93486 663.499 3.45637C663.504 2.97759 663.3 2.51634 662.932 2.17304C662.564 1.82975 662.061 1.6322 661.533 1.62341M661.323 8.86811C660.795 8.86813 660.289 8.67925 659.914 8.34253C659.539 8.00581 659.325 7.54849 659.32 7.07001C659.315 6.59122 659.519 6.12997 659.887 5.78667C660.255 5.44338 660.758 5.24583 661.286 5.23705M661.496 12.4992C662.024 12.4992 662.53 12.3103 662.905 11.9736C663.281 11.6369 663.494 11.1795 663.499 10.7011C663.504 10.2223 663.3 9.76103 662.932 9.41774C662.564 9.07444 662.061 8.87689 661.533 8.86811M646.094 5.25447C646.622 5.2545 647.129 5.06561 647.504 4.7289C647.879 4.39218 648.092 3.93486 648.097 3.45637C648.102 2.97783 647.899 2.5168 647.531 2.17355C647.163 1.83029 646.661 1.63258 646.133 1.62341M645.923 8.86811C645.395 8.86813 644.889 8.67925 644.514 8.34253C644.139 8.00581 643.925 7.54849 643.92 7.07001C643.915 6.59147 644.119 6.13043 644.486 5.78718C644.854 5.44392 645.357 5.24621 645.885 5.23705M646.094 12.4992C646.622 12.4992 647.129 12.3103 647.504 11.9736C647.879 11.6369 648.092 11.1795 648.097 10.7011C648.102 10.2225 647.899 9.76149 647.531 9.41824C647.163 9.07498 646.661 8.87727 646.133 8.86811" stroke="#FFCDA9" stroke-width="1.5" stroke-linecap="round" stroke-linejoin="round"/>
<path d="M646.875 33.934H661.291V29.6116C658.22 30.8404 656.43 31.0321 653.94 31.0786C650.827 31.1367 648.717 30.6487 646.875 30.2304V33.934Z" stroke="#EB2A00" stroke-width="1.5" stroke-linecap="round" stroke-linejoin="round"/>
<path d="M672.227 18.2856C669.536 27.3982 659.248 32.8055 649.196 30.364C646.006 29.5919 643.097 28.0709 640.762 25.9544C638.428 23.8379 636.75 21.2007 635.898 18.3089L672.227 18.2856Z" fill="#FFCDA9" stroke="#EB2A00" stroke-width="1.5" stroke-linecap="round" stroke-linejoin="round"/>
<path d="M635.889 15.3735H672.234V18.364H635.889V15.3735Z" stroke="#EB2A00" stroke-width="1.5" stroke-linecap="round" stroke-linejoin="round"/>
<path d="M659.365 15.3648C671.862 15.8122 668.72 7.73958 677.957 7.01046C678.87 6.93784 679.351 6.92186 680.632 6.99594L680.681 6.98141C679.086 6.12158 676.148 4.66625 673.695 5.28353C672.441 5.60016 670.486 6.8231 669.177 9.15424C665.881 15.696 662.672 15.3517 660.061 15.3634L659.365 15.3648Z" stroke="#EB2A00" stroke-width="1.5" stroke-linecap="round" stroke-linejoin="round"/>
<path d="M667.056 20.8521C665.922 23.9893 662.885 26.1679 659.361 26.7605" stroke="white" stroke-width="1.5" stroke-linecap="round" stroke-linejoin="round"/>
<path d="M727.884 15.747C727.871 10.9028 723.565 6.98149 718.254 6.98823C712.948 6.99947 708.651 10.9198 708.651 15.7594L708.696 15.3885V20.8541L708.783 21.4352C708.781 20.5046 708.449 19.5993 707.835 18.8536C707.22 18.1079 706.358 17.5616 705.374 17.2958C704.39 17.0299 703.338 17.0586 702.373 17.3777C701.409 17.6968 700.584 18.2893 700.02 19.0671C698.576 21.0644 699.475 23.5415 701.349 25.0779L701.106 24.8587L710.16 33.2568H727.617L727.859 15.9707L727.884 15.747Z" fill="#FFCDA9" stroke="#EB2A00" stroke-width="1.5" stroke-linecap="round" stroke-linejoin="round"/>
<path d="M726.255 33.2455H721.656V39.0001H726.255V33.2455Z" stroke="#EB2A00" stroke-width="1.5" stroke-linecap="round" stroke-linejoin="round"/>
<path d="M713.839 8.06268L727.745 20.6597L727.703 20.699M709.089 13.7992L727.617 31.0089M700.574 18.5276L716.705 33.1409M704.767 27.9855L724.833 9.4901M711.272 33.2567L727.813 18.3826" stroke="#EB2A00" stroke-width="1.5" stroke-linecap="round" stroke-linejoin="round"/>
<path d="M721.127 10.1026C721.939 10.2996 722.674 10.6993 723.248 11.2562C723.822 11.8131 724.213 12.5049 724.375 13.253" stroke="white" stroke-width="1.5" stroke-linecap="round" stroke-linejoin="round"/>
<path d="M782.787 18.1397C783.367 16.5476 784.221 15.0486 785.317 13.6981C785.332 13.6818 785.344 13.675 785.357 13.6627C787.16 12.0873 787.242 9.32877 785.528 7.66899C784.697 6.86552 783.548 6.39416 782.334 6.35867C781.12 6.32317 779.94 6.72641 779.053 7.47967L778.848 7.65669C771.395 13.4217 765.848 17.324 763.757 19.105C763.532 19.2956 763.295 19.4618 763.096 19.6674C760.13 22.7636 760.155 27.487 763.313 30.5465C765.648 32.8095 768.858 33.6237 771.949 32.8639" fill="#FFCDA9"/>
<path d="M782.787 18.1397C783.367 16.5476 784.221 15.0486 785.317 13.6981C785.332 13.6818 785.344 13.675 785.357 13.6627C787.16 12.0873 787.242 9.32877 785.528 7.66899C784.697 6.86552 783.548 6.39416 782.334 6.35867C781.12 6.32317 779.94 6.72641 779.053 7.47967L778.848 7.65669C771.395 13.4217 765.848 17.324 763.757 19.105C763.532 19.2956 763.295 19.4618 763.096 19.6674C760.13 22.7636 760.155 27.487 763.313 30.5465C765.648 32.8095 768.858 33.6237 771.949 32.8639" stroke="#EB2A00" stroke-width="1.5" stroke-linecap="round" stroke-linejoin="round"/>
<path d="M779.103 11.3057C779.452 11.3057 779.735 11.0485 779.735 10.7311C779.735 10.4138 779.452 10.1566 779.103 10.1566C778.754 10.1566 778.471 10.4138 778.471 10.7311C778.471 11.0485 778.754 11.3057 779.103 11.3057Z" fill="white"/>
<path d="M779.555 14.044C779.904 14.044 780.188 13.7867 780.188 13.4694C780.188 13.152 779.904 12.8948 779.555 12.8948C779.206 12.8948 778.923 13.152 778.923 13.4694C778.923 13.7867 779.206 14.044 779.555 14.044Z" fill="white"/>
<path d="M783.441 10.9817C783.79 10.9817 784.073 10.7244 784.073 10.4071C784.073 10.0898 783.79 9.83252 783.441 9.83252C783.092 9.83252 782.808 10.0898 782.808 10.4071C782.808 10.7244 783.092 10.9817 783.441 10.9817Z" fill="white"/>
<path d="M782.669 13.2651C783.018 13.2651 783.301 13.0079 783.301 12.6906C783.301 12.3732 783.018 12.116 782.669 12.116C782.32 12.116 782.037 12.3732 782.037 12.6906C782.037 13.0079 782.32 13.2651 782.669 13.2651Z" fill="white"/>
<path d="M781.069 15.9135C781.418 15.9135 781.701 15.6562 781.701 15.3389C781.701 15.0215 781.418 14.7643 781.069 14.7643C780.72 14.7643 780.437 15.0215 780.437 15.3389C780.437 15.6562 780.72 15.9135 781.069 15.9135Z" fill="white"/>
<path d="M777.413 16.6922C777.762 16.6922 778.046 16.435 778.046 16.1176C778.046 15.8003 777.762 15.543 777.413 15.543C777.064 15.543 776.781 15.8003 776.781 16.1176C776.781 16.435 777.064 16.6922 777.413 16.6922Z" fill="white"/>
<path d="M773.585 15.9392C773.934 15.9392 774.217 15.682 774.217 15.3646C774.217 15.0473 773.934 14.79 773.585 14.79C773.236 14.79 772.952 15.0473 772.952 15.3646C772.952 15.682 773.236 15.9392 773.585 15.9392Z" fill="white"/>
<path d="M769.5 18.0416C769.849 18.0416 770.132 17.7843 770.132 17.467C770.132 17.1496 769.849 16.8924 769.5 16.8924C769.151 16.8924 768.867 17.1496 768.867 17.467C768.867 17.7843 769.151 18.0416 769.5 18.0416Z" fill="white"/>
<path d="M766.472 22.0393C766.821 22.0393 767.104 21.7819 767.104 21.4646C767.104 21.1473 766.821 20.89 766.472 20.89C766.122 20.89 765.839 21.1473 765.839 21.4646C765.839 21.7819 766.122 22.0393 766.472 22.0393Z" fill="white"/>
<path d="M763.328 24.7134C763.677 24.7134 763.96 24.4562 763.96 24.1389C763.96 23.8215 763.677 23.5643 763.328 23.5643C762.979 23.5643 762.696 23.8215 762.696 24.1389C762.696 24.4562 762.979 24.7134 763.328 24.7134Z" fill="white"/>
<path d="M765.814 27.1534C766.163 27.1534 766.446 26.8961 766.446 26.5788C766.446 26.2615 766.163 26.0042 765.814 26.0042C765.464 26.0042 765.181 26.2615 765.181 26.5788C765.181 26.8961 765.464 27.1534 765.814 27.1534Z" fill="white"/>
<path d="M765.3 29.671C765.649 29.671 765.932 29.4138 765.932 29.0964C765.932 28.7791 765.649 28.5219 765.3 28.5219C764.951 28.5219 764.668 28.7791 764.668 29.0964C764.668 29.4138 764.951 29.671 765.3 29.671Z" fill="white"/>
<path d="M765.956 24.3757C766.305 24.3757 766.588 24.1184 766.588 23.8011C766.588 23.4838 766.305 23.2265 765.956 23.2265C765.607 23.2265 765.324 23.4838 765.324 23.8011C765.324 24.1184 765.607 24.3757 765.956 24.3757Z" fill="white"/>
<path d="M796.687 19.1118C786.909 18.6843 779.926 18.0838 777.059 18.0838C776.751 18.0838 776.454 18.0552 776.155 18.0838C771.659 18.4977 768.122 21.9589 768.122 26.1527C769.363 35.8363 779.563 35.6035 784.922 32.8843C789.464 30.4948 792.994 28.2236 796.857 27.5401H796.914C799.413 27.5101 801.552 25.5508 801.552 23.2742C801.551 22.1722 801.068 21.1153 800.21 20.3351C799.351 19.555 798.186 19.1151 796.971 19.1118" fill="#FFCDA9"/>
<path d="M796.687 19.1118C786.909 18.6843 779.926 18.0838 777.059 18.0838C776.751 18.0838 776.454 18.0552 776.155 18.0838C771.659 18.4977 768.122 21.9589 768.122 26.1527C769.363 35.8363 779.563 35.6035 784.922 32.8843C789.464 30.4947 792.994 28.2236 796.857 27.5401H796.914C799.413 27.5101 801.552 25.5508 801.552 23.2742C801.551 22.1722 801.068 21.1153 800.21 20.3351C799.351 19.555 798.186 19.1151 796.971 19.1118" stroke="#EB2A00" stroke-width="1.5" stroke-linecap="round" stroke-linejoin="round"/>
<path d="M767.185 19.5476C767.534 19.5476 767.817 19.2903 767.817 18.973C767.817 18.6556 767.534 18.3984 767.185 18.3984C766.836 18.3984 766.552 18.6556 766.552 18.973C766.552 19.2903 766.836 19.5476 767.185 19.5476Z" fill="white"/>
<path d="M775.412 13.7593C775.762 13.7593 776.045 13.5021 776.045 13.1848C776.045 12.8674 775.762 12.6102 775.412 12.6102C775.063 12.6102 774.78 12.8674 774.78 13.1848C774.78 13.5021 775.063 13.7593 775.412 13.7593Z" fill="white"/>
<path d="M781.87 9.44984C782.219 9.44984 782.502 9.19259 782.502 8.87525C782.502 8.55791 782.219 8.30066 781.87 8.30066C781.521 8.30066 781.238 8.55791 781.238 8.87525C781.238 9.19259 781.521 9.44984 781.87 9.44984Z" fill="white"/>
<path d="M779.516 28.1501C782.952 28.1501 785.737 26.7858 785.737 25.1028C785.737 23.4199 782.952 22.0555 779.516 22.0555C776.08 22.0555 773.295 23.4199 773.295 25.1028C773.295 26.7858 776.08 28.1501 779.516 28.1501Z" fill="white" stroke="#EB2A00" stroke-width="1.5" stroke-linecap="round" stroke-linejoin="round"/>
<path d="M769.137 29.5539C781.856 38.535 785.423 24.5841 801.091 24.919" stroke="#EB2A00" stroke-width="1.5" stroke-linecap="round"/>
<path d="M792.878 22.5833C793.128 22.8041 793.528 22.7987 793.773 22.5712C794.017 22.3437 794.012 21.9803 793.761 21.7596C793.511 21.5388 793.11 21.5444 792.866 21.7719C792.622 21.9993 792.627 22.3626 792.878 22.5833Z" fill="white"/>
<path d="M797.98 23.4516C798.231 23.6724 798.632 23.6667 798.876 23.4393C799.12 23.2118 799.115 22.8486 798.864 22.6279C798.614 22.4071 798.213 22.4124 797.969 22.6399C797.725 22.8674 797.73 23.2309 797.98 23.4516Z" fill="white"/>
<path d="M788.563 25.271C788.813 25.4917 789.214 25.4863 789.458 25.2588C789.702 25.0314 789.697 24.6679 789.446 24.4472C789.196 24.2265 788.795 24.232 788.551 24.4595C788.307 24.687 788.312 25.0502 788.563 25.271Z" fill="white"/>
<path d="M779.807 20.1263C780.057 20.347 780.458 20.3417 780.702 20.1142C780.946 19.8868 780.941 19.5233 780.691 19.3025C780.44 19.0818 780.04 19.0874 779.795 19.3149C779.551 19.5424 779.557 19.9056 779.807 20.1263Z" fill="white"/>
<path d="M787.341 20.7934C787.591 21.0141 787.992 21.0088 788.236 20.7813C788.48 20.5538 788.475 20.1903 788.224 19.9696C787.974 19.7489 787.573 19.7545 787.329 19.9819C787.085 20.2094 787.09 20.5726 787.341 20.7934Z" fill="white"/>
<path d="M772.282 29.6465C772.533 29.8672 772.934 29.8617 773.178 29.6342C773.422 29.4067 773.416 29.0435 773.166 28.8227C772.916 28.602 772.515 28.6074 772.271 28.8349C772.027 29.0623 772.032 29.4258 772.282 29.6465Z" fill="white"/>
<path d="M770.673 24.8446C770.924 25.0653 771.325 25.0597 771.569 24.8323C771.813 24.6048 771.808 24.2415 771.557 24.0208C771.307 23.8001 770.906 23.8054 770.662 24.0329C770.418 24.2604 770.423 24.6238 770.673 24.8446Z" fill="white"/>
<path d="M777.915 30.8024C778.165 31.0232 778.566 31.0179 778.81 30.7904C779.054 30.5629 779.049 30.1994 778.799 29.9787C778.548 29.7579 778.147 29.7635 777.903 29.991C777.659 30.2185 777.665 30.5817 777.915 30.8024Z" fill="white"/>
<path d="M846.035 34.7343C855.77 34.7343 863.662 27.58 863.662 18.7546C863.662 9.92928 855.77 2.77484 846.035 2.77484C836.299 2.77484 828.407 9.92928 828.407 18.7546C828.407 27.58 836.299 34.7343 846.035 34.7343Z" fill="#FFCDA9" stroke="#EB2A00" stroke-width="1.5" stroke-linecap="round" stroke-linejoin="round"/>
<path d="M847.68 6.26212C849.551 6.24871 851.392 6.68547 853.016 7.52767C854.64 8.36987 855.988 9.58746 856.923 11.0563M839.5 7.93186C840.884 6.67661 842.762 5.97139 844.72 5.97125" stroke="white" stroke-width="1.5" stroke-linecap="round" stroke-linejoin="round"/>
<path d="M839.019 11.6676L858.689 24.4107" stroke="#EB2A00" stroke-width="1.5" stroke-linecap="round" stroke-linejoin="round"/>
<path d="M843.597 13.5657C844.009 13.0433 843.876 12.3174 843.3 11.9443C842.724 11.5712 841.924 11.6922 841.512 12.2145L840.394 13.6326C839.982 14.1549 840.115 14.8808 840.691 15.2539C841.267 15.627 842.068 15.5061 842.479 14.9838L843.597 13.5657Z" fill="white" stroke="#EB2A00" stroke-width="1.5" stroke-linecap="round" stroke-linejoin="round"/>
<path d="M846.487 14.028L843.878 17.3367" stroke="#EB2A00" stroke-width="1.5" stroke-linecap="round" stroke-linejoin="round"/>
<path d="M849.944 17.5207C850.356 16.9984 850.223 16.2725 849.647 15.8994C849.071 15.5263 848.27 15.6473 847.859 16.1696L846.741 17.5877C846.329 18.11 846.462 18.8359 847.038 19.209C847.614 19.5821 848.414 19.4612 848.826 18.9389L849.944 17.5207Z" fill="white" stroke="#EB2A00" stroke-width="1.5" stroke-linecap="round" stroke-linejoin="round"/>
<path d="M853.006 18.1917L850.397 21.5017" stroke="#EB2A00" stroke-width="1.5" stroke-linecap="round" stroke-linejoin="round"/>
<path d="M856.347 21.7808C856.759 21.2585 856.626 20.5325 856.05 20.1594C855.474 19.7863 854.673 19.9073 854.261 20.4297L853.143 21.8478C852.732 22.3701 852.865 23.0959 853.441 23.469C854.016 23.8421 854.817 23.7212 855.229 23.1989L856.347 21.7808Z" fill="white" stroke="#EB2A00" stroke-width="1.5" stroke-linecap="round" stroke-linejoin="round"/>
<path d="M858.949 22.191L856.34 25.4998M826.954 12.9045L848.062 26.978M836.62 16.9476L833.996 20.2469" stroke="#EB2A00" stroke-width="1.5" stroke-linecap="round" stroke-linejoin="round"/>
<path d="M839.709 20.3974C840.13 19.8677 840.007 19.134 839.433 18.7586C838.858 18.3833 838.051 18.5085 837.63 19.0382L836.531 20.4193C836.11 20.949 836.234 21.6827 836.808 22.0581C837.382 22.4334 838.189 22.3082 838.61 21.7785L839.709 20.3974Z" fill="white" stroke="#EB2A00" stroke-width="1.5" stroke-linecap="round" stroke-linejoin="round"/>
<path d="M842.095 20.6348L839.471 23.934" stroke="#EB2A00" stroke-width="1.5" stroke-linecap="round" stroke-linejoin="round"/>
<path d="M845.197 24.0293C845.619 23.4996 845.495 22.7659 844.921 22.3906C844.347 22.0153 843.54 22.1404 843.118 22.6701L842.02 24.0513C841.598 24.581 841.722 25.3147 842.296 25.69C842.87 26.0654 843.677 25.9402 844.099 25.4105L845.197 24.0293Z" fill="white" stroke="#EB2A00" stroke-width="1.5" stroke-linecap="round" stroke-linejoin="round"/>
<path d="M847.745 24.3043L845.12 27.6035" stroke="#EB2A00" stroke-width="1.5" stroke-linecap="round" stroke-linejoin="round"/>
<path d="M910.944 14.4813C902.783 15.3797 902.761 18.8029 903.751 22.5384L907.965 25.943C915.155 28.5609 917.029 23.345 918.455 17.4713L910.944 14.4813Z" fill="#FFCDA9" stroke="#FFCDA9" stroke-width="1.5" stroke-linecap="round" stroke-linejoin="round"/>
<path d="M918.643 17.8234C921.598 17.8713 923.964 20.9716 923.927 24.7469C923.892 28.3987 921.673 31.3688 918.817 31.4937C918.348 31.4937 902.604 31.5083 902.101 31.5163C899.599 31.5734 896.821 31.6239 895.382 30.1741C893.881 28.6592 893.869 25.127 894.121 22.945C894.58 19.0021 899.004 15.5072 903.567 14.3975C903.978 14.2965 906.52 13.575 910.057 14.258M907.922 25.7237C908.708 26.2667 909.636 26.6171 910.614 26.7409C911.593 26.8647 912.591 26.7577 913.511 26.4304C914.431 26.1031 915.242 25.5664 915.867 24.8721C916.491 24.1778 916.908 23.3493 917.077 22.4666C917.13 22.1822 918.98 11.4129 923.879 12.0029C924.773 12.1092 925.758 12.3019 926.428 11.757C926.629 11.5937 926.793 11.396 926.909 11.1753C927.026 10.9546 927.094 10.7151 927.108 10.4707C927.122 10.2262 927.084 9.98164 926.994 9.75086C926.903 9.52009 926.764 9.30769 926.583 9.12584C926.218 8.75749 925.706 8.53573 925.161 8.50931C924.615 8.4829 924.08 8.65399 923.674 8.98498C924.04 8.65276 924.44 8.05742 924.459 7.58832C924.469 7.34355 924.426 7.09935 924.332 6.86968C924.238 6.64002 924.095 6.42939 923.912 6.24982C923.728 6.07026 923.507 5.92529 923.261 5.82319C923.016 5.72109 922.75 5.66387 922.48 5.65479C921.505 5.62157 920.501 6.1797 920.416 7.02089C919.661 14.5331 910.636 13.5152 907.102 15.1005C903.567 16.6872 902.065 19.2586 903.708 22.2712" fill="#FFCDA9"/>
<path d="M918.643 17.8234C921.598 17.8713 923.964 20.9716 923.927 24.7469C923.892 28.3987 921.673 31.3688 918.817 31.4937C918.348 31.4937 902.604 31.5083 902.101 31.5163C899.599 31.5734 896.821 31.6239 895.382 30.1741C893.881 28.6592 893.869 25.127 894.121 22.945C894.58 19.0021 899.004 15.5072 903.567 14.3975C903.978 14.2965 906.52 13.575 910.057 14.258M907.922 25.7237C908.708 26.2667 909.636 26.6171 910.614 26.7409C911.593 26.8647 912.591 26.7577 913.511 26.4304C914.431 26.1031 915.242 25.5664 915.867 24.8721C916.491 24.1778 916.908 23.3493 917.077 22.4666C917.13 22.1822 918.98 11.4129 923.879 12.0029C924.773 12.1092 925.758 12.3019 926.428 11.757C926.629 11.5937 926.793 11.396 926.909 11.1753C927.026 10.9546 927.094 10.7151 927.108 10.4707C927.122 10.2262 927.084 9.98164 926.994 9.75086C926.903 9.52009 926.764 9.30769 926.583 9.12584C926.218 8.75749 925.706 8.53573 925.161 8.50931C924.615 8.4829 924.08 8.65399 923.674 8.98498C924.04 8.65276 924.44 8.05742 924.459 7.58832C924.469 7.34355 924.426 7.09935 924.332 6.86968C924.238 6.64002 924.095 6.42939 923.912 6.24982C923.728 6.07026 923.507 5.92529 923.261 5.82319C923.016 5.72109 922.75 5.66387 922.48 5.65479C921.505 5.62157 920.501 6.1797 920.416 7.02089C919.661 14.5331 910.636 13.5152 907.102 15.1005C903.567 16.6872 902.065 19.2586 903.708 22.2712" stroke="#EB2A00" stroke-width="1.5" stroke-linecap="round" stroke-linejoin="round"/>
<path d="M891 33.5801H926.998C926.976 34.8532 926.708 35.9455 925.232 36.1661H893.183C891.007 35.8286 891.353 34.5781 891 33.5801V33.5801Z" stroke="#EB2A00" stroke-width="1.5" stroke-linecap="round" stroke-linejoin="round"/>
<path d="M905.895 20.2168C905.89 19.8629 905.962 19.5116 906.108 19.1833C906.254 18.855 906.471 18.5563 906.745 18.3045C907.019 18.0529 907.346 17.853 907.705 17.7166C908.065 17.5802 908.451 17.5099 908.841 17.5098" stroke="white" stroke-width="1.5" stroke-linecap="round" stroke-linejoin="round"/>
<path d="M956.472 24.3388C960.067 29.7185 969.579 32.1852 978.125 31.8545C981.124 31.739 984.017 31.1409 986.58 30.0239C989.713 28.66 992.055 26.7248 993.998 24.3878L994.05 24.4859C994.05 24.4859 998.319 30.2675 1001.2 29.5808C1002.49 29.2691 998.251 21.3705 998.251 19.5414C998.251 18.054 1003.46 10.8468 1000.76 9.45443C1000.66 9.40977 1000.54 9.39321 1000.43 9.40692C998.536 9.48603 993.67 15.4876 993.67 15.4876H993.615C990.884 12.0224 986.452 9.50981 981.288 8.46552C979.283 8.06756 977.23 7.90166 975.179 7.97183C966.448 8.23291 958.58 12.6949 956.198 19.3942L956.252 19.4923L959.578 21.6189L956.472 24.2882" fill="#FFCDA9"/>
<path d="M956.472 24.3388C960.067 29.7185 969.579 32.1852 978.125 31.8545C981.124 31.739 984.017 31.1409 986.58 30.0239C989.713 28.66 992.055 26.7248 993.998 24.3878L994.05 24.4859C994.05 24.4859 998.319 30.2675 1001.2 29.5808C1002.49 29.2691 998.251 21.3705 998.251 19.5414C998.251 18.054 1003.46 10.8468 1000.76 9.45443C1000.66 9.40977 1000.54 9.39321 1000.43 9.40692V9.40692C998.536 9.48603 993.67 15.4876 993.67 15.4876H993.615C990.884 12.0224 986.452 9.50981 981.288 8.46552C979.283 8.06756 977.23 7.90166 975.179 7.97183C966.448 8.23291 958.58 12.6949 956.198 19.3942L956.252 19.4923L959.578 21.6189L956.472 24.2882" stroke="#EB2A00" stroke-width="1.5" stroke-linecap="round" stroke-linejoin="round"/>
<path d="M967.146 18.6537C968.466 18.6537 969.536 17.698 969.536 16.5192C969.536 15.3403 968.466 14.3847 967.146 14.3847C965.827 14.3847 964.757 15.3403 964.757 16.5192C964.757 17.698 965.827 18.6537 967.146 18.6537Z" fill="white" stroke="#EB2A00" stroke-width="1.5" stroke-linecap="round" stroke-linejoin="round"/>
<path d="M972.29 14.2629C974.052 15.3007 975.404 16.8074 976.153 18.5696C976.903 20.3317 977.013 22.2599 976.467 24.0809C975.921 25.9019 974.747 27.5232 973.112 28.7151C971.476 29.907 969.462 30.6091 967.355 30.7217" stroke="#EB2A00" stroke-width="1.5" stroke-linecap="round" stroke-linejoin="round"/>
<path d="M974.214 10.9654C976.808 10.335 979.57 10.6324 981.93 11.7962" stroke="white" stroke-width="1.5" stroke-linecap="round" stroke-linejoin="round"/>
<path d="M1036.72 29.449C1035.74 29.449 1034.92 30.0322 1034.61 30.8302C1034.34 30.7202 1034.04 30.6621 1033.75 30.6594C1032.51 30.6594 1031.5 31.5734 1031.5 32.7001V32.786C1030.35 32.8752 1029.44 33.4369 1029.44 34.5045C1029.44 35.6323 1030.45 36.1661 1031.69 36.1661H1038.08" fill="#FFCDA9"/>
<path d="M1036.72 29.449C1035.74 29.449 1034.92 30.0322 1034.61 30.8302C1034.34 30.7202 1034.04 30.6621 1033.75 30.6594C1032.51 30.6594 1031.5 31.5734 1031.5 32.7001V32.786C1030.35 32.8752 1029.44 33.4369 1029.44 34.5045C1029.44 35.6323 1030.45 36.1661 1031.69 36.1661H1038.08" stroke="#EB2A00" stroke-width="1.5" stroke-linecap="round" stroke-linejoin="round"/>
<path d="M1055.65 15.757V32.7646C1055.65 33.2111 1055.56 33.6534 1055.37 34.0662C1055.18 34.4791 1054.9 34.8543 1054.56 35.1703C1054.21 35.4864 1053.8 35.737 1053.34 35.9079C1052.89 36.0788 1052.4 36.1665 1051.91 36.1661H1040.67C1040.18 36.1667 1039.69 36.079 1039.24 35.9082C1038.78 35.7374 1038.37 35.4868 1038.02 35.1707C1037.67 34.8547 1037.4 34.4794 1037.21 34.0665C1037.02 33.6536 1036.93 33.2112 1036.93 32.7646V15.757M1041.42 21.8791V29.3631M1046.07 21.2003V28.6832M1051.16 21.1992V29.3631" stroke="#EB2A00" stroke-width="1.5" stroke-linecap="round" stroke-linejoin="round"/>
<path d="M1044.21 5.65446C1041.21 5.65446 1038.73 7.70052 1038.36 10.3319C1038.23 10.3191 1038.11 10.289 1037.98 10.289C1037.08 10.2876 1036.21 10.6112 1035.57 11.1889C1034.93 11.7666 1034.57 12.5512 1034.56 13.3704C1034.57 14.1897 1034.93 14.9744 1035.57 15.5523C1036.21 16.1302 1037.08 16.4541 1037.98 16.453C1038.41 16.453 1038.8 16.3713 1039.17 16.2403V20.9178C1039.17 21.7663 1039.93 22.4483 1040.86 22.4483C1041.08 22.4486 1041.3 22.4092 1041.5 22.3323C1041.71 22.2555 1041.9 22.1427 1042.05 22.0005C1042.21 21.8582 1042.33 21.6894 1042.42 21.5036C1042.5 21.3178 1042.54 21.1187 1042.54 20.9178V16.1554C1043.07 16.2951 1043.63 16.3896 1044.21 16.3896C1045.59 16.3912 1046.94 15.9467 1048 15.1351C1048.64 15.569 1049.43 15.8364 1050.29 15.8364C1050.9 15.8364 1051.46 15.7022 1051.97 15.4745C1052.44 15.9264 1053.04 16.2407 1053.71 16.3767C1054.37 16.5126 1055.07 16.4638 1055.7 16.2366C1056.34 16.0094 1056.88 15.6143 1057.26 15.1029C1057.65 14.5915 1057.85 13.9874 1057.85 13.3694C1057.85 12.8908 1057.73 12.4187 1057.49 11.9906C1057.25 11.5626 1056.91 11.1904 1056.49 10.9036C1056.07 10.6168 1055.58 10.4234 1055.06 10.3387C1054.54 10.254 1054 10.2804 1053.5 10.4157C1053.14 9.93706 1052.67 9.54479 1052.11 9.27396C1051.55 9.00313 1050.92 8.86218 1050.29 8.86372C1050.07 8.86372 1049.85 8.87446 1049.63 8.90668C1049.18 7.94143 1048.43 7.11832 1047.46 6.53985C1046.49 5.96137 1045.36 5.65309 1044.21 5.65338L1044.21 5.65446Z" fill="#FFCDA9" stroke="#EB2A00" stroke-width="1.5" stroke-linecap="round" stroke-linejoin="round"/>
<path d="M1055.65 17.7977C1057.31 17.7977 1058.64 19.0114 1058.64 20.5194V28.0023C1058.65 28.3595 1058.57 28.7135 1058.42 29.0438C1058.27 29.3742 1058.05 29.6744 1057.77 29.9273C1057.49 30.1802 1057.16 30.3808 1056.8 30.5175C1056.43 30.6542 1056.04 30.7243 1055.65 30.7239" stroke="#EB2A00" stroke-width="1.5" stroke-linecap="round" stroke-linejoin="round"/>
<path d="M1053.28 29.4167V31.1084C1053.28 31.4986 1053.2 31.8852 1053.03 32.2461C1052.87 32.607 1052.63 32.935 1052.33 33.2115C1052.02 33.4879 1051.66 33.7072 1051.26 33.8568C1050.87 34.0065 1050.44 34.0835 1050.01 34.0835H1049.31" stroke="white" stroke-width="1.5" stroke-linecap="round" stroke-linejoin="round"/>
<path d="M1096.22 9.96911C1089.72 11.7126 1091.45 19.6492 1092.44 21.9356C1093.84 25.141 1093.8 34.2415 1098.3 34.2415H1102.18C1104.49 35.6494 1106.45 35.0083 1107.56 34.2415H1110.59C1116.94 32.1185 1114.14 26.3854 1115.8 22.1745C1117.39 18.1295 1117.87 8.16533 1112.45 9.62972L1107.54 10.9584C1103.33 9.3381 1100.45 8.83782 1096.22 9.97037V9.96911Z" fill="#FFCDA9" stroke="#EB2A00" stroke-width="1.5" stroke-linecap="round" stroke-linejoin="round"/>
<path d="M1103.03 9.79938C1094.07 14.6765 1098.51 30.8891 1101.85 34.0995M1107.76 10.991C1112.24 16.9529 1110.69 27.7831 1107.51 34.0731M1103.43 9.65609C1107.41 2.59307 1116.58 6.06864 1112.99 6.62549C1109.07 7.14085 1107.81 8.8755 1107.24 10.7497L1103.43 9.65609Z" stroke="#EB2A00" stroke-width="1.5" stroke-linecap="round" stroke-linejoin="round"/>
<path d="M1169.49 5.25447C1170.01 5.2545 1170.52 5.06561 1170.89 4.7289C1171.27 4.39218 1171.48 3.93486 1171.49 3.45637C1171.49 2.97759 1171.29 2.51634 1170.92 2.17304C1170.55 1.82975 1170.05 1.6322 1169.52 1.62341M1169.31 8.86811C1168.78 8.86813 1168.28 8.67925 1167.9 8.34253C1167.53 8.00581 1167.31 7.54849 1167.31 7.07001C1167.3 6.59122 1167.51 6.12997 1167.88 5.78667C1168.24 5.44338 1168.75 5.24583 1169.28 5.23705M1169.49 12.4992C1170.01 12.4992 1170.52 12.3103 1170.89 11.9736C1171.27 11.6369 1171.48 11.1795 1171.49 10.7011C1171.49 10.2223 1171.29 9.76103 1170.92 9.41774C1170.55 9.07444 1170.05 8.87689 1169.52 8.86811M1177.5 5.25447C1178.02 5.2545 1178.53 5.06561 1178.91 4.7289C1179.28 4.39218 1179.49 3.93486 1179.5 3.45637C1179.5 2.97759 1179.3 2.51634 1178.93 2.17304C1178.56 1.82975 1178.06 1.6322 1177.53 1.62341M1177.32 8.86811C1176.8 8.86813 1176.29 8.67925 1175.91 8.34253C1175.54 8.00581 1175.33 7.54849 1175.32 7.07001C1175.32 6.59122 1175.52 6.12997 1175.89 5.78667C1176.26 5.44338 1176.76 5.24583 1177.29 5.23705M1177.5 12.4992C1178.02 12.4992 1178.53 12.3103 1178.91 11.9736C1179.28 11.6369 1179.49 11.1795 1179.5 10.7011C1179.5 10.2223 1179.3 9.76103 1178.93 9.41774C1178.56 9.07444 1178.06 8.87689 1177.53 8.86811M1162.09 5.25447C1162.62 5.2545 1163.13 5.06561 1163.5 4.7289C1163.88 4.39218 1164.09 3.93486 1164.1 3.45637C1164.1 2.97783 1163.9 2.5168 1163.53 2.17355C1163.16 1.83029 1162.66 1.63258 1162.13 1.62341M1161.92 8.86811C1161.4 8.86813 1160.89 8.67925 1160.51 8.34253C1160.14 8.00581 1159.93 7.54849 1159.92 7.07001C1159.92 6.59147 1160.12 6.13043 1160.49 5.78718C1160.85 5.44392 1161.36 5.24621 1161.88 5.23705M1162.09 12.4992C1162.62 12.4992 1163.13 12.3103 1163.5 11.9736C1163.88 11.6369 1164.09 11.1795 1164.1 10.7011C1164.1 10.2225 1163.9 9.76149 1163.53 9.41824C1163.16 9.07498 1162.66 8.87727 1162.13 8.86811" stroke="#FFCDA9" stroke-width="1.5" stroke-linecap="round" stroke-linejoin="round"/>
<path d="M1162.87 33.934H1177.29V29.6116C1174.22 30.8404 1172.43 31.0321 1169.94 31.0786C1166.83 31.1367 1164.72 30.6487 1162.87 30.2304V33.934Z" stroke="#EB2A00" stroke-width="1.5" stroke-linecap="round" stroke-linejoin="round"/>
<path d="M1188.23 18.2856C1185.54 27.3982 1175.25 32.8055 1165.2 30.364C1162.01 29.5919 1159.1 28.0709 1156.76 25.9544C1154.43 23.8379 1152.75 21.2007 1151.9 18.3089L1188.23 18.2856Z" fill="#FFCDA9" stroke="#EB2A00" stroke-width="1.5" stroke-linecap="round" stroke-linejoin="round"/>
<path d="M1151.89 15.3735H1188.23V18.364H1151.89V15.3735Z" stroke="#EB2A00" stroke-width="1.5" stroke-linecap="round" stroke-linejoin="round"/>
<path d="M1175.37 15.3648C1187.86 15.8122 1184.72 7.73958 1193.96 7.01046C1194.87 6.93784 1195.35 6.92186 1196.63 6.99594L1196.68 6.98141C1195.09 6.12158 1192.15 4.66625 1189.7 5.28353C1188.44 5.60016 1186.49 6.8231 1185.18 9.15424C1181.88 15.696 1178.67 15.3517 1176.06 15.3634L1175.37 15.3648Z" stroke="#EB2A00" stroke-width="1.5" stroke-linecap="round" stroke-linejoin="round"/>
<path d="M1183.06 20.8521C1181.92 23.9893 1178.89 26.1679 1175.36 26.7605" stroke="white" stroke-width="1.5" stroke-linecap="round" stroke-linejoin="round"/>
<path d="M1243.88 15.747C1243.87 10.9028 1239.57 6.98149 1234.25 6.98823C1228.95 6.99947 1224.65 10.9198 1224.65 15.7594L1224.7 15.3885V20.8541L1224.78 21.4352C1224.78 20.5046 1224.45 19.5993 1223.83 18.8536C1223.22 18.1079 1222.36 17.5616 1221.37 17.2958C1220.39 17.0299 1219.34 17.0586 1218.37 17.3777C1217.41 17.6968 1216.58 18.2893 1216.02 19.0671C1214.58 21.0644 1215.47 23.5415 1217.35 25.0779L1217.11 24.8587L1226.16 33.2568H1243.62L1243.86 15.9707L1243.88 15.747Z" fill="#FFCDA9" stroke="#EB2A00" stroke-width="1.5" stroke-linecap="round" stroke-linejoin="round"/>
<path d="M1242.25 33.2455H1237.66V39.0001H1242.25V33.2455Z" stroke="#EB2A00" stroke-width="1.5" stroke-linecap="round" stroke-linejoin="round"/>
<path d="M1229.84 8.06268L1243.74 20.6597L1243.7 20.699M1225.09 13.7992L1243.62 31.0089M1216.57 18.5276L1232.71 33.1409M1220.77 27.9855L1240.83 9.4901M1227.27 33.2567L1243.81 18.3826" stroke="#EB2A00" stroke-width="1.5" stroke-linecap="round" stroke-linejoin="round"/>
<path d="M1237.13 10.1026C1237.94 10.2996 1238.67 10.6993 1239.25 11.2562C1239.82 11.8131 1240.21 12.5049 1240.37 13.253" stroke="white" stroke-width="1.5" stroke-linecap="round" stroke-linejoin="round"/>
<path d="M1298.79 18.1397C1299.37 16.5476 1300.22 15.0486 1301.32 13.6981C1301.33 13.6818 1301.34 13.675 1301.36 13.6627C1303.16 12.0873 1303.24 9.32877 1301.53 7.66899C1300.7 6.86552 1299.55 6.39416 1298.33 6.35867C1297.12 6.32317 1295.94 6.72641 1295.05 7.47967L1294.85 7.65669C1287.39 13.4217 1281.85 17.324 1279.76 19.105C1279.53 19.2956 1279.29 19.4618 1279.1 19.6674C1276.13 22.7636 1276.16 27.487 1279.31 30.5465C1281.65 32.8095 1284.86 33.6237 1287.95 32.8639" fill="#FFCDA9"/>
<path d="M1298.79 18.1397C1299.37 16.5476 1300.22 15.0486 1301.32 13.6981C1301.33 13.6818 1301.34 13.675 1301.36 13.6627C1303.16 12.0873 1303.24 9.32877 1301.53 7.66899C1300.7 6.86552 1299.55 6.39416 1298.33 6.35867C1297.12 6.32317 1295.94 6.72641 1295.05 7.47967L1294.85 7.65669C1287.39 13.4217 1281.85 17.324 1279.76 19.105C1279.53 19.2956 1279.29 19.4618 1279.1 19.6674C1276.13 22.7636 1276.16 27.487 1279.31 30.5465C1281.65 32.8095 1284.86 33.6237 1287.95 32.8639" stroke="#EB2A00" stroke-width="1.5" stroke-linecap="round" stroke-linejoin="round"/>
<path d="M1295.1 11.3057C1295.45 11.3057 1295.74 11.0485 1295.74 10.7311C1295.74 10.4138 1295.45 10.1566 1295.1 10.1566C1294.75 10.1566 1294.47 10.4138 1294.47 10.7311C1294.47 11.0485 1294.75 11.3057 1295.1 11.3057Z" fill="white"/>
<path d="M1295.56 14.044C1295.9 14.044 1296.19 13.7867 1296.19 13.4694C1296.19 13.152 1295.9 12.8948 1295.56 12.8948C1295.21 12.8948 1294.92 13.152 1294.92 13.4694C1294.92 13.7867 1295.21 14.044 1295.56 14.044Z" fill="white"/>
<path d="M1299.44 10.9817C1299.79 10.9817 1300.07 10.7244 1300.07 10.4071C1300.07 10.0898 1299.79 9.83252 1299.44 9.83252C1299.09 9.83252 1298.81 10.0898 1298.81 10.4071C1298.81 10.7244 1299.09 10.9817 1299.44 10.9817Z" fill="white"/>
<path d="M1298.67 13.2651C1299.02 13.2651 1299.3 13.0079 1299.3 12.6906C1299.3 12.3732 1299.02 12.116 1298.67 12.116C1298.32 12.116 1298.04 12.3732 1298.04 12.6906C1298.04 13.0079 1298.32 13.2651 1298.67 13.2651Z" fill="white"/>
<path d="M1297.07 15.9135C1297.42 15.9135 1297.7 15.6562 1297.7 15.3389C1297.7 15.0215 1297.42 14.7643 1297.07 14.7643C1296.72 14.7643 1296.44 15.0215 1296.44 15.3389C1296.44 15.6562 1296.72 15.9135 1297.07 15.9135Z" fill="white"/>
<path d="M1293.41 16.6922C1293.76 16.6922 1294.05 16.435 1294.05 16.1176C1294.05 15.8003 1293.76 15.543 1293.41 15.543C1293.06 15.543 1292.78 15.8003 1292.78 16.1176C1292.78 16.435 1293.06 16.6922 1293.41 16.6922Z" fill="white"/>
<path d="M1289.58 15.9392C1289.93 15.9392 1290.22 15.682 1290.22 15.3646C1290.22 15.0473 1289.93 14.79 1289.58 14.79C1289.24 14.79 1288.95 15.0473 1288.95 15.3646C1288.95 15.682 1289.24 15.9392 1289.58 15.9392Z" fill="white"/>
<path d="M1285.5 18.0416C1285.85 18.0416 1286.13 17.7843 1286.13 17.467C1286.13 17.1496 1285.85 16.8924 1285.5 16.8924C1285.15 16.8924 1284.87 17.1496 1284.87 17.467C1284.87 17.7843 1285.15 18.0416 1285.5 18.0416Z" fill="white"/>
<path d="M1282.47 22.0393C1282.82 22.0393 1283.1 21.7819 1283.1 21.4646C1283.1 21.1473 1282.82 20.89 1282.47 20.89C1282.12 20.89 1281.84 21.1473 1281.84 21.4646C1281.84 21.7819 1282.12 22.0393 1282.47 22.0393Z" fill="white"/>
<path d="M1279.33 24.7134C1279.68 24.7134 1279.96 24.4562 1279.96 24.1389C1279.96 23.8215 1279.68 23.5643 1279.33 23.5643C1278.98 23.5643 1278.7 23.8215 1278.7 24.1389C1278.7 24.4562 1278.98 24.7134 1279.33 24.7134Z" fill="white"/>
<path d="M1281.81 27.1534C1282.16 27.1534 1282.45 26.8961 1282.45 26.5788C1282.45 26.2615 1282.16 26.0042 1281.81 26.0042C1281.46 26.0042 1281.18 26.2615 1281.18 26.5788C1281.18 26.8961 1281.46 27.1534 1281.81 27.1534Z" fill="white"/>
<path d="M1281.3 29.671C1281.65 29.671 1281.93 29.4138 1281.93 29.0964C1281.93 28.7791 1281.65 28.5219 1281.3 28.5219C1280.95 28.5219 1280.67 28.7791 1280.67 29.0964C1280.67 29.4138 1280.95 29.671 1281.3 29.671Z" fill="white"/>
<path d="M1281.96 24.3757C1282.31 24.3757 1282.59 24.1184 1282.59 23.8011C1282.59 23.4838 1282.31 23.2265 1281.96 23.2265C1281.61 23.2265 1281.32 23.4838 1281.32 23.8011C1281.32 24.1184 1281.61 24.3757 1281.96 24.3757Z" fill="white"/>
<path d="M1312.69 19.1118C1302.91 18.6843 1295.93 18.0838 1293.06 18.0838C1292.75 18.0838 1292.45 18.0552 1292.15 18.0838C1287.66 18.4977 1284.12 21.9589 1284.12 26.1527C1285.36 35.8363 1295.56 35.6035 1300.92 32.8843C1305.46 30.4948 1308.99 28.2236 1312.86 27.5401H1312.91C1315.41 27.5101 1317.55 25.5508 1317.55 23.2742C1317.55 22.1722 1317.07 21.1153 1316.21 20.3351C1315.35 19.555 1314.19 19.1151 1312.97 19.1118" fill="#FFCDA9"/>
<path d="M1312.69 19.1118C1302.91 18.6843 1295.93 18.0838 1293.06 18.0838C1292.75 18.0838 1292.45 18.0552 1292.15 18.0838C1287.66 18.4977 1284.12 21.9589 1284.12 26.1527C1285.36 35.8363 1295.56 35.6035 1300.92 32.8843C1305.46 30.4947 1308.99 28.2236 1312.86 27.5401H1312.91C1315.41 27.5101 1317.55 25.5508 1317.55 23.2742C1317.55 22.1722 1317.07 21.1153 1316.21 20.3351C1315.35 19.555 1314.19 19.1151 1312.97 19.1118" stroke="#EB2A00" stroke-width="1.5" stroke-linecap="round" stroke-linejoin="round"/>
<path d="M1283.19 19.5476C1283.53 19.5476 1283.82 19.2903 1283.82 18.973C1283.82 18.6556 1283.53 18.3984 1283.19 18.3984C1282.84 18.3984 1282.55 18.6556 1282.55 18.973C1282.55 19.2903 1282.84 19.5476 1283.19 19.5476Z" fill="white"/>
<path d="M1291.41 13.7593C1291.76 13.7593 1292.05 13.5021 1292.05 13.1848C1292.05 12.8674 1291.76 12.6102 1291.41 12.6102C1291.06 12.6102 1290.78 12.8674 1290.78 13.1848C1290.78 13.5021 1291.06 13.7593 1291.41 13.7593Z" fill="white"/>
<path d="M1297.87 9.44984C1298.22 9.44984 1298.5 9.19259 1298.5 8.87525C1298.5 8.55791 1298.22 8.30066 1297.87 8.30066C1297.52 8.30066 1297.24 8.55791 1297.24 8.87525C1297.24 9.19259 1297.52 9.44984 1297.87 9.44984Z" fill="white"/>
<path d="M1295.52 28.1501C1298.95 28.1501 1301.74 26.7858 1301.74 25.1028C1301.74 23.4199 1298.95 22.0555 1295.52 22.0555C1292.08 22.0555 1289.29 23.4199 1289.29 25.1028C1289.29 26.7858 1292.08 28.1501 1295.52 28.1501Z" fill="white" stroke="#EB2A00" stroke-width="1.5" stroke-linecap="round" stroke-linejoin="round"/>
<path d="M1285.14 29.5539C1297.86 38.535 1301.42 24.5841 1317.09 24.919" stroke="#EB2A00" stroke-width="1.5" stroke-linecap="round"/>
<path d="M1308.88 22.5833C1309.13 22.8041 1309.53 22.7987 1309.77 22.5712C1310.02 22.3437 1310.01 21.9803 1309.76 21.7596C1309.51 21.5388 1309.11 21.5444 1308.87 21.7719C1308.62 21.9993 1308.63 22.3626 1308.88 22.5833Z" fill="white"/>
<path d="M1313.98 23.4516C1314.23 23.6724 1314.63 23.6667 1314.88 23.4393C1315.12 23.2118 1315.11 22.8486 1314.86 22.6279C1314.61 22.4071 1314.21 22.4124 1313.97 22.6399C1313.72 22.8674 1313.73 23.2309 1313.98 23.4516Z" fill="white"/>
<path d="M1304.56 25.271C1304.81 25.4917 1305.21 25.4863 1305.46 25.2588C1305.7 25.0314 1305.7 24.6679 1305.45 24.4472C1305.2 24.2265 1304.8 24.232 1304.55 24.4595C1304.31 24.687 1304.31 25.0502 1304.56 25.271Z" fill="white"/>
<path d="M1295.81 20.1263C1296.06 20.347 1296.46 20.3417 1296.7 20.1142C1296.95 19.8868 1296.94 19.5233 1296.69 19.3025C1296.44 19.0818 1296.04 19.0874 1295.8 19.3149C1295.55 19.5424 1295.56 19.9056 1295.81 20.1263Z" fill="white"/>
<path d="M1303.34 20.7934C1303.59 21.0141 1303.99 21.0088 1304.24 20.7813C1304.48 20.5538 1304.47 20.1903 1304.22 19.9696C1303.97 19.7489 1303.57 19.7545 1303.33 19.9819C1303.09 20.2094 1303.09 20.5726 1303.34 20.7934Z" fill="white"/>
<path d="M1288.28 29.6465C1288.53 29.8672 1288.93 29.8617 1289.18 29.6342C1289.42 29.4067 1289.42 29.0435 1289.17 28.8227C1288.92 28.602 1288.52 28.6074 1288.27 28.8349C1288.03 29.0623 1288.03 29.4258 1288.28 29.6465Z" fill="white"/>
<path d="M1286.67 24.8446C1286.92 25.0653 1287.32 25.0597 1287.57 24.8323C1287.81 24.6048 1287.81 24.2415 1287.56 24.0208C1287.31 23.8001 1286.91 23.8054 1286.66 24.0329C1286.42 24.2604 1286.42 24.6238 1286.67 24.8446Z" fill="white"/>
<path d="M1293.91 30.8024C1294.17 31.0232 1294.57 31.0179 1294.81 30.7904C1295.05 30.5629 1295.05 30.1994 1294.8 29.9787C1294.55 29.7579 1294.15 29.7635 1293.9 29.991C1293.66 30.2185 1293.66 30.5817 1293.91 30.8024Z" fill="white"/>
<path d="M1362.03 34.7343C1371.77 34.7343 1379.66 27.58 1379.66 18.7546C1379.66 9.92928 1371.77 2.77484 1362.03 2.77484C1352.3 2.77484 1344.41 9.92928 1344.41 18.7546C1344.41 27.58 1352.3 34.7343 1362.03 34.7343Z" fill="#FFCDA9" stroke="#EB2A00" stroke-width="1.5" stroke-linecap="round" stroke-linejoin="round"/>
<path d="M1363.68 6.26212C1365.55 6.24871 1367.39 6.68547 1369.02 7.52767C1370.64 8.36987 1371.99 9.58746 1372.92 11.0563M1355.5 7.93186C1356.88 6.67661 1358.76 5.97139 1360.72 5.97125" stroke="white" stroke-width="1.5" stroke-linecap="round" stroke-linejoin="round"/>
<path d="M1355.02 11.6676L1374.69 24.4107" stroke="#EB2A00" stroke-width="1.5" stroke-linecap="round" stroke-linejoin="round"/>
<path d="M1359.6 13.5657C1360.01 13.0433 1359.88 12.3174 1359.3 11.9443C1358.72 11.5712 1357.92 11.6922 1357.51 12.2145L1356.39 13.6326C1355.98 14.1549 1356.12 14.8808 1356.69 15.2539C1357.27 15.627 1358.07 15.5061 1358.48 14.9838L1359.6 13.5657Z" fill="white" stroke="#EB2A00" stroke-width="1.5" stroke-linecap="round" stroke-linejoin="round"/>
<path d="M1362.49 14.028L1359.88 17.3367" stroke="#EB2A00" stroke-width="1.5" stroke-linecap="round" stroke-linejoin="round"/>
<path d="M1365.94 17.5207C1366.36 16.9984 1366.22 16.2725 1365.65 15.8994C1365.07 15.5263 1364.27 15.6473 1363.86 16.1696L1362.74 17.5877C1362.33 18.11 1362.46 18.8359 1363.04 19.209C1363.61 19.5821 1364.41 19.4612 1364.83 18.9389L1365.94 17.5207Z" fill="white" stroke="#EB2A00" stroke-width="1.5" stroke-linecap="round" stroke-linejoin="round"/>
<path d="M1369.01 18.1917L1366.4 21.5017" stroke="#EB2A00" stroke-width="1.5" stroke-linecap="round" stroke-linejoin="round"/>
<path d="M1372.35 21.7808C1372.76 21.2585 1372.63 20.5325 1372.05 20.1594C1371.47 19.7863 1370.67 19.9073 1370.26 20.4297L1369.14 21.8478C1368.73 22.3701 1368.86 23.0959 1369.44 23.469C1370.02 23.8421 1370.82 23.7212 1371.23 23.1989L1372.35 21.7808Z" fill="white" stroke="#EB2A00" stroke-width="1.5" stroke-linecap="round" stroke-linejoin="round"/>
<path d="M1374.95 22.191L1372.34 25.4998M1342.95 12.9045L1364.06 26.978M1352.62 16.9476L1350 20.2469" stroke="#EB2A00" stroke-width="1.5" stroke-linecap="round" stroke-linejoin="round"/>
<path d="M1355.71 20.3974C1356.13 19.8677 1356.01 19.134 1355.43 18.7586C1354.86 18.3833 1354.05 18.5085 1353.63 19.0382L1352.53 20.4193C1352.11 20.949 1352.23 21.6827 1352.81 22.0581C1353.38 22.4334 1354.19 22.3082 1354.61 21.7785L1355.71 20.3974Z" fill="white" stroke="#EB2A00" stroke-width="1.5" stroke-linecap="round" stroke-linejoin="round"/>
<path d="M1358.1 20.6348L1355.47 23.934" stroke="#EB2A00" stroke-width="1.5" stroke-linecap="round" stroke-linejoin="round"/>
<path d="M1361.2 24.0293C1361.62 23.4996 1361.49 22.7659 1360.92 22.3906C1360.35 22.0153 1359.54 22.1404 1359.12 22.6701L1358.02 24.0513C1357.6 24.581 1357.72 25.3147 1358.3 25.69C1358.87 26.0654 1359.68 25.9402 1360.1 25.4105L1361.2 24.0293Z" fill="white" stroke="#EB2A00" stroke-width="1.5" stroke-linecap="round" stroke-linejoin="round"/>
<path d="M1363.74 24.3043L1361.12 27.6035" stroke="#EB2A00" stroke-width="1.5" stroke-linecap="round" stroke-linejoin="round"/>
<path d="M8.71789 29.449C7.7357 29.449 6.91701 30.0322 6.61252 30.8302C6.33974 30.7202 6.04497 30.6621 5.74644 30.6594C4.50596 30.6594 3.50008 31.5734 3.50008 32.7001V32.786C2.35084 32.8752 1.44092 33.4369 1.44092 34.5045C1.44092 35.6323 2.44562 36.1661 3.68728 36.1661H10.0816" fill="#FFCDA9"/>
<path d="M8.71789 29.449C7.7357 29.449 6.91701 30.0322 6.61252 30.8302C6.33974 30.7202 6.04497 30.6621 5.74644 30.6594C4.50596 30.6594 3.50008 31.5734 3.50008 32.7001V32.786C2.35084 32.8752 1.44092 33.4369 1.44092 34.5045C1.44092 35.6323 2.44562 36.1661 3.68728 36.1661H10.0816" stroke="#EB2A00" stroke-width="1.5" stroke-linecap="round" stroke-linejoin="round"/>
<path d="M27.6496 15.757V32.7646C27.6511 33.2111 27.5554 33.6534 27.3679 34.0662C27.1804 34.4791 26.9048 34.8543 26.557 35.1703C26.2091 35.4864 25.7958 35.737 25.3408 35.9079C24.8859 36.0788 24.3981 36.1665 23.9056 36.1661H12.6738C12.1813 36.1667 11.6934 36.079 11.2383 35.9082C10.7831 35.7374 10.3697 35.4868 10.0217 35.1707C9.67375 34.8547 9.39806 34.4794 9.21049 34.0665C9.02292 33.6536 8.92717 33.2112 8.92873 32.7646V15.757M13.4214 21.8791V29.3631M18.067 21.2003V28.6832M23.1568 21.1992V29.3631" stroke="#EB2A00" stroke-width="1.5" stroke-linecap="round" stroke-linejoin="round"/>
<path d="M16.207 5.65446C13.2083 5.65446 10.7332 7.70052 10.3565 10.3319C10.2297 10.3191 10.1112 10.289 9.98208 10.289C9.07834 10.2876 8.21088 10.6112 7.57007 11.1889C6.92925 11.7666 6.56742 12.5512 6.56396 13.3704C6.5671 14.1897 6.92863 14.9744 7.56923 15.5523C8.20982 16.1302 9.07715 16.4541 9.98089 16.453C10.4074 16.453 10.7984 16.3713 11.174 16.2403V20.9178C11.174 21.7663 11.9251 22.4483 12.8587 22.4483C13.0804 22.4486 13.2999 22.4092 13.5047 22.3323C13.7094 22.2555 13.8955 22.1427 14.052 22.0005C14.2086 21.8582 14.3326 21.6894 14.4169 21.5036C14.5013 21.3178 14.5443 21.1187 14.5435 20.9178V16.1554C15.0719 16.2951 15.6276 16.3896 16.2058 16.3896C17.5935 16.3912 18.9368 15.9467 19.9971 15.1351C20.6369 15.569 21.4307 15.8364 22.2897 15.8364C22.8951 15.8364 23.465 15.7022 23.9744 15.4745C24.4395 15.9264 25.044 16.2407 25.709 16.3767C26.3741 16.5126 27.0689 16.4638 27.7029 16.2366C28.3369 16.0094 28.8807 15.6143 29.2634 15.1029C29.6461 14.5915 29.8501 13.9874 29.8486 13.3694C29.8491 12.8908 29.7265 12.4187 29.4904 11.9906C29.2543 11.5626 28.9113 11.1904 28.4887 10.9036C28.0661 10.6168 27.5754 10.4234 27.0559 10.3387C26.5363 10.254 26.0021 10.2804 25.4957 10.4157C25.1443 9.93706 24.6676 9.54479 24.1081 9.27396C23.5487 9.00313 22.9239 8.86218 22.2897 8.86372C22.0669 8.86372 21.8465 8.87446 21.6345 8.90668C21.1814 7.94143 20.4252 7.11832 19.4599 6.53985C18.4946 5.96137 17.3629 5.65309 16.2058 5.65338L16.207 5.65446Z" fill="#FFCDA9" stroke="#EB2A00" stroke-width="1.5" stroke-linecap="round" stroke-linejoin="round"/>
<path d="M27.6497 17.7977C29.3084 17.7977 30.6448 19.0114 30.6448 20.5194V28.0023C30.6462 28.3595 30.5697 28.7135 30.4198 29.0438C30.2699 29.3742 30.0494 29.6744 29.7711 29.9273C29.4928 30.1802 29.1621 30.3808 28.798 30.5175C28.434 30.6542 28.0437 30.7243 27.6497 30.7239" stroke="#EB2A00" stroke-width="1.5" stroke-linecap="round" stroke-linejoin="round"/>
<path d="M25.2801 29.4167V31.1084C25.2817 31.4986 25.1983 31.8852 25.0346 32.2461C24.871 32.607 24.6304 32.935 24.3266 33.2115C24.0228 33.4879 23.6618 33.7072 23.2643 33.8568C22.8667 34.0065 22.4406 34.0835 22.0101 34.0835H21.3135" stroke="white" stroke-width="1.5" stroke-linecap="round" stroke-linejoin="round"/>
<path d="M68.2237 9.96911C61.7206 11.7126 63.4511 19.6492 64.4439 21.9356C65.8374 25.141 65.8014 34.2415 70.3036 34.2415H74.1777C76.4933 35.6494 78.4457 35.0083 79.5646 34.2415H82.5874C88.9449 32.1185 86.1412 26.3854 87.7982 22.1745C89.3886 18.1295 89.8739 8.16533 84.451 9.62972L79.5383 10.9584C75.3342 9.3381 72.4528 8.83782 68.2237 9.97037V9.96911Z" fill="#FFCDA9" stroke="#EB2A00" stroke-width="1.5" stroke-linecap="round" stroke-linejoin="round"/>
<path d="M75.0291 9.79938C66.0676 14.6765 70.5088 30.8891 73.8533 34.0995M79.7629 10.991C84.2402 16.9529 82.6886 27.7831 79.505 34.0731M75.4284 9.65609C79.4149 2.59307 88.583 6.06864 84.9917 6.62549C81.0705 7.14085 79.8142 8.8755 79.236 10.7497L75.4284 9.65609Z" stroke="#EB2A00" stroke-width="1.5" stroke-linecap="round" stroke-linejoin="round"/>
<path d="M141.485 5.25447C142.013 5.2545 142.52 5.06561 142.895 4.7289C143.27 4.39218 143.483 3.93486 143.488 3.45637C143.493 2.97759 143.289 2.51634 142.921 2.17304C142.553 1.82975 142.05 1.6322 141.522 1.62341M141.312 8.86811C140.784 8.86813 140.278 8.67925 139.903 8.34253C139.528 8.00581 139.315 7.54849 139.309 7.07001C139.304 6.59122 139.508 6.12997 139.876 5.78667C140.244 5.44338 140.747 5.24583 141.275 5.23705M141.485 12.4992C142.013 12.4992 142.52 12.3103 142.895 11.9736C143.27 11.6369 143.483 11.1795 143.488 10.7011C143.493 10.2223 143.289 9.76103 142.921 9.41774C142.553 9.07444 142.05 8.87689 141.522 8.86811M149.496 5.25447C150.024 5.2545 150.53 5.06561 150.905 4.7289C151.281 4.39218 151.494 3.93486 151.499 3.45637C151.504 2.97759 151.3 2.51634 150.932 2.17304C150.564 1.82975 150.061 1.6322 149.533 1.62341M149.323 8.86811C148.795 8.86813 148.289 8.67925 147.914 8.34253C147.539 8.00581 147.325 7.54849 147.32 7.07001C147.315 6.59122 147.519 6.12997 147.887 5.78667C148.255 5.44338 148.758 5.24583 149.286 5.23705M149.496 12.4992C150.024 12.4992 150.53 12.3103 150.905 11.9736C151.281 11.6369 151.494 11.1795 151.499 10.7011C151.504 10.2223 151.3 9.76103 150.932 9.41774C150.564 9.07444 150.061 8.87689 149.533 8.86811M134.094 5.25447C134.622 5.2545 135.129 5.06561 135.504 4.7289C135.879 4.39218 136.092 3.93486 136.097 3.45637C136.102 2.97783 135.899 2.5168 135.531 2.17355C135.163 1.83029 134.661 1.63258 134.133 1.62341M133.923 8.86811C133.395 8.86813 132.889 8.67925 132.514 8.34253C132.139 8.00581 131.925 7.54849 131.92 7.07001C131.915 6.59147 132.119 6.13043 132.486 5.78718C132.854 5.44392 133.357 5.24621 133.885 5.23705M134.094 12.4992C134.622 12.4992 135.129 12.3103 135.504 11.9736C135.879 11.6369 136.092 11.1795 136.097 10.7011C136.102 10.2225 135.899 9.76149 135.531 9.41824C135.163 9.07498 134.661 8.87727 134.133 8.86811" stroke="#FFCDA9" stroke-width="1.5" stroke-linecap="round" stroke-linejoin="round"/>
<path d="M134.875 33.934H149.291V29.6116C146.22 30.8404 144.43 31.0321 141.94 31.0786C138.827 31.1367 136.717 30.6487 134.875 30.2304V33.934Z" stroke="#EB2A00" stroke-width="1.5" stroke-linecap="round" stroke-linejoin="round"/>
<path d="M160.227 18.2856C157.536 27.3982 147.248 32.8055 137.196 30.364C134.006 29.5919 131.097 28.0709 128.762 25.9544C126.428 23.8379 124.75 21.2007 123.898 18.3089L160.227 18.2856Z" fill="#FFCDA9" stroke="#EB2A00" stroke-width="1.5" stroke-linecap="round" stroke-linejoin="round"/>
<path d="M123.889 15.3735H160.234V18.364H123.889V15.3735Z" stroke="#EB2A00" stroke-width="1.5" stroke-linecap="round" stroke-linejoin="round"/>
<path d="M147.365 15.3648C159.862 15.8122 156.721 7.73958 165.957 7.01046C166.87 6.93784 167.351 6.92186 168.633 6.99594L168.681 6.98141C167.087 6.12158 164.148 4.66625 161.695 5.28353C160.441 5.60016 158.486 6.8231 157.177 9.15424C153.882 15.696 150.672 15.3517 148.061 15.3634L147.365 15.3648Z" stroke="#EB2A00" stroke-width="1.5" stroke-linecap="round" stroke-linejoin="round"/>
<path d="M155.056 20.8521C153.922 23.9893 150.885 26.1679 147.361 26.7605" stroke="white" stroke-width="1.5" stroke-linecap="round" stroke-linejoin="round"/>
<path d="M215.884 15.747C215.871 10.9028 211.565 6.98149 206.254 6.98823C200.947 6.99947 196.65 10.9198 196.65 15.7594L196.696 15.3885V20.8541L196.783 21.4352C196.781 20.5046 196.449 19.5993 195.834 18.8536C195.22 18.1079 194.357 17.5616 193.373 17.2958C192.39 17.0299 191.337 17.0586 190.373 17.3777C189.409 17.6968 188.583 18.2893 188.02 19.0671C186.575 21.0644 187.474 23.5415 189.349 25.0779L189.106 24.8587L198.159 33.2568H215.617L215.859 15.9707L215.884 15.747Z" fill="#FFCDA9" stroke="#EB2A00" stroke-width="1.5" stroke-linecap="round" stroke-linejoin="round"/>
<path d="M214.254 33.2455H209.656V39.0001H214.254V33.2455Z" stroke="#EB2A00" stroke-width="1.5" stroke-linecap="round" stroke-linejoin="round"/>
<path d="M201.839 8.06268L215.745 20.6597L215.702 20.699M197.089 13.7992L215.617 31.0089M188.574 18.5276L204.705 33.1409M192.767 27.9855L212.832 9.4901M199.271 33.2567L215.813 18.3826" stroke="#EB2A00" stroke-width="1.5" stroke-linecap="round" stroke-linejoin="round"/>
<path d="M209.126 10.1026C209.939 10.2996 210.674 10.6993 211.248 11.2562C211.822 11.8131 212.213 12.5049 212.375 13.253" stroke="white" stroke-width="1.5" stroke-linecap="round" stroke-linejoin="round"/>
<path d="M270.787 18.1397C271.367 16.5476 272.221 15.0486 273.317 13.6981C273.332 13.6818 273.344 13.675 273.357 13.6627C275.16 12.0873 275.242 9.32877 273.528 7.66899C272.697 6.86552 271.548 6.39416 270.334 6.35867C269.12 6.32317 267.94 6.72641 267.053 7.47967L266.848 7.65669C259.395 13.4217 253.848 17.324 251.757 19.105C251.532 19.2956 251.295 19.4618 251.096 19.6674C248.13 22.7636 248.155 27.487 251.313 30.5465C253.648 32.8095 256.858 33.6237 259.949 32.8639" fill="#FFCDA9"/>
<path d="M270.787 18.1397C271.367 16.5476 272.221 15.0486 273.317 13.6981C273.332 13.6818 273.344 13.675 273.357 13.6627C275.16 12.0873 275.242 9.32877 273.528 7.66899C272.697 6.86552 271.548 6.39416 270.334 6.35867C269.12 6.32317 267.94 6.72641 267.053 7.47967L266.848 7.65669C259.395 13.4217 253.848 17.324 251.757 19.105C251.532 19.2956 251.295 19.4618 251.096 19.6674C248.13 22.7636 248.155 27.487 251.313 30.5465C253.648 32.8095 256.858 33.6237 259.949 32.8639" stroke="#EB2A00" stroke-width="1.5" stroke-linecap="round" stroke-linejoin="round"/>
<path d="M267.103 11.3057C267.452 11.3057 267.735 11.0485 267.735 10.7311C267.735 10.4138 267.452 10.1566 267.103 10.1566C266.754 10.1566 266.471 10.4138 266.471 10.7311C266.471 11.0485 266.754 11.3057 267.103 11.3057Z" fill="white"/>
<path d="M267.555 14.044C267.904 14.044 268.188 13.7867 268.188 13.4694C268.188 13.152 267.904 12.8948 267.555 12.8948C267.206 12.8948 266.923 13.152 266.923 13.4694C266.923 13.7867 267.206 14.044 267.555 14.044Z" fill="white"/>
<path d="M271.441 10.9817C271.79 10.9817 272.073 10.7244 272.073 10.4071C272.073 10.0898 271.79 9.83252 271.441 9.83252C271.092 9.83252 270.808 10.0898 270.808 10.4071C270.808 10.7244 271.092 10.9817 271.441 10.9817Z" fill="white"/>
<path d="M270.669 13.2651C271.018 13.2651 271.301 13.0079 271.301 12.6906C271.301 12.3732 271.018 12.116 270.669 12.116C270.32 12.116 270.037 12.3732 270.037 12.6906C270.037 13.0079 270.32 13.2651 270.669 13.2651Z" fill="white"/>
<path d="M269.069 15.9135C269.418 15.9135 269.701 15.6562 269.701 15.3389C269.701 15.0215 269.418 14.7643 269.069 14.7643C268.72 14.7643 268.437 15.0215 268.437 15.3389C268.437 15.6562 268.72 15.9135 269.069 15.9135Z" fill="white"/>
<path d="M265.413 16.6922C265.762 16.6922 266.046 16.435 266.046 16.1176C266.046 15.8003 265.762 15.543 265.413 15.543C265.064 15.543 264.781 15.8003 264.781 16.1176C264.781 16.435 265.064 16.6922 265.413 16.6922Z" fill="white"/>
<path d="M261.585 15.9392C261.934 15.9392 262.217 15.682 262.217 15.3646C262.217 15.0473 261.934 14.79 261.585 14.79C261.236 14.79 260.952 15.0473 260.952 15.3646C260.952 15.682 261.236 15.9392 261.585 15.9392Z" fill="white"/>
<path d="M257.5 18.0416C257.849 18.0416 258.132 17.7843 258.132 17.467C258.132 17.1496 257.849 16.8924 257.5 16.8924C257.151 16.8924 256.867 17.1496 256.867 17.467C256.867 17.7843 257.151 18.0416 257.5 18.0416Z" fill="white"/>
<path d="M254.472 22.0393C254.821 22.0393 255.104 21.7819 255.104 21.4646C255.104 21.1473 254.821 20.89 254.472 20.89C254.122 20.89 253.839 21.1473 253.839 21.4646C253.839 21.7819 254.122 22.0393 254.472 22.0393Z" fill="white"/>
<path d="M251.328 24.7134C251.677 24.7134 251.96 24.4562 251.96 24.1389C251.96 23.8215 251.677 23.5643 251.328 23.5643C250.979 23.5643 250.696 23.8215 250.696 24.1389C250.696 24.4562 250.979 24.7134 251.328 24.7134Z" fill="white"/>
<path d="M253.814 27.1534C254.163 27.1534 254.446 26.8961 254.446 26.5788C254.446 26.2615 254.163 26.0042 253.814 26.0042C253.464 26.0042 253.181 26.2615 253.181 26.5788C253.181 26.8961 253.464 27.1534 253.814 27.1534Z" fill="white"/>
<path d="M253.3 29.671C253.649 29.671 253.932 29.4138 253.932 29.0964C253.932 28.7791 253.649 28.5219 253.3 28.5219C252.951 28.5219 252.668 28.7791 252.668 29.0964C252.668 29.4138 252.951 29.671 253.3 29.671Z" fill="white"/>
<path d="M253.956 24.3757C254.305 24.3757 254.588 24.1184 254.588 23.8011C254.588 23.4838 254.305 23.2265 253.956 23.2265C253.607 23.2265 253.324 23.4838 253.324 23.8011C253.324 24.1184 253.607 24.3757 253.956 24.3757Z" fill="white"/>
<path d="M284.687 19.1118C274.909 18.6843 267.926 18.0838 265.059 18.0838C264.751 18.0838 264.454 18.0552 264.155 18.0838C259.659 18.4977 256.122 21.9589 256.122 26.1527C257.363 35.8363 267.563 35.6035 272.922 32.8843C277.464 30.4948 280.994 28.2236 284.857 27.5401H284.914C287.413 27.5101 289.552 25.5508 289.552 23.2742C289.551 22.1722 289.068 21.1153 288.21 20.3351C287.351 19.555 286.186 19.1151 284.971 19.1118" fill="#FFCDA9"/>
<path d="M284.687 19.1118C274.909 18.6843 267.926 18.0838 265.059 18.0838C264.751 18.0838 264.454 18.0552 264.155 18.0838C259.659 18.4977 256.122 21.9589 256.122 26.1527C257.363 35.8363 267.563 35.6035 272.922 32.8843C277.464 30.4947 280.994 28.2236 284.857 27.5401H284.914C287.413 27.5101 289.552 25.5508 289.552 23.2742C289.551 22.1722 289.068 21.1153 288.21 20.3351C287.351 19.555 286.186 19.1151 284.971 19.1118" stroke="#EB2A00" stroke-width="1.5" stroke-linecap="round" stroke-linejoin="round"/>
<path d="M255.185 19.5476C255.534 19.5476 255.817 19.2903 255.817 18.973C255.817 18.6556 255.534 18.3984 255.185 18.3984C254.836 18.3984 254.552 18.6556 254.552 18.973C254.552 19.2903 254.836 19.5476 255.185 19.5476Z" fill="white"/>
<path d="M263.412 13.7593C263.762 13.7593 264.045 13.5021 264.045 13.1848C264.045 12.8674 263.762 12.6102 263.412 12.6102C263.063 12.6102 262.78 12.8674 262.78 13.1848C262.78 13.5021 263.063 13.7593 263.412 13.7593Z" fill="white"/>
<path d="M269.87 9.44984C270.219 9.44984 270.502 9.19259 270.502 8.87525C270.502 8.55791 270.219 8.30066 269.87 8.30066C269.521 8.30066 269.238 8.55791 269.238 8.87525C269.238 9.19259 269.521 9.44984 269.87 9.44984Z" fill="white"/>
<path d="M267.516 28.1501C270.952 28.1501 273.737 26.7858 273.737 25.1028C273.737 23.4199 270.952 22.0555 267.516 22.0555C264.08 22.0555 261.295 23.4199 261.295 25.1028C261.295 26.7858 264.08 28.1501 267.516 28.1501Z" fill="white" stroke="#EB2A00" stroke-width="1.5" stroke-linecap="round" stroke-linejoin="round"/>
<path d="M257.137 29.5539C269.856 38.535 273.423 24.5841 289.091 24.919" stroke="#EB2A00" stroke-width="1.5" stroke-linecap="round"/>
<path d="M280.877 22.5833C281.128 22.8041 281.528 22.7987 281.772 22.5712C282.016 22.3437 282.011 21.9803 281.761 21.7596C281.511 21.5388 281.11 21.5444 280.866 21.7719C280.622 21.9993 280.627 22.3626 280.877 22.5833Z" fill="white"/>
<path d="M285.98 23.4516C286.231 23.6724 286.632 23.6667 286.876 23.4393C287.12 23.2118 287.115 22.8486 286.864 22.6279C286.614 22.4071 286.213 22.4124 285.969 22.6399C285.725 22.8674 285.73 23.2309 285.98 23.4516Z" fill="white"/>
<path d="M276.563 25.271C276.813 25.4917 277.214 25.4863 277.458 25.2588C277.702 25.0314 277.697 24.6679 277.446 24.4472C277.196 24.2265 276.795 24.232 276.551 24.4595C276.307 24.687 276.312 25.0502 276.563 25.271Z" fill="white"/>
<path d="M267.807 20.1263C268.057 20.347 268.458 20.3417 268.702 20.1142C268.946 19.8868 268.941 19.5233 268.691 19.3025C268.44 19.0818 268.04 19.0874 267.795 19.3149C267.551 19.5424 267.557 19.9056 267.807 20.1263Z" fill="white"/>
<path d="M275.341 20.7934C275.591 21.0141 275.992 21.0088 276.236 20.7813C276.48 20.5538 276.475 20.1903 276.224 19.9696C275.974 19.7489 275.573 19.7545 275.329 19.9819C275.085 20.2094 275.09 20.5726 275.341 20.7934Z" fill="white"/>
<path d="M260.282 29.6465C260.533 29.8672 260.934 29.8617 261.178 29.6342C261.422 29.4067 261.416 29.0435 261.166 28.8227C260.916 28.602 260.515 28.6074 260.271 28.8349C260.027 29.0623 260.032 29.4258 260.282 29.6465Z" fill="white"/>
<path d="M258.673 24.8446C258.924 25.0653 259.325 25.0597 259.569 24.8323C259.813 24.6048 259.808 24.2415 259.557 24.0208C259.307 23.8001 258.906 23.8054 258.662 24.0329C258.418 24.2604 258.423 24.6238 258.673 24.8446Z" fill="white"/>
<path d="M265.915 30.8024C266.165 31.0232 266.566 31.0179 266.81 30.7904C267.054 30.5629 267.049 30.1994 266.799 29.9787C266.548 29.7579 266.147 29.7635 265.903 29.991C265.659 30.2185 265.665 30.5817 265.915 30.8024Z" fill="white"/>
<path d="M334.035 34.7343C343.77 34.7343 351.662 27.58 351.662 18.7546C351.662 9.92928 343.77 2.77484 334.035 2.77484C324.299 2.77484 316.407 9.92928 316.407 18.7546C316.407 27.58 324.299 34.7343 334.035 34.7343Z" fill="#FFCDA9" stroke="#EB2A00" stroke-width="1.5" stroke-linecap="round" stroke-linejoin="round"/>
<path d="M335.68 6.26212C337.551 6.24871 339.392 6.68547 341.016 7.52767C342.64 8.36987 343.988 9.58746 344.923 11.0563M327.5 7.93186C328.884 6.67661 330.762 5.97139 332.72 5.97125" stroke="white" stroke-width="1.5" stroke-linecap="round" stroke-linejoin="round"/>
<path d="M327.019 11.6676L346.689 24.4107" stroke="#EB2A00" stroke-width="1.5" stroke-linecap="round" stroke-linejoin="round"/>
<path d="M331.597 13.5657C332.009 13.0433 331.876 12.3174 331.3 11.9443C330.724 11.5712 329.924 11.6922 329.512 12.2145L328.394 13.6326C327.982 14.1549 328.115 14.8808 328.691 15.2539C329.267 15.627 330.068 15.5061 330.479 14.9838L331.597 13.5657Z" fill="white" stroke="#EB2A00" stroke-width="1.5" stroke-linecap="round" stroke-linejoin="round"/>
<path d="M334.487 14.028L331.878 17.3367" stroke="#EB2A00" stroke-width="1.5" stroke-linecap="round" stroke-linejoin="round"/>
<path d="M337.944 17.5207C338.356 16.9984 338.223 16.2725 337.647 15.8994C337.071 15.5263 336.27 15.6473 335.859 16.1696L334.741 17.5877C334.329 18.11 334.462 18.8359 335.038 19.209C335.614 19.5821 336.414 19.4612 336.826 18.9389L337.944 17.5207Z" fill="white" stroke="#EB2A00" stroke-width="1.5" stroke-linecap="round" stroke-linejoin="round"/>
<path d="M341.006 18.1917L338.397 21.5017" stroke="#EB2A00" stroke-width="1.5" stroke-linecap="round" stroke-linejoin="round"/>
<path d="M344.347 21.7808C344.759 21.2585 344.626 20.5325 344.05 20.1594C343.474 19.7863 342.673 19.9073 342.261 20.4297L341.143 21.8478C340.732 22.3701 340.865 23.0959 341.441 23.469C342.016 23.8421 342.817 23.7212 343.229 23.1989L344.347 21.7808Z" fill="white" stroke="#EB2A00" stroke-width="1.5" stroke-linecap="round" stroke-linejoin="round"/>
<path d="M346.949 22.191L344.34 25.4998M314.954 12.9045L336.062 26.978M324.62 16.9476L321.996 20.2469" stroke="#EB2A00" stroke-width="1.5" stroke-linecap="round" stroke-linejoin="round"/>
<path d="M327.709 20.3974C328.13 19.8677 328.007 19.134 327.433 18.7586C326.858 18.3833 326.051 18.5085 325.63 19.0382L324.531 20.4193C324.11 20.949 324.234 21.6827 324.808 22.0581C325.382 22.4334 326.189 22.3082 326.61 21.7785L327.709 20.3974Z" fill="white" stroke="#EB2A00" stroke-width="1.5" stroke-linecap="round" stroke-linejoin="round"/>
<path d="M330.095 20.6348L327.471 23.934" stroke="#EB2A00" stroke-width="1.5" stroke-linecap="round" stroke-linejoin="round"/>
<path d="M333.197 24.0293C333.619 23.4996 333.495 22.7659 332.921 22.3906C332.347 22.0153 331.54 22.1404 331.118 22.6701L330.02 24.0513C329.598 24.581 329.722 25.3147 330.296 25.69C330.87 26.0654 331.677 25.9402 332.099 25.4105L333.197 24.0293Z" fill="white" stroke="#EB2A00" stroke-width="1.5" stroke-linecap="round" stroke-linejoin="round"/>
<path d="M335.745 24.3043L333.12 27.6035" stroke="#EB2A00" stroke-width="1.5" stroke-linecap="round" stroke-linejoin="round"/>
</svg>
