<svg width="83" height="84" viewBox="0 0 83 84" fill="none" xmlns="http://www.w3.org/2000/svg">
	<mask id="path-1-outside-1_301_353" maskUnits="userSpaceOnUse" x="0" y="0" width="83" height="84" fill="black">
		<rect fill="white" width="83" height="84"/>
		<path d="M53.3309 49.3022C53.0196 48.9849 52.6492 48.733 52.2411 48.5611C51.833 48.3893 51.3953 48.3008 50.9533 48.3008C50.5112 48.3008 50.0735 48.3893 49.6654 48.5611C49.2573 48.733 48.887 48.9849 48.5757 49.3022C47.9519 49.9365 47.6019 50.7946 47.6019 51.689C47.6019 52.5834 47.9519 53.4415 48.5757 54.0758L69.271 74.9986C69.5823 75.3159 69.9527 75.5677 70.3607 75.7396C70.7688 75.9115 71.2065 76 71.6486 76C72.0907 76 72.5284 75.9115 72.9364 75.7396C73.3445 75.5677 73.7149 75.3159 74.0262 74.9986C74.6499 74.3642 75 73.5062 75 72.6117C75 71.7173 74.6499 70.8592 74.0262 70.2249L53.3309 49.3022ZM57.4499 40.8722C60.1134 40.8698 62.667 39.7982 64.5492 37.8929L74.0262 28.3118C74.6499 27.6775 75 26.8194 75 25.925C75 25.0305 74.6499 24.1725 74.0262 23.5381C73.7149 23.2208 73.3445 22.969 72.9364 22.7971C72.5284 22.6252 72.0907 22.5367 71.6486 22.5367C71.2065 22.5367 70.7688 22.6252 70.3607 22.7971C69.9527 22.969 69.5823 23.2208 69.271 23.5381L59.794 33.1193C59.1666 33.7498 58.3178 34.1038 57.4331 34.1038C56.5484 34.1038 55.6997 33.7498 55.0722 33.1193L66.9268 21.1344C67.5505 20.5001 67.9006 19.642 67.9006 18.7476C67.9006 17.8532 67.5505 16.9951 66.9268 16.3608C66.6155 16.0434 66.2452 15.7916 65.8371 15.6197C65.429 15.4478 64.9913 15.3593 64.5492 15.3593C64.1071 15.3593 63.6694 15.4478 63.2614 15.6197C62.8533 15.7916 62.4829 16.0434 62.1716 16.3608L50.3505 28.3118C49.7268 27.6775 49.3767 26.8194 49.3767 25.925C49.3767 25.0305 49.7268 24.1725 50.3505 23.5381L59.794 13.957C60.1445 13.6535 60.4293 13.28 60.6303 12.86C60.8313 12.44 60.9442 11.9825 60.962 11.5162C60.9798 11.05 60.9021 10.585 60.7338 10.1506C60.5654 9.71612 60.3101 9.32154 59.9837 8.99161C59.6573 8.66167 59.2671 8.40349 58.8373 8.23329C58.4076 8.06308 57.9477 7.98451 57.4865 8.00252C57.0253 8.02053 56.5728 8.13473 56.1573 8.33794C55.7419 8.54115 55.3724 8.82899 55.0722 9.1834L45.5953 18.7645C43.7139 20.6689 42.6572 23.2504 42.6572 25.9419C42.6572 28.6334 43.7139 31.2149 45.5953 33.1193L41.5098 37.3173L36.2857 32.1036C37.7684 29.3984 38.3291 26.275 37.8812 23.2156C37.4333 20.1562 36.0018 17.3309 33.8076 15.1758C28.9854 10.3006 16.4946 4.84989 10.6008 10.91C4.70695 16.9702 10.0315 29.4629 14.7197 34.3719C17.3379 37.0283 20.858 38.5777 24.5651 38.7054H25.0339C27.2981 38.6729 29.5145 38.0426 31.4635 36.8772L36.7211 42.091L8.99336 70.1234C8.68332 70.439 8.43782 70.8133 8.27088 71.2249C8.10393 71.6365 8.0188 72.0773 8.02036 72.5221C8.02191 72.967 8.11012 73.4072 8.27994 73.8176C8.44976 74.2279 8.69787 74.6005 9.0101 74.9139C9.32233 75.2274 9.69258 75.4756 10.0997 75.6443C10.5068 75.8131 10.9428 75.8992 11.3828 75.8976C11.8228 75.896 12.2582 75.8069 12.6641 75.6352C13.0701 75.4635 13.4386 75.2127 13.7486 74.897L43.8874 44.427L50.317 37.9267C51.2557 38.8681 52.369 39.6128 53.593 40.1183C54.817 40.6237 56.1277 40.8799 57.4499 40.8722ZM29.5547 30.0384C28.9273 30.6689 28.1786 31.1625 27.3549 31.4886C26.5312 31.8148 25.65 31.9664 24.766 31.9343C22.8083 31.8491 20.9597 30.9996 19.6089 29.5644C15.9923 25.908 13.4472 17.6134 15.356 15.6837C15.99 15.2001 16.7733 14.9602 17.5662 15.0066C21.8402 15.351 25.8856 17.0987 29.0859 19.9833C30.4531 21.2621 31.2685 23.0329 31.3562 24.9138C31.4439 26.7948 30.7969 28.6353 29.5547 30.0384Z"/>
	</mask>
	<path d="M53.3309 49.3022C53.0196 48.9849 52.6492 48.733 52.2411 48.5611C51.833 48.3893 51.3953 48.3008 50.9533 48.3008C50.5112 48.3008 50.0735 48.3893 49.6654 48.5611C49.2573 48.733 48.887 48.9849 48.5757 49.3022C47.9519 49.9365 47.6019 50.7946 47.6019 51.689C47.6019 52.5834 47.9519 53.4415 48.5757 54.0758L69.271 74.9986C69.5823 75.3159 69.9527 75.5677 70.3607 75.7396C70.7688 75.9115 71.2065 76 71.6486 76C72.0907 76 72.5284 75.9115 72.9364 75.7396C73.3445 75.5677 73.7149 75.3159 74.0262 74.9986C74.6499 74.3642 75 73.5062 75 72.6117C75 71.7173 74.6499 70.8592 74.0262 70.2249L53.3309 49.3022ZM57.4499 40.8722C60.1134 40.8698 62.667 39.7982 64.5492 37.8929L74.0262 28.3118C74.6499 27.6775 75 26.8194 75 25.925C75 25.0305 74.6499 24.1725 74.0262 23.5381C73.7149 23.2208 73.3445 22.969 72.9364 22.7971C72.5284 22.6252 72.0907 22.5367 71.6486 22.5367C71.2065 22.5367 70.7688 22.6252 70.3607 22.7971C69.9527 22.969 69.5823 23.2208 69.271 23.5381L59.794 33.1193C59.1666 33.7498 58.3178 34.1038 57.4331 34.1038C56.5484 34.1038 55.6997 33.7498 55.0722 33.1193L66.9268 21.1344C67.5505 20.5001 67.9006 19.642 67.9006 18.7476C67.9006 17.8532 67.5505 16.9951 66.9268 16.3608C66.6155 16.0434 66.2452 15.7916 65.8371 15.6197C65.429 15.4478 64.9913 15.3593 64.5492 15.3593C64.1071 15.3593 63.6694 15.4478 63.2614 15.6197C62.8533 15.7916 62.4829 16.0434 62.1716 16.3608L50.3505 28.3118C49.7268 27.6775 49.3767 26.8194 49.3767 25.925C49.3767 25.0305 49.7268 24.1725 50.3505 23.5381L59.794 13.957C60.1445 13.6535 60.4293 13.28 60.6303 12.86C60.8313 12.44 60.9442 11.9825 60.962 11.5162C60.9798 11.05 60.9021 10.585 60.7338 10.1506C60.5654 9.71612 60.3101 9.32154 59.9837 8.99161C59.6573 8.66167 59.2671 8.40349 58.8373 8.23329C58.4076 8.06308 57.9477 7.98451 57.4865 8.00252C57.0253 8.02053 56.5728 8.13473 56.1573 8.33794C55.7419 8.54115 55.3724 8.82899 55.0722 9.1834L45.5953 18.7645C43.7139 20.6689 42.6572 23.2504 42.6572 25.9419C42.6572 28.6334 43.7139 31.2149 45.5953 33.1193L41.5098 37.3173L36.2857 32.1036C37.7684 29.3984 38.3291 26.275 37.8812 23.2156C37.4333 20.1562 36.0018 17.3309 33.8076 15.1758C28.9854 10.3006 16.4946 4.84989 10.6008 10.91C4.70695 16.9702 10.0315 29.4629 14.7197 34.3719C17.3379 37.0283 20.858 38.5777 24.5651 38.7054H25.0339C27.2981 38.6729 29.5145 38.0426 31.4635 36.8772L36.7211 42.091L8.99336 70.1234C8.68332 70.439 8.43782 70.8133 8.27088 71.2249C8.10393 71.6365 8.0188 72.0773 8.02036 72.5221C8.02191 72.967 8.11012 73.4072 8.27994 73.8176C8.44976 74.2279 8.69787 74.6005 9.0101 74.9139C9.32233 75.2274 9.69258 75.4756 10.0997 75.6443C10.5068 75.8131 10.9428 75.8992 11.3828 75.8976C11.8228 75.896 12.2582 75.8069 12.6641 75.6352C13.0701 75.4635 13.4386 75.2127 13.7486 74.897L43.8874 44.427L50.317 37.9267C51.2557 38.8681 52.369 39.6128 53.593 40.1183C54.817 40.6237 56.1277 40.8799 57.4499 40.8722ZM29.5547 30.0384C28.9273 30.6689 28.1786 31.1625 27.3549 31.4886C26.5312 31.8148 25.65 31.9664 24.766 31.9343C22.8083 31.8491 20.9597 30.9996 19.6089 29.5644C15.9923 25.908 13.4472 17.6134 15.356 15.6837C15.99 15.2001 16.7733 14.9602 17.5662 15.0066C21.8402 15.351 25.8856 17.0987 29.0859 19.9833C30.4531 21.2621 31.2685 23.0329 31.3562 24.9138C31.4439 26.7948 30.7969 28.6353 29.5547 30.0384Z" fill="#EB2A00"/>
	<path d="M53.3309 49.3022L47.6202 54.9047L47.6317 54.9164L47.6432 54.9281L53.3309 49.3022ZM48.5757 49.3022L54.28 54.9111L54.2863 54.9047L48.5757 49.3022ZM47.6019 51.689H39.6019H47.6019ZM48.5757 54.0758L42.8713 59.6848L42.8796 59.6932L42.888 59.7017L48.5757 54.0758ZM69.271 74.9986L74.9817 69.3961L74.9702 69.3844L74.9586 69.3727L69.271 74.9986ZM74.0262 74.9986L68.3218 69.3896L68.3155 69.3961L74.0262 74.9986ZM74.0262 70.2249L79.7306 64.616L79.7222 64.6075L79.7139 64.5991L74.0262 70.2249ZM64.5492 37.8929L58.8615 32.267L58.858 32.2706L64.5492 37.8929ZM74.0262 28.3118L79.7139 33.9376L79.7222 33.9292L79.7306 33.9207L74.0262 28.3118ZM74.0262 23.5381L68.3155 29.1406L68.3218 29.1471L74.0262 23.5381ZM69.271 23.5381L74.9586 29.164L74.9702 29.1523L74.9817 29.1406L69.271 23.5381ZM59.794 33.1193L65.4649 38.762L65.4733 38.7536L65.4817 38.7451L59.794 33.1193ZM57.4331 34.1038V42.1038V34.1038ZM55.0722 33.1193L49.3846 27.4934L43.8033 33.136L49.4013 38.762L55.0722 33.1193ZM66.9268 21.1344L72.6145 26.7603L72.6229 26.7518L72.6312 26.7433L66.9268 21.1344ZM66.9268 16.3608L61.2161 21.9633L61.2225 21.9697L66.9268 16.3608ZM64.5492 15.3593V23.3593V15.3593ZM62.1716 16.3608L67.8593 21.9866L67.8708 21.975L67.8823 21.9633L62.1716 16.3608ZM50.3505 28.3118L44.6461 33.9207L50.3335 39.7049L56.0382 33.9376L50.3505 28.3118ZM49.3767 25.925H41.3767H49.3767ZM50.3505 23.5381L44.6529 17.9224L44.6461 17.9292L50.3505 23.5381ZM59.794 13.957L54.5576 7.90889L54.3184 8.11595L54.0964 8.34124L59.794 13.957ZM55.0722 9.1834L60.7599 14.8093L60.977 14.5898L61.1766 14.3542L55.0722 9.1834ZM45.5953 18.7645L39.9076 13.1387L39.9041 13.1422L45.5953 18.7645ZM41.5098 37.3173L35.8585 42.9798L41.5928 48.7027L47.243 42.8968L41.5098 37.3173ZM36.2857 32.1036L29.2703 28.2586L26.3843 33.5243L30.6345 37.766L36.2857 32.1036ZM33.8076 15.1758L28.12 20.8017L28.1606 20.8428L28.2019 20.8833L33.8076 15.1758ZM14.7197 34.3719L8.93427 39.8972L8.97778 39.9427L9.02201 39.9876L14.7197 34.3719ZM24.5651 38.7054L24.2896 46.7007L24.4273 46.7054H24.5651V38.7054ZM25.0339 38.7054V46.7054H25.0914L25.149 46.7046L25.0339 38.7054ZM31.4635 36.8772L37.0967 31.1968L32.6875 26.8243L27.3579 30.0111L31.4635 36.8772ZM36.7211 42.091L42.4087 47.7168L48.0274 42.0364L42.3542 36.4105L36.7211 42.091ZM8.99336 70.1234L3.30568 64.4975L3.29574 64.5075L3.28584 64.5176L8.99336 70.1234ZM13.7486 74.897L8.06091 69.2711L8.05097 69.2812L8.04107 69.2913L13.7486 74.897ZM43.8874 44.427L38.1997 38.8011H38.1997L43.8874 44.427ZM50.317 37.9267L55.9817 32.2778L50.2939 26.5741L44.6293 32.3009L50.317 37.9267ZM24.766 31.9343L24.418 39.9267L24.4467 39.928L24.4755 39.929L24.766 31.9343ZM19.6089 29.5644L25.4344 24.0814L25.3664 24.0091L25.2966 23.9386L19.6089 29.5644ZM15.356 15.6837L10.5047 9.32246L10.0608 9.66095L9.66831 10.0578L15.356 15.6837ZM17.5662 15.0066L18.2087 7.0324L18.1212 7.02534L18.0335 7.02021L17.5662 15.0066ZM29.0859 19.9833L34.5507 14.1407L34.4969 14.0904L34.4421 14.041L29.0859 19.9833ZM59.0416 43.6997C57.9907 42.6285 56.7357 41.7735 55.3465 41.1884L49.1358 55.9338C48.5627 55.6925 48.0484 55.3412 47.6202 54.9047L59.0416 43.6997ZM55.3465 41.1884C53.9571 40.6032 52.4637 40.3008 50.9533 40.3008V56.3008C50.327 56.3008 49.709 56.1753 49.1358 55.9338L55.3465 41.1884ZM50.9533 40.3008C49.4428 40.3008 47.9494 40.6032 46.5601 41.1884L52.7708 55.9338C52.1976 56.1753 51.5796 56.3008 50.9533 56.3008V40.3008ZM46.5601 41.1884C45.1709 41.7735 43.9159 42.6285 42.865 43.6997L54.2863 54.9047C53.8581 55.3412 53.3438 55.6925 52.7708 55.9338L46.5601 41.1884ZM42.8713 43.6933C40.7674 45.8329 39.6019 48.709 39.6019 51.689H55.6019C55.6019 52.8802 55.1364 54.0401 54.28 54.9111L42.8713 43.6933ZM39.6019 51.689C39.6019 54.669 40.7674 57.5451 42.8713 59.6848L54.28 48.4669C55.1364 49.3379 55.6019 50.4979 55.6019 51.689H39.6019ZM42.888 59.7017L63.5833 80.6244L74.9586 69.3727L54.2633 48.45L42.888 59.7017ZM63.5603 80.6011C64.6111 81.6722 65.8662 82.5272 67.2554 83.1123L73.4661 68.3669C74.0391 68.6083 74.5534 68.9595 74.9817 69.3961L63.5603 80.6011ZM67.2554 83.1123C68.6447 83.6975 70.1381 84 71.6486 84V68C72.2749 68 72.8929 68.1255 73.4661 68.3669L67.2554 83.1123ZM71.6486 84C73.1591 84 74.6525 83.6975 76.0418 83.1123L69.8311 68.3669C70.4043 68.1255 71.0222 68 71.6486 68V84ZM76.0418 83.1123C77.431 82.5272 78.686 81.6722 79.7369 80.6011L68.3155 69.3961C68.7437 68.9595 69.258 68.6083 69.8311 68.3669L76.0418 83.1123ZM79.7306 80.6075C81.8344 78.4679 83 75.5918 83 72.6117H67C67 71.4205 67.4654 70.2606 68.3218 69.3896L79.7306 80.6075ZM83 72.6117C83 69.6317 81.8344 66.7556 79.7306 64.616L68.3218 75.8338C67.4654 74.9629 67 73.8029 67 72.6117H83ZM79.7139 64.5991L59.0186 43.6763L47.6432 54.9281L68.3385 75.8508L79.7139 64.5991ZM57.457 48.8722C62.2699 48.8679 66.8662 46.9307 70.2404 43.5152L58.858 32.2706C58.4677 32.6657 57.9569 32.8717 57.4427 32.8722L57.457 48.8722ZM70.2369 43.5188L79.7139 33.9376L68.3385 22.6859L58.8615 32.267L70.2369 43.5188ZM79.7306 33.9207C81.8344 31.7811 83 28.905 83 25.925H67C67 24.7338 67.4654 23.5738 68.3218 22.7029L79.7306 33.9207ZM83 25.925C83 22.9449 81.8344 20.0688 79.7306 17.9292L68.3218 29.1471C67.4654 28.2761 67 27.1162 67 25.925H83ZM79.7369 17.9356C78.686 16.8645 77.431 16.0095 76.0418 15.4244L69.8311 30.1698C69.258 29.9284 68.7437 29.5771 68.3155 29.1406L79.7369 17.9356ZM76.0418 15.4244C74.6524 14.8392 73.159 14.5367 71.6486 14.5367V30.5367C71.0223 30.5367 70.4043 30.4112 69.8311 30.1698L76.0418 15.4244ZM71.6486 14.5367C70.1381 14.5367 68.6448 14.8392 67.2554 15.4244L73.4661 30.1698C72.8929 30.4112 72.2749 30.5367 71.6486 30.5367V14.5367ZM67.2554 15.4244C65.8662 16.0095 64.6111 16.8645 63.5603 17.9356L74.9817 29.1406C74.5534 29.5771 74.0391 29.9284 73.4661 30.1698L67.2554 15.4244ZM63.5833 17.9123L54.1063 27.4934L65.4817 38.7451L74.9586 29.164L63.5833 17.9123ZM54.1231 27.4765C54.9878 26.6075 56.1761 26.1038 57.4331 26.1038V42.1038C60.4595 42.1038 63.3453 40.8922 65.4649 38.762L54.1231 27.4765ZM57.4331 26.1038C58.6901 26.1038 59.8784 26.6075 60.7432 27.4765L49.4013 38.762C51.5209 40.8922 54.4067 42.1038 57.4331 42.1038V26.1038ZM60.7599 38.7451L72.6145 26.7603L61.2392 15.5085L49.3846 27.4934L60.7599 38.7451ZM72.6312 26.7433C74.735 24.6037 75.9006 21.7276 75.9006 18.7476H59.9006C59.9006 17.5564 60.3661 16.3965 61.2225 15.5255L72.6312 26.7433ZM75.9006 18.7476C75.9006 15.7676 74.735 12.8915 72.6312 10.7519L61.2225 21.9697C60.3661 21.0987 59.9006 19.9388 59.9006 18.7476H75.9006ZM72.6375 10.7583C71.5867 9.6871 70.3316 8.83211 68.9424 8.247L62.7317 22.9924C62.1587 22.7511 61.6444 22.3998 61.2161 21.9633L72.6375 10.7583ZM68.9424 8.247C67.553 7.66179 66.0597 7.35933 64.5492 7.35933V23.3593C63.9229 23.3593 63.305 23.2339 62.7317 22.9924L68.9424 8.247ZM64.5492 7.35933C63.0388 7.35933 61.5454 7.6618 60.156 8.247L66.3667 22.9924C65.7935 23.2338 65.1755 23.3593 64.5492 23.3593V7.35933ZM60.156 8.247C58.7668 8.83211 57.5118 9.6871 56.4609 10.7583L67.8823 21.9633C67.454 22.3998 66.9397 22.7511 66.3667 22.9924L60.156 8.247ZM56.4839 10.7349L44.6628 22.6859L56.0382 33.9376L67.8593 21.9866L56.4839 10.7349ZM56.0549 22.7029C56.9113 23.5738 57.3767 24.7338 57.3767 25.925H41.3767C41.3767 28.905 42.5423 31.7811 44.6461 33.9207L56.0549 22.7029ZM57.3767 25.925C57.3767 27.1161 56.9113 28.2761 56.0549 29.1471L44.6461 17.9292C42.5423 20.0688 41.3767 22.9449 41.3767 25.925H57.3767ZM56.0481 29.1539L65.4916 19.5728L54.0964 8.34124L44.6529 17.9224L56.0481 29.1539ZM65.0304 20.0052C66.2158 18.9789 67.1729 17.7209 67.8465 16.3133L53.414 9.40668C53.6856 8.83919 54.0733 8.32818 54.5576 7.90889L65.0304 20.0052ZM67.8465 16.3133C68.52 14.906 68.8968 13.377 68.9562 11.8216L52.9679 11.2108C52.9917 10.588 53.1425 9.97397 53.414 9.40668L67.8465 16.3133ZM68.9562 11.8216C69.0156 10.2663 68.7566 8.71357 68.1933 7.2599L53.2743 13.0413C53.0477 12.4565 52.9441 11.8336 52.9679 11.2108L68.9562 11.8216ZM68.1933 7.2599C67.6299 5.80608 66.773 4.47944 65.6714 3.36575L54.296 14.6175C53.8471 14.1637 53.5009 13.6262 53.2743 13.0413L68.1933 7.2599ZM65.6714 3.36575C64.5696 2.25184 63.2467 1.37509 61.7833 0.79546L55.8913 15.6711C55.2874 15.4319 54.7451 15.0715 54.296 14.6175L65.6714 3.36575ZM61.7833 0.79546C60.3196 0.215731 58.7501 -0.0529184 57.1744 0.00861549L57.7987 15.9964C57.1453 16.0219 56.4956 15.9104 55.8913 15.6711L61.7833 0.79546ZM57.1744 0.00861549C55.5986 0.0701485 54.0554 0.460324 52.6423 1.15153L59.6724 15.5244C59.0901 15.8091 58.452 15.9709 57.7987 15.9964L57.1744 0.00861549ZM52.6423 1.15153C51.2294 1.84261 49.9795 2.81833 48.9679 4.0126L61.1766 14.3542C60.7654 14.8397 60.2543 15.2397 59.6724 15.5244L52.6423 1.15153ZM49.3846 3.55754L39.9076 13.1387L51.2829 24.3904L60.7599 14.8093L49.3846 3.55754ZM39.9041 13.1422C36.5345 16.5531 34.6572 21.1584 34.6572 25.9419H50.6572C50.6572 25.3424 50.8934 24.7847 51.2864 24.3868L39.9041 13.1422ZM34.6572 25.9419C34.6572 30.7254 36.5345 35.3307 39.9041 38.7416L51.2864 27.4969C50.8934 27.0991 50.6572 26.5414 50.6572 25.9419H34.6572ZM39.862 27.5398L35.7766 31.7379L47.243 42.8968L51.3285 38.6987L39.862 27.5398ZM47.161 31.6549L41.937 26.4412L30.6345 37.766L35.8585 42.9798L47.161 31.6549ZM43.3011 35.9486C45.6221 31.7139 46.4961 26.8333 45.7968 22.0568L29.9655 24.3744C30.162 25.7167 29.9147 27.0829 29.2703 28.2586L43.3011 35.9486ZM45.7968 22.0568C45.0975 17.2798 42.8605 12.854 39.4134 9.46834L28.2019 20.8833C29.1431 21.8077 29.7691 23.0326 29.9655 24.3744L45.7968 22.0568ZM39.4953 9.54997C36.0024 6.01869 30.3972 2.77179 24.7071 1.22301C19.2996 -0.248855 10.9006 -0.872774 4.86575 5.33243L16.3358 16.4876C16.355 16.4678 16.3745 16.4495 16.4388 16.4199C16.517 16.3839 16.7041 16.3139 17.0486 16.2699C17.79 16.1752 18.9593 16.2406 20.505 16.6613C23.7393 17.5417 26.7907 19.4578 28.12 20.8017L39.4953 9.54997ZM4.86575 5.33243C-1.05363 11.4189 -0.466229 19.6961 0.954408 25.1049C2.44907 30.7956 5.57553 36.3803 8.93427 39.8972L20.5052 28.8467C19.1757 27.4545 17.2957 24.3383 16.4295 21.0404C16.0144 19.4598 15.9397 18.2303 16.0397 17.4117C16.1303 16.6689 16.3231 16.5006 16.3358 16.4876L4.86575 5.33243ZM9.02201 39.9876C13.0679 44.0926 18.5247 46.5021 24.2896 46.7007L24.8405 30.7102C23.1912 30.6533 21.6079 29.9641 20.4175 28.7562L9.02201 39.9876ZM24.5651 46.7054H25.0339V30.7054H24.5651V46.7054ZM25.149 46.7046C28.824 46.6517 32.4163 45.6286 35.5691 43.7434L27.3579 30.0111C26.6127 30.4567 25.7721 30.694 24.9188 30.7063L25.149 46.7046ZM25.8304 42.5577L31.0879 47.7714L42.3542 36.4105L37.0967 31.1968L25.8304 42.5577ZM31.0334 36.4651L3.30568 64.4975L14.681 75.7492L42.4087 47.7168L31.0334 36.4651ZM3.28584 64.5176C2.23987 65.5826 1.41615 66.8407 0.857523 68.2179L15.6842 74.2319C15.4595 74.786 15.1268 75.2955 14.7009 75.7291L3.28584 64.5176ZM0.857523 68.2179C0.298967 69.5949 0.0152202 71.0667 0.0204048 72.5501L16.0203 72.4942C16.0224 73.0879 15.9089 73.6781 15.6842 74.2319L0.857523 68.2179ZM0.0204048 72.5501C0.0255895 74.0335 0.319615 75.5033 0.887853 76.8765L15.672 70.7586C15.9006 71.311 16.0182 71.9005 16.0203 72.4942L0.0204048 72.5501ZM0.887853 76.8765C1.45616 78.2498 2.28876 79.5022 3.34234 80.5598L14.6779 69.268C15.107 69.6988 15.4434 70.206 15.672 70.7586L0.887853 76.8765ZM3.34234 80.5598C4.39611 81.6177 5.6504 82.46 7.03587 83.0344L13.1635 68.2543C13.7347 68.4911 14.2486 68.837 14.6779 69.268L3.34234 80.5598ZM7.03587 83.0344C8.42152 83.6089 9.90859 83.9029 11.4114 83.8976L11.3542 67.8977C11.977 67.8954 12.5921 68.0174 13.1635 68.2543L7.03587 83.0344ZM11.4114 83.8976C12.9141 83.8922 14.399 83.5875 15.7805 83.0032L9.54777 68.2671C10.1174 68.0262 10.7315 67.8999 11.3542 67.8977L11.4114 83.8976ZM15.7805 83.0032C17.1618 82.419 18.41 81.5679 19.4561 80.5027L8.04107 69.2913C8.46716 68.8574 8.97835 68.508 9.54777 68.2671L15.7805 83.0032ZM19.4363 80.5229L49.5751 50.0529L38.1997 38.8011L8.06091 69.2711L19.4363 80.5229ZM49.5751 50.0529L56.0047 43.5526L44.6293 32.3009L38.1997 38.8011L49.5751 50.0529ZM44.6523 43.5757C46.3346 45.2627 48.3345 46.6021 50.5396 47.5126L56.6465 32.7239C56.4035 32.6236 56.1769 32.4734 55.9817 32.2778L44.6523 43.5757ZM50.5396 47.5126C52.7449 48.4233 55.1094 48.886 57.4966 48.872L57.4031 32.8723C57.146 32.8738 56.8892 32.8241 56.6465 32.7239L50.5396 47.5126ZM23.8837 24.3957C24.0288 24.2499 24.2071 24.1307 24.41 24.0504L30.2998 38.9269C32.1502 38.1943 33.8259 37.0879 35.2257 35.6811L23.8837 24.3957ZM24.41 24.0504C24.6132 23.97 24.8336 23.9315 25.0565 23.9396L24.4755 39.929C26.4665 40.0014 28.4492 39.6596 30.2998 38.9269L24.41 24.0504ZM25.114 23.9419C25.2528 23.9479 25.3653 24.008 25.4344 24.0814L13.7834 35.0474C16.554 37.9911 20.3639 39.7502 24.418 39.9267L25.114 23.9419ZM25.2966 23.9386C25.0732 23.7127 24.6567 23.1842 24.1816 22.3087C23.7243 21.466 23.3313 20.52 23.0591 19.6318C22.7713 18.6929 22.708 18.1132 22.7043 17.9595C22.7026 17.8869 22.7217 18.1578 22.5975 18.6482C22.4797 19.1134 22.1175 20.2239 21.0437 21.3095L9.66831 10.0578C6.76852 12.9895 6.67161 16.7965 6.70898 18.3454C6.75864 20.404 7.19982 22.4883 7.76174 24.3213C8.84554 27.8567 10.9102 32.1462 13.9212 35.1903L25.2966 23.9386ZM20.2073 22.0449C19.3265 22.7166 18.2245 23.0588 17.0989 22.9929L18.0335 7.02021C15.3222 6.86157 12.6535 7.68367 10.5047 9.32246L20.2073 22.0449ZM16.9236 22.9807C19.4368 23.1832 21.828 24.2115 23.7297 25.9256L34.4421 14.041C29.9432 9.98586 24.2436 7.51869 18.2087 7.0324L16.9236 22.9807ZM23.6211 25.8259C23.4555 25.671 23.3736 25.4748 23.3648 25.2864L39.3475 24.5412C39.1633 20.591 37.4507 16.8532 34.5507 14.1407L23.6211 25.8259ZM23.3648 25.2864C23.3561 25.0985 23.4191 24.9001 23.5647 24.7356L35.5447 35.3412C38.1747 32.3704 39.5316 28.4911 39.3475 24.5412L23.3648 25.2864Z" fill="white" mask="url(#path-1-outside-1_301_353)"/>
</svg>
