<svg
	width="47"
	height="33"
	viewBox="0 0 47 33"
	fill="none"
	xmlns="http://www.w3.org/2000/svg"
>
	<mask
		id="mask0_9_459"
		maskUnits="userSpaceOnUse"
		x="0"
		y="0"
		width="47"
		height="33"
	>
		<rect
			width="47"
			height="33"
			rx="5"
			fill="#D9D9D9"
		/>
	</mask>
	<g mask="url(#mask0_9_459)">
		<path
			d="M0 -0.6875H47V33H0V-0.6875Z"
			fill="#F0F0F0"
		/>
		<path
			d="M0 3.14056H47V7.40587H0V3.14056ZM0 11.6723H47V15.9376H0V11.6723ZM0 20.2029H47V24.4682H0V20.2029ZM0 28.7346H47V32.9999H0V28.7346Z"
			fill="#D80027"
		/>
		<path
			d="M0 -0.6875H23.5V17.6875H0V-0.6875Z"
			fill="#2E52B2"
		/>
		<path
			d="M9.54861 6.86988L9.1744 8.11541H7.96401L8.94341 8.88479L8.5692 10.1302L9.54861 9.36085L10.5274 10.1302L10.1533 8.88479L11.1327 8.11541H9.92219L9.54861 6.86988ZM9.92219 12.6101L9.54861 11.3647L9.1744 12.6101H7.96401L8.94341 13.3796L8.5692 14.625L9.54861 13.8555L10.5274 14.625L10.1533 13.3796L11.1327 12.6101H9.92219ZM4.80678 12.6101L4.43311 11.3647L4.05891 12.6101H2.84851L3.82792 13.3796L3.45371 14.625L4.43311 13.8555L5.41198 14.625L5.03786 13.3796L6.01708 12.6101H4.80678ZM4.43311 6.86988L4.05891 8.11541H2.84851L3.82792 8.88479L3.45371 10.1302L4.43311 9.36085L5.41198 10.1302L5.03786 8.88479L6.01708 8.11541H4.80678L4.43311 6.86988ZM9.54861 2.375L9.1744 3.62063H7.96401L8.94341 4.3901L8.5692 5.63554L9.54861 4.86607L10.5274 5.63554L10.1533 4.3901L11.1327 3.62063H9.92219L9.54861 2.375ZM4.43311 2.375L4.05891 3.62063H2.84851L3.82792 4.3901L3.45371 5.63554L4.43311 4.86607L5.41198 5.63554L5.03786 4.3901L6.01708 3.62063H4.80678L4.43311 2.375ZM14.664 6.86988L14.2899 8.11541H13.0795L14.0588 8.88479L13.6848 10.1302L14.664 9.36085L15.643 10.1302L15.2688 8.88479L16.2482 8.11541H15.0378L14.664 6.86988ZM15.0378 12.6101L14.664 11.3647L14.2899 12.6101H13.0795L14.0588 13.3796L13.6848 14.625L14.664 13.8555L15.643 14.625L15.2688 13.3796L16.2482 12.6101H15.0378ZM20.1533 12.6101L19.7796 11.3647L19.4054 12.6101H18.1951L19.1743 13.3796L18.8002 14.625L19.7796 13.8555L20.7585 14.625L20.3843 13.3796L21.3637 12.6101H20.1533ZM19.7796 6.86988L19.4054 8.11541H18.1951L19.1743 8.88479L18.8002 10.1302L19.7796 9.36085L20.7585 10.1302L20.3843 8.88479L21.3637 8.11541H20.1533L19.7796 6.86988ZM14.664 2.375L14.2899 3.62063H13.0795L14.0588 4.3901L13.6848 5.63554L14.664 4.86607L15.643 5.63554L15.2688 4.3901L16.2482 3.62063H15.0378L14.664 2.375ZM19.7796 2.375L19.4054 3.62063H18.1951L19.1743 4.3901L18.8002 5.63554L19.7796 4.86607L20.7585 5.63554L20.3843 4.3901L21.3637 3.62063H20.1533L19.7796 2.375Z"
			fill="#F0F0F0"
		/>
	</g>
</svg>
