<svg width="42" height="42" viewBox="0 0 42 42" fill="none" xmlns="http://www.w3.org/2000/svg">
<path d="M30.5709 25.1205C30.159 24.9157 27.4814 23.6873 27.0695 23.4825C26.6576 23.2778 26.2456 23.2778 25.8337 23.6873C25.4218 24.0968 24.5979 25.3252 24.186 25.7347C23.98 26.1442 23.5681 26.1442 23.1562 25.9394C21.7144 25.3252 20.2726 24.5062 19.0369 23.4825C18.007 22.4588 16.9772 21.2303 16.1533 20.0019C15.9474 19.5924 16.1533 19.1829 16.3593 18.9782C16.5653 18.7734 16.7712 18.3639 17.1832 18.1592C17.3891 17.9544 17.5951 17.5449 17.5951 17.3402C17.8011 17.1355 17.8011 16.726 17.5951 16.5212C17.3891 16.3165 16.3593 13.8596 15.9474 12.8358C15.7414 11.4026 15.3295 11.4026 14.9176 11.4026H13.8877C13.4758 11.4026 12.8579 11.8121 12.6519 12.0169C11.4162 13.2453 10.7983 14.6785 10.7983 16.3165C11.0042 18.1592 11.6221 20.0019 12.8579 21.6398C15.1235 24.9157 18.007 27.5774 21.5084 29.2154C22.5383 29.6248 23.3621 30.0343 24.392 30.2391C25.4218 30.6486 26.4516 30.6486 27.6874 30.4438C29.1291 30.2391 30.3649 29.2154 31.1888 27.9869C31.6007 27.1679 31.6007 26.3489 31.3948 25.53L30.5709 25.1205ZM35.72 6.48876C27.6874 -1.49625 14.7116 -1.49625 6.67895 6.48876C0.0880697 13.0406 -1.14772 23.073 3.38351 31.0581L0.5 41.5L11.4162 38.6336C14.5056 40.2715 17.8011 41.0905 21.0965 41.0905C32.4246 41.0905 41.4871 32.0818 41.4871 20.8208C41.693 15.4975 39.4274 10.3789 35.72 6.48876ZM30.159 35.1529C27.4814 36.7909 24.392 37.8146 21.0965 37.8146C18.007 37.8146 15.1235 36.9956 12.446 35.5624L11.8281 35.1529L5.44316 36.7909L7.09088 30.6486L6.67895 30.0343C1.73579 21.8446 4.20737 11.6074 12.24 6.48876C20.2726 1.37016 30.5709 4.03184 35.5141 11.8121C40.4572 19.7971 38.1916 30.2391 30.159 35.1529Z" fill="#EB2A00"/>
</svg>
